G04 #@! TF.GenerationSoftware,KiCad,Pcbnew,(5.0.1)-4*
G04 #@! TF.CreationDate,2020-04-28T21:10:57-04:00*
G04 #@! TF.ProjectId,EFC_DIY_version,4546435F4449595F76657273696F6E2E,v01*
G04 #@! TF.SameCoordinates,Original*
G04 #@! TF.FileFunction,Copper,L1,Top,Signal*
G04 #@! TF.FilePolarity,Positive*
%FSLAX46Y46*%
G04 Gerber Fmt 4.6, Leading zero omitted, Abs format (unit mm)*
G04 Created by KiCad (PCBNEW (5.0.1)-4) date 4/28/2020 9:10:57 PM*
%MOMM*%
%LPD*%
G01*
G04 APERTURE LIST*
G04 #@! TA.AperFunction,ComponentPad*
%ADD10O,2.200000X2.200000*%
G04 #@! TD*
G04 #@! TA.AperFunction,ComponentPad*
%ADD11R,2.200000X2.200000*%
G04 #@! TD*
G04 #@! TA.AperFunction,ComponentPad*
%ADD12R,2.000000X1.905000*%
G04 #@! TD*
G04 #@! TA.AperFunction,ComponentPad*
%ADD13O,2.000000X1.905000*%
G04 #@! TD*
G04 #@! TA.AperFunction,ComponentPad*
%ADD14O,1.600000X2.400000*%
G04 #@! TD*
G04 #@! TA.AperFunction,ComponentPad*
%ADD15R,1.600000X2.400000*%
G04 #@! TD*
G04 #@! TA.AperFunction,ComponentPad*
%ADD16R,1.500000X1.500000*%
G04 #@! TD*
G04 #@! TA.AperFunction,ComponentPad*
%ADD17C,1.500000*%
G04 #@! TD*
G04 #@! TA.AperFunction,ComponentPad*
%ADD18C,1.800000*%
G04 #@! TD*
G04 #@! TA.AperFunction,ComponentPad*
%ADD19R,2.400000X2.400000*%
G04 #@! TD*
G04 #@! TA.AperFunction,ComponentPad*
%ADD20O,2.400000X2.400000*%
G04 #@! TD*
G04 #@! TA.AperFunction,ComponentPad*
%ADD21R,1.600000X1.600000*%
G04 #@! TD*
G04 #@! TA.AperFunction,ComponentPad*
%ADD22C,1.600000*%
G04 #@! TD*
G04 #@! TA.AperFunction,ComponentPad*
%ADD23C,2.000000*%
G04 #@! TD*
G04 #@! TA.AperFunction,ComponentPad*
%ADD24O,1.600000X1.600000*%
G04 #@! TD*
G04 #@! TA.AperFunction,ComponentPad*
%ADD25C,2.400000*%
G04 #@! TD*
G04 #@! TA.AperFunction,ComponentPad*
%ADD26R,2.100000X2.100000*%
G04 #@! TD*
G04 #@! TA.AperFunction,ComponentPad*
%ADD27C,2.100000*%
G04 #@! TD*
G04 #@! TA.AperFunction,ComponentPad*
%ADD28C,3.800000*%
G04 #@! TD*
G04 #@! TA.AperFunction,Conductor*
%ADD29C,2.032000*%
G04 #@! TD*
G04 #@! TA.AperFunction,Conductor*
%ADD30C,3.048000*%
G04 #@! TD*
G04 #@! TA.AperFunction,Conductor*
%ADD31C,0.762000*%
G04 #@! TD*
G04 APERTURE END LIST*
D10*
G04 #@! TO.P,D1,2*
G04 #@! TO.N,Net-(1N5819-Pad1)*
X192532000Y-45720000D03*
D11*
G04 #@! TO.P,D1,1*
G04 #@! TO.N,/Vcc*
X182372000Y-45720000D03*
G04 #@! TD*
G04 #@! TO.P,D2,1*
G04 #@! TO.N,Net-(D2-Pad1)*
X198628000Y-89662000D03*
D10*
G04 #@! TO.P,D2,2*
G04 #@! TO.N,Earth*
X198628000Y-99822000D03*
G04 #@! TD*
D12*
G04 #@! TO.P,Q1,1*
G04 #@! TO.N,Net-(D2-Pad1)*
X208280000Y-90170000D03*
D13*
G04 #@! TO.P,Q1,2*
G04 #@! TO.N,Net-(175L10-Pad1)*
X208280000Y-92710000D03*
G04 #@! TO.P,Q1,3*
G04 #@! TO.N,Earth*
X208280000Y-95250000D03*
G04 #@! TD*
D14*
G04 #@! TO.P,U1,14*
G04 #@! TO.N,/Vcc*
X135890000Y-69850000D03*
G04 #@! TO.P,U1,7*
G04 #@! TO.N,Earth*
X151130000Y-77470000D03*
G04 #@! TO.P,U1,13*
G04 #@! TO.N,Net-(R12-Pad2)*
X138430000Y-69850000D03*
G04 #@! TO.P,U1,6*
G04 #@! TO.N,Net-(C6-Pad1)*
X148590000Y-77470000D03*
G04 #@! TO.P,U1,12*
G04 #@! TO.N,Net-(C8-Pad1)*
X140970000Y-69850000D03*
G04 #@! TO.P,U1,5*
G04 #@! TO.N,Net-(R8-Pad1)*
X146050000Y-77470000D03*
G04 #@! TO.P,U1,11*
G04 #@! TO.N,Net-(C5-Pad1)*
X143510000Y-69850000D03*
G04 #@! TO.P,U1,4*
G04 #@! TO.N,/Vcc*
X143510000Y-77470000D03*
G04 #@! TO.P,U1,10*
X146050000Y-69850000D03*
G04 #@! TO.P,U1,3*
G04 #@! TO.N,Net-(C4-Pad1)*
X140970000Y-77470000D03*
G04 #@! TO.P,U1,9*
G04 #@! TO.N,Net-(C6-Pad2)*
X148590000Y-69850000D03*
G04 #@! TO.P,U1,2*
G04 #@! TO.N,Net-(C3-Pad1)*
X138430000Y-77470000D03*
G04 #@! TO.P,U1,8*
G04 #@! TO.N,Net-(C8-Pad1)*
X151130000Y-69850000D03*
D15*
G04 #@! TO.P,U1,1*
G04 #@! TO.N,Net-(C3-Pad1)*
X135890000Y-77470000D03*
G04 #@! TD*
D16*
G04 #@! TO.P,Q3,1*
G04 #@! TO.N,Earth*
X167894000Y-97028000D03*
D17*
G04 #@! TO.P,Q3,3*
G04 #@! TO.N,Net-(Q3-Pad3)*
X167894000Y-91948000D03*
G04 #@! TO.P,Q3,2*
G04 #@! TO.N,Net-(Q3-Pad2)*
X167894000Y-94488000D03*
G04 #@! TD*
D16*
G04 #@! TO.P,Q2,1*
G04 #@! TO.N,Net-(1N5819-Pad1)*
X182118000Y-77216000D03*
D17*
G04 #@! TO.P,Q2,3*
G04 #@! TO.N,Net-(Q2-Pad3)*
X187198000Y-77216000D03*
G04 #@! TO.P,Q2,2*
G04 #@! TO.N,Net-(Q2-Pad2)*
X184658000Y-77216000D03*
G04 #@! TD*
D18*
G04 #@! TO.P,175L10,1*
G04 #@! TO.N,Net-(175L10-Pad1)*
X218440000Y-91440000D03*
G04 #@! TO.P,175L10,2*
G04 #@! TO.N,Earth*
X217040000Y-98940000D03*
G04 #@! TD*
D19*
G04 #@! TO.P,1N5819,1*
G04 #@! TO.N,Net-(1N5819-Pad1)*
X201930000Y-45720000D03*
D20*
G04 #@! TO.P,1N5819,2*
G04 #@! TO.N,Net-(1N5819-Pad2)*
X201930000Y-58420000D03*
G04 #@! TD*
D21*
G04 #@! TO.P,C1,1*
G04 #@! TO.N,Net-(1N5819-Pad1)*
X187960000Y-55880000D03*
D22*
G04 #@! TO.P,C1,2*
G04 #@! TO.N,Earth*
X185460000Y-55880000D03*
G04 #@! TD*
D23*
G04 #@! TO.P,C2,2*
G04 #@! TO.N,Earth*
X167800000Y-71120000D03*
G04 #@! TO.P,C2,1*
G04 #@! TO.N,Net-(1N5819-Pad1)*
X177800000Y-71120000D03*
G04 #@! TD*
G04 #@! TO.P,C3,1*
G04 #@! TO.N,Net-(C3-Pad1)*
X148844000Y-90678000D03*
G04 #@! TO.P,C3,2*
G04 #@! TO.N,Earth*
X148844000Y-100678000D03*
G04 #@! TD*
G04 #@! TO.P,C4,1*
G04 #@! TO.N,Net-(C4-Pad1)*
X142748000Y-90424000D03*
G04 #@! TO.P,C4,2*
G04 #@! TO.N,Earth*
X142748000Y-100424000D03*
G04 #@! TD*
G04 #@! TO.P,C5,2*
G04 #@! TO.N,Earth*
X142494000Y-51722000D03*
G04 #@! TO.P,C5,1*
G04 #@! TO.N,Net-(C5-Pad1)*
X142494000Y-61722000D03*
G04 #@! TD*
D22*
G04 #@! TO.P,C6,1*
G04 #@! TO.N,Net-(C6-Pad1)*
X162560000Y-69088000D03*
D24*
G04 #@! TO.P,C6,2*
G04 #@! TO.N,Net-(C6-Pad2)*
X155060000Y-69088000D03*
G04 #@! TD*
D25*
G04 #@! TO.P,C8,1*
G04 #@! TO.N,Net-(C8-Pad1)*
X154940000Y-59182000D03*
G04 #@! TO.P,C8,2*
G04 #@! TO.N,Earth*
X154940000Y-44182000D03*
G04 #@! TD*
D21*
G04 #@! TO.P,C9,1*
G04 #@! TO.N,/Vcc*
X170180000Y-48260000D03*
D22*
G04 #@! TO.P,C9,2*
G04 #@! TO.N,Earth*
X170180000Y-52060000D03*
G04 #@! TD*
D26*
G04 #@! TO.P,J1,1*
G04 #@! TO.N,Net-(1N5819-Pad1)*
X216154000Y-45466000D03*
D27*
G04 #@! TO.P,J1,2*
G04 #@! TO.N,Net-(1N5819-Pad2)*
X216154000Y-50546000D03*
G04 #@! TO.P,J1,3*
G04 #@! TO.N,Net-(J1-Pad3)*
X216154000Y-55626000D03*
G04 #@! TO.P,J1,4*
X216154000Y-60706000D03*
G04 #@! TO.P,J1,5*
G04 #@! TO.N,Net-(175L10-Pad1)*
X216154000Y-65786000D03*
G04 #@! TD*
D25*
G04 #@! TO.P,R1,1*
G04 #@! TO.N,Net-(D2-Pad1)*
X207010000Y-76200000D03*
D20*
G04 #@! TO.P,R1,2*
G04 #@! TO.N,Net-(Q2-Pad3)*
X194310000Y-76200000D03*
G04 #@! TD*
D25*
G04 #@! TO.P,R2,1*
G04 #@! TO.N,Net-(D2-Pad1)*
X191262000Y-88900000D03*
D20*
G04 #@! TO.P,R2,2*
G04 #@! TO.N,Earth*
X191262000Y-101600000D03*
G04 #@! TD*
G04 #@! TO.P,R3,2*
G04 #@! TO.N,Net-(Q2-Pad2)*
X182880000Y-89154000D03*
D25*
G04 #@! TO.P,R3,1*
G04 #@! TO.N,Net-(1N5819-Pad1)*
X182880000Y-101854000D03*
G04 #@! TD*
D20*
G04 #@! TO.P,R4,2*
G04 #@! TO.N,Net-(H1-Pad1)*
X129286000Y-105156000D03*
D25*
G04 #@! TO.P,R4,1*
G04 #@! TO.N,Net-(H3-Pad1)*
X129286000Y-92456000D03*
G04 #@! TD*
D20*
G04 #@! TO.P,R5,2*
G04 #@! TO.N,Net-(Q2-Pad2)*
X184658000Y-84074000D03*
D25*
G04 #@! TO.P,R5,1*
G04 #@! TO.N,Net-(Q3-Pad3)*
X171958000Y-84074000D03*
G04 #@! TD*
G04 #@! TO.P,R6,1*
G04 #@! TO.N,Net-(1N5819-Pad1)*
X175260000Y-89154000D03*
D20*
G04 #@! TO.P,R6,2*
G04 #@! TO.N,Net-(Q3-Pad3)*
X175260000Y-101854000D03*
G04 #@! TD*
D25*
G04 #@! TO.P,R7,1*
G04 #@! TO.N,Net-(Q3-Pad2)*
X162052000Y-88138000D03*
D20*
G04 #@! TO.P,R7,2*
G04 #@! TO.N,Earth*
X162052000Y-100838000D03*
G04 #@! TD*
G04 #@! TO.P,R8,2*
G04 #@! TO.N,Net-(Q3-Pad2)*
X154432000Y-101600000D03*
D25*
G04 #@! TO.P,R8,1*
G04 #@! TO.N,Net-(R8-Pad1)*
X154432000Y-88900000D03*
G04 #@! TD*
G04 #@! TO.P,R9,1*
G04 #@! TO.N,/Vcc*
X125730000Y-45212000D03*
D20*
G04 #@! TO.P,R9,2*
G04 #@! TO.N,Net-(R10-Pad1)*
X125730000Y-57912000D03*
G04 #@! TD*
G04 #@! TO.P,R10,2*
G04 #@! TO.N,Net-(C3-Pad1)*
X135890000Y-88900000D03*
D25*
G04 #@! TO.P,R10,1*
G04 #@! TO.N,Net-(R10-Pad1)*
X135890000Y-101600000D03*
G04 #@! TD*
D20*
G04 #@! TO.P,R11,2*
G04 #@! TO.N,Net-(C6-Pad1)*
X162306000Y-57912000D03*
D25*
G04 #@! TO.P,R11,1*
G04 #@! TO.N,/Vcc*
X162306000Y-45212000D03*
G04 #@! TD*
G04 #@! TO.P,R12,1*
G04 #@! TO.N,/Vcc*
X130810000Y-57912000D03*
D20*
G04 #@! TO.P,R12,2*
G04 #@! TO.N,Net-(R12-Pad2)*
X130810000Y-45212000D03*
G04 #@! TD*
D25*
G04 #@! TO.P,R13,1*
G04 #@! TO.N,Net-(R13-Pad1)*
X135890000Y-45212000D03*
D20*
G04 #@! TO.P,R13,2*
G04 #@! TO.N,Net-(R12-Pad2)*
X135890000Y-57912000D03*
G04 #@! TD*
G04 #@! TO.P,R14,2*
G04 #@! TO.N,Net-(R13-Pad1)*
X148590000Y-60198000D03*
D25*
G04 #@! TO.P,R14,1*
G04 #@! TO.N,Net-(C8-Pad1)*
X148590000Y-47498000D03*
G04 #@! TD*
D28*
G04 #@! TO.P,cap_conn1,1*
G04 #@! TO.N,Net-(C3-Pad1)*
X135890000Y-83820000D03*
G04 #@! TD*
G04 #@! TO.P,cap_conn2,1*
G04 #@! TO.N,Net-(C8-Pad1)*
X155448000Y-64516000D03*
G04 #@! TD*
G04 #@! TO.P,H1,1*
G04 #@! TO.N,Net-(H1-Pad1)*
X123444000Y-101600000D03*
G04 #@! TD*
G04 #@! TO.P,H2,1*
G04 #@! TO.N,Earth*
X208280000Y-102870000D03*
G04 #@! TD*
G04 #@! TO.P,H3,1*
G04 #@! TO.N,Net-(H3-Pad1)*
X123698000Y-88900000D03*
G04 #@! TD*
D29*
G04 #@! TO.N,Net-(175L10-Pad1)*
X208280000Y-92710000D02*
X217170000Y-92710000D01*
X217170000Y-92710000D02*
X218440000Y-91440000D01*
X218440000Y-68072000D02*
X216154000Y-65786000D01*
X218440000Y-91440000D02*
X218440000Y-68072000D01*
G04 #@! TO.N,Earth*
X181640000Y-52060000D02*
X185460000Y-55880000D01*
X170180000Y-52060000D02*
X181640000Y-52060000D01*
X170180000Y-68740000D02*
X167800000Y-71120000D01*
X170180000Y-52060000D02*
X170180000Y-68740000D01*
X167800000Y-71120000D02*
X161450000Y-77470000D01*
X155184000Y-52060000D02*
X170180000Y-52060000D01*
X154940000Y-44182000D02*
X154940000Y-51816000D01*
X154940000Y-51816000D02*
X155184000Y-52060000D01*
X161450000Y-77470000D02*
X160020000Y-77470000D01*
X143002000Y-100678000D02*
X142748000Y-100424000D01*
X148844000Y-100678000D02*
X143002000Y-100678000D01*
D30*
X148395990Y-106071990D02*
X143002000Y-100678000D01*
X159258000Y-106071990D02*
X148395990Y-106071990D01*
D29*
X162052000Y-102535056D02*
X162052000Y-106071990D01*
X162052000Y-100838000D02*
X162052000Y-102535056D01*
D30*
X162052000Y-106071990D02*
X159258000Y-106071990D01*
D29*
X157734000Y-91788000D02*
X148844000Y-100678000D01*
X157734000Y-77470000D02*
X157734000Y-91788000D01*
X157734000Y-77470000D02*
X151130000Y-77470000D01*
X160020000Y-77470000D02*
X157734000Y-77470000D01*
D30*
X167894000Y-106071990D02*
X162052000Y-106071990D01*
D29*
X142240000Y-46642000D02*
X142494000Y-46896000D01*
X142494000Y-46896000D02*
X142494000Y-51722000D01*
X144700000Y-44182000D02*
X154940000Y-44182000D01*
X142240000Y-46642000D02*
X144700000Y-44182000D01*
D30*
X208280000Y-106071990D02*
X200660000Y-106071990D01*
X208280000Y-102870000D02*
X208280000Y-106071990D01*
D29*
X208280000Y-95250000D02*
X211970000Y-98940000D01*
X211970000Y-98940000D02*
X217040000Y-98940000D01*
X208280000Y-95250000D02*
X208280000Y-102870000D01*
X164084000Y-100838000D02*
X167894000Y-97028000D01*
X162052000Y-100838000D02*
X164084000Y-100838000D01*
D30*
X195834000Y-106071990D02*
X191262000Y-106071990D01*
D29*
X191262000Y-101600000D02*
X191262000Y-106071990D01*
D30*
X191262000Y-106071990D02*
X167894000Y-106071990D01*
X200660000Y-106071990D02*
X199136000Y-106071990D01*
X199136000Y-106071990D02*
X195834000Y-106071990D01*
D29*
X198628000Y-105563990D02*
X199136000Y-106071990D01*
X198628000Y-99822000D02*
X198628000Y-105563990D01*
D31*
G04 #@! TO.N,/Vcc*
X125730000Y-52832000D02*
X130810000Y-57912000D01*
X125730000Y-45212000D02*
X125730000Y-52832000D01*
X130810000Y-64770000D02*
X135890000Y-69850000D01*
X130810000Y-57912000D02*
X130810000Y-64770000D01*
X143510000Y-75946000D02*
X143510000Y-77470000D01*
X140970000Y-73406000D02*
X143510000Y-75946000D01*
X135890000Y-69850000D02*
X135890000Y-73406000D01*
X135890000Y-73406000D02*
X140970000Y-73406000D01*
X146050000Y-71882000D02*
X146050000Y-69850000D01*
X140970000Y-73406000D02*
X144526000Y-73406000D01*
X144526000Y-73406000D02*
X146050000Y-71882000D01*
D29*
X125730000Y-45212000D02*
X125730000Y-40894000D01*
D30*
X160020000Y-39978010D02*
X126238000Y-39978010D01*
D29*
X162306000Y-43514944D02*
X162306000Y-39978010D01*
X162306000Y-45212000D02*
X162306000Y-43514944D01*
D30*
X162306000Y-39978010D02*
X160020000Y-39978010D01*
D29*
X182372000Y-45720000D02*
X170434000Y-45720000D01*
X170434000Y-48006000D02*
X170180000Y-48260000D01*
X170434000Y-45720000D02*
X170434000Y-48006000D01*
D30*
X166978010Y-39978010D02*
X162306000Y-39978010D01*
X170434000Y-43434000D02*
X166978010Y-39978010D01*
X170434000Y-45720000D02*
X170434000Y-43434000D01*
D29*
G04 #@! TO.N,Net-(1N5819-Pad2)*
X209804000Y-50546000D02*
X201930000Y-58420000D01*
X216154000Y-50546000D02*
X209804000Y-50546000D01*
D31*
G04 #@! TO.N,Net-(C3-Pad1)*
X135890000Y-88900000D02*
X135890000Y-83820000D01*
X135890000Y-83820000D02*
X135890000Y-77470000D01*
X135890000Y-77470000D02*
X138430000Y-77470000D01*
X144272000Y-95250000D02*
X148844000Y-90678000D01*
X135890000Y-88900000D02*
X142240000Y-95250000D01*
X142240000Y-95250000D02*
X144272000Y-95250000D01*
G04 #@! TO.N,Net-(C4-Pad1)*
X142748000Y-90424000D02*
X142748000Y-83312000D01*
X140970000Y-81534000D02*
X140970000Y-77470000D01*
X142748000Y-83312000D02*
X140970000Y-81534000D01*
G04 #@! TO.N,Net-(C5-Pad1)*
X143493999Y-62721999D02*
X143493999Y-65261999D01*
X142494000Y-61722000D02*
X143493999Y-62721999D01*
X143510000Y-65278000D02*
X143510000Y-69850000D01*
X143493999Y-65261999D02*
X143510000Y-65278000D01*
D29*
G04 #@! TO.N,Net-(C6-Pad1)*
X162560000Y-58166000D02*
X162306000Y-57912000D01*
X162560000Y-69088000D02*
X162560000Y-58166000D01*
D31*
X148590000Y-75508000D02*
X148914000Y-75184000D01*
X148590000Y-77470000D02*
X148590000Y-75508000D01*
X148914000Y-75184000D02*
X159258000Y-75184000D01*
X159258000Y-72390000D02*
X162560000Y-69088000D01*
X159258000Y-75184000D02*
X159258000Y-72390000D01*
D29*
G04 #@! TO.N,Net-(C6-Pad2)*
X148590000Y-69850000D02*
X148590000Y-72898000D01*
X155060000Y-70219370D02*
X155060000Y-69088000D01*
X152381370Y-72898000D02*
X155060000Y-70219370D01*
X148590000Y-72898000D02*
X152381370Y-72898000D01*
D31*
G04 #@! TO.N,Net-(C8-Pad1)*
X154940000Y-57484944D02*
X154940000Y-59182000D01*
X154940000Y-55545056D02*
X154940000Y-57484944D01*
X148590000Y-49195056D02*
X154940000Y-55545056D01*
X148590000Y-47498000D02*
X148590000Y-49195056D01*
X140970000Y-68718630D02*
X140970000Y-69850000D01*
X140970000Y-64770000D02*
X140970000Y-68718630D01*
X155448000Y-64516000D02*
X146050000Y-64516000D01*
X139954000Y-63754000D02*
X140970000Y-64770000D01*
X146050000Y-64516000D02*
X145542000Y-64008000D01*
X145542000Y-64008000D02*
X145542000Y-60452000D01*
X145542000Y-60452000D02*
X144018000Y-58928000D01*
X144018000Y-58928000D02*
X139954000Y-58928000D01*
X139954000Y-58928000D02*
X139954000Y-63754000D01*
X154940000Y-64008000D02*
X155448000Y-64516000D01*
X154940000Y-59182000D02*
X154940000Y-64008000D01*
X155448000Y-65532000D02*
X151130000Y-69850000D01*
X155448000Y-64516000D02*
X155448000Y-65532000D01*
G04 #@! TO.N,Net-(H1-Pad1)*
X127000000Y-105156000D02*
X123444000Y-101600000D01*
X129286000Y-105156000D02*
X127000000Y-105156000D01*
G04 #@! TO.N,Net-(Q2-Pad2)*
X184658000Y-87376000D02*
X182880000Y-89154000D01*
X184658000Y-84074000D02*
X184658000Y-87376000D01*
D29*
X184658000Y-77216000D02*
X184658000Y-84074000D01*
G04 #@! TO.N,Net-(Q2-Pad3)*
X188214000Y-76200000D02*
X187198000Y-77216000D01*
X194310000Y-76200000D02*
X188214000Y-76200000D01*
G04 #@! TO.N,Net-(Q3-Pad3)*
X171958000Y-87884000D02*
X167894000Y-91948000D01*
X171958000Y-84074000D02*
X171958000Y-87884000D01*
X175260000Y-100156944D02*
X175260000Y-101854000D01*
X175260000Y-98253340D02*
X175260000Y-100156944D01*
X168954660Y-91948000D02*
X175260000Y-98253340D01*
X167894000Y-91948000D02*
X168954660Y-91948000D01*
G04 #@! TO.N,Net-(Q3-Pad2)*
X162052000Y-89835056D02*
X162052000Y-88138000D01*
X166704944Y-94488000D02*
X162052000Y-89835056D01*
X167894000Y-94488000D02*
X166704944Y-94488000D01*
X162052000Y-93980000D02*
X154432000Y-101600000D01*
X162052000Y-88138000D02*
X162052000Y-93980000D01*
D31*
G04 #@! TO.N,Net-(R8-Pad1)*
X146050000Y-80518000D02*
X146050000Y-77470000D01*
X154432000Y-88900000D02*
X146050000Y-80518000D01*
G04 #@! TO.N,Net-(R10-Pad1)*
X125730000Y-57912000D02*
X125730000Y-84074000D01*
X135890000Y-94234000D02*
X135890000Y-101600000D01*
X125730000Y-84074000D02*
X135890000Y-94234000D01*
G04 #@! TO.N,Net-(R12-Pad2)*
X135890000Y-50292000D02*
X130810000Y-45212000D01*
X135890000Y-57912000D02*
X135890000Y-50292000D01*
X135890000Y-57912000D02*
X135890000Y-64008000D01*
X138430000Y-66548000D02*
X138430000Y-69850000D01*
X135890000Y-64008000D02*
X138430000Y-66548000D01*
G04 #@! TO.N,Net-(R13-Pad1)*
X138430000Y-47752000D02*
X135890000Y-45212000D01*
X138430000Y-53086000D02*
X138430000Y-47752000D01*
X140716000Y-55372000D02*
X138430000Y-53086000D01*
X148590000Y-60198000D02*
X143764000Y-55372000D01*
X143764000Y-55372000D02*
X140716000Y-55372000D01*
D29*
G04 #@! TO.N,Net-(J1-Pad3)*
X216154000Y-55626000D02*
X216154000Y-60706000D01*
D31*
G04 #@! TO.N,Net-(H3-Pad1)*
X127254000Y-92456000D02*
X123698000Y-88900000D01*
X129286000Y-92456000D02*
X127254000Y-92456000D01*
G04 #@! TO.N,Net-(1N5819-Pad1)*
X187960000Y-60960000D02*
X177800000Y-71120000D01*
X187960000Y-55880000D02*
X187960000Y-60960000D01*
X177800000Y-78232000D02*
X177800000Y-71120000D01*
X177800000Y-86614000D02*
X175260000Y-89154000D01*
X177800000Y-78232000D02*
X177800000Y-86614000D01*
X175260000Y-94234000D02*
X175260000Y-89154000D01*
X182880000Y-101854000D02*
X175260000Y-94234000D01*
D29*
X202946000Y-45466000D02*
X216154000Y-45466000D01*
X202692000Y-45720000D02*
X202946000Y-45466000D01*
X182118000Y-75438000D02*
X177800000Y-71120000D01*
X182118000Y-77216000D02*
X182118000Y-75438000D01*
X201930000Y-45720000D02*
X192532000Y-45720000D01*
X192532000Y-51308000D02*
X187960000Y-55880000D01*
X192532000Y-45720000D02*
X192532000Y-51308000D01*
G04 #@! TO.N,Net-(D2-Pad1)*
X208280000Y-77470000D02*
X207010000Y-76200000D01*
X208280000Y-90170000D02*
X208280000Y-77470000D01*
D31*
X199136000Y-90170000D02*
X198628000Y-89662000D01*
X208280000Y-90170000D02*
X199136000Y-90170000D01*
X192024000Y-89662000D02*
X191262000Y-88900000D01*
X198628000Y-89662000D02*
X192024000Y-89662000D01*
G04 #@! TD*
M02*
