G04 #@! TF.GenerationSoftware,KiCad,Pcbnew,(5.0.1)-4*
G04 #@! TF.CreationDate,2020-04-28T21:10:57-04:00*
G04 #@! TF.ProjectId,EFC_DIY_version,4546435F4449595F76657273696F6E2E,v01*
G04 #@! TF.SameCoordinates,Original*
G04 #@! TF.FileFunction,Soldermask,Bot*
G04 #@! TF.FilePolarity,Negative*
%FSLAX46Y46*%
G04 Gerber Fmt 4.6, Leading zero omitted, Abs format (unit mm)*
G04 Created by KiCad (PCBNEW (5.0.1)-4) date 4/28/2020 9:10:57 PM*
%MOMM*%
%LPD*%
G01*
G04 APERTURE LIST*
%ADD10C,0.100000*%
G04 APERTURE END LIST*
D10*
G36*
X129531239Y-103923101D02*
X129767053Y-103994634D01*
X129984381Y-104110799D01*
X130174871Y-104267129D01*
X130331201Y-104457619D01*
X130447366Y-104674947D01*
X130518899Y-104910761D01*
X130543053Y-105156000D01*
X130518899Y-105401239D01*
X130447366Y-105637053D01*
X130331201Y-105854381D01*
X130174871Y-106044871D01*
X129984381Y-106201201D01*
X129767053Y-106317366D01*
X129531239Y-106388899D01*
X129347457Y-106407000D01*
X129224543Y-106407000D01*
X129040761Y-106388899D01*
X128804947Y-106317366D01*
X128587619Y-106201201D01*
X128397129Y-106044871D01*
X128240799Y-105854381D01*
X128124634Y-105637053D01*
X128053101Y-105401239D01*
X128028947Y-105156000D01*
X128053101Y-104910761D01*
X128124634Y-104674947D01*
X128240799Y-104457619D01*
X128397129Y-104267129D01*
X128587619Y-104110799D01*
X128804947Y-103994634D01*
X129040761Y-103923101D01*
X129224543Y-103905000D01*
X129347457Y-103905000D01*
X129531239Y-103923101D01*
X129531239Y-103923101D01*
G37*
G36*
X208849083Y-100993975D02*
X208849085Y-100993976D01*
X208849086Y-100993976D01*
X209204145Y-101141046D01*
X209225955Y-101155619D01*
X209523693Y-101354561D01*
X209795439Y-101626307D01*
X209795441Y-101626310D01*
X210008954Y-101945855D01*
X210122054Y-102218903D01*
X210156025Y-102300917D01*
X210231000Y-102677842D01*
X210231000Y-103062158D01*
X210226079Y-103086899D01*
X210156024Y-103439086D01*
X210008954Y-103794145D01*
X210008953Y-103794146D01*
X209795439Y-104113693D01*
X209523693Y-104385439D01*
X209523690Y-104385441D01*
X209204145Y-104598954D01*
X208849086Y-104746024D01*
X208849085Y-104746024D01*
X208849083Y-104746025D01*
X208472158Y-104821000D01*
X208087842Y-104821000D01*
X207710917Y-104746025D01*
X207710915Y-104746024D01*
X207710914Y-104746024D01*
X207355855Y-104598954D01*
X207036310Y-104385441D01*
X207036307Y-104385439D01*
X206764561Y-104113693D01*
X206551047Y-103794146D01*
X206551046Y-103794145D01*
X206403976Y-103439086D01*
X206333922Y-103086899D01*
X206329000Y-103062158D01*
X206329000Y-102677842D01*
X206403975Y-102300917D01*
X206437946Y-102218903D01*
X206551046Y-101945855D01*
X206764559Y-101626310D01*
X206764561Y-101626307D01*
X207036307Y-101354561D01*
X207334045Y-101155619D01*
X207355855Y-101141046D01*
X207710914Y-100993976D01*
X207710915Y-100993976D01*
X207710917Y-100993975D01*
X208087842Y-100919000D01*
X208472158Y-100919000D01*
X208849083Y-100993975D01*
X208849083Y-100993975D01*
G37*
G36*
X124013083Y-99723975D02*
X124013085Y-99723976D01*
X124013086Y-99723976D01*
X124368145Y-99871046D01*
X124485006Y-99949130D01*
X124687693Y-100084561D01*
X124959439Y-100356307D01*
X124959441Y-100356310D01*
X125172954Y-100675855D01*
X125304723Y-100993975D01*
X125320025Y-101030917D01*
X125395000Y-101407842D01*
X125395000Y-101792158D01*
X125333918Y-102099239D01*
X125320024Y-102169086D01*
X125172954Y-102524145D01*
X124966651Y-102832899D01*
X124959439Y-102843693D01*
X124687693Y-103115439D01*
X124687690Y-103115441D01*
X124368145Y-103328954D01*
X124013086Y-103476024D01*
X124013085Y-103476024D01*
X124013083Y-103476025D01*
X123636158Y-103551000D01*
X123251842Y-103551000D01*
X122874917Y-103476025D01*
X122874915Y-103476024D01*
X122874914Y-103476024D01*
X122519855Y-103328954D01*
X122200310Y-103115441D01*
X122200307Y-103115439D01*
X121928561Y-102843693D01*
X121921349Y-102832899D01*
X121715046Y-102524145D01*
X121567976Y-102169086D01*
X121554083Y-102099239D01*
X121493000Y-101792158D01*
X121493000Y-101407842D01*
X121567975Y-101030917D01*
X121583277Y-100993975D01*
X121715046Y-100675855D01*
X121928559Y-100356310D01*
X121928561Y-100356307D01*
X122200307Y-100084561D01*
X122402994Y-99949130D01*
X122519855Y-99871046D01*
X122874914Y-99723976D01*
X122874915Y-99723976D01*
X122874917Y-99723975D01*
X123251842Y-99649000D01*
X123636158Y-99649000D01*
X124013083Y-99723975D01*
X124013083Y-99723975D01*
G37*
G36*
X175505239Y-100621101D02*
X175741053Y-100692634D01*
X175958381Y-100808799D01*
X176148871Y-100965129D01*
X176305201Y-101155619D01*
X176421366Y-101372947D01*
X176492899Y-101608761D01*
X176517053Y-101854000D01*
X176492899Y-102099239D01*
X176421366Y-102335053D01*
X176305201Y-102552381D01*
X176148871Y-102742871D01*
X175958381Y-102899201D01*
X175741053Y-103015366D01*
X175505239Y-103086899D01*
X175321457Y-103105000D01*
X175198543Y-103105000D01*
X175014761Y-103086899D01*
X174778947Y-103015366D01*
X174561619Y-102899201D01*
X174371129Y-102742871D01*
X174214799Y-102552381D01*
X174098634Y-102335053D01*
X174027101Y-102099239D01*
X174002947Y-101854000D01*
X174027101Y-101608761D01*
X174098634Y-101372947D01*
X174214799Y-101155619D01*
X174371129Y-100965129D01*
X174561619Y-100808799D01*
X174778947Y-100692634D01*
X175014761Y-100621101D01*
X175198543Y-100603000D01*
X175321457Y-100603000D01*
X175505239Y-100621101D01*
X175505239Y-100621101D01*
G37*
G36*
X183063636Y-100615019D02*
X183244903Y-100651075D01*
X183472571Y-100745378D01*
X183567488Y-100808800D01*
X183677469Y-100882287D01*
X183851713Y-101056531D01*
X183851715Y-101056534D01*
X183988622Y-101261429D01*
X184082925Y-101489097D01*
X184106852Y-101609385D01*
X184129494Y-101723213D01*
X184131000Y-101730787D01*
X184131000Y-101977213D01*
X184082925Y-102218903D01*
X183988622Y-102446571D01*
X183917921Y-102552382D01*
X183851713Y-102651469D01*
X183677469Y-102825713D01*
X183677466Y-102825715D01*
X183472571Y-102962622D01*
X183244903Y-103056925D01*
X183094213Y-103086899D01*
X183003214Y-103105000D01*
X182756786Y-103105000D01*
X182665787Y-103086899D01*
X182515097Y-103056925D01*
X182287429Y-102962622D01*
X182082534Y-102825715D01*
X182082531Y-102825713D01*
X181908287Y-102651469D01*
X181842079Y-102552382D01*
X181771378Y-102446571D01*
X181677075Y-102218903D01*
X181629000Y-101977213D01*
X181629000Y-101730787D01*
X181630507Y-101723213D01*
X181653148Y-101609385D01*
X181677075Y-101489097D01*
X181771378Y-101261429D01*
X181908285Y-101056534D01*
X181908287Y-101056531D01*
X182082531Y-100882287D01*
X182192512Y-100808800D01*
X182287429Y-100745378D01*
X182515097Y-100651075D01*
X182696364Y-100615019D01*
X182756786Y-100603000D01*
X183003214Y-100603000D01*
X183063636Y-100615019D01*
X183063636Y-100615019D01*
G37*
G36*
X191507239Y-100367101D02*
X191743053Y-100438634D01*
X191960381Y-100554799D01*
X192150871Y-100711129D01*
X192307201Y-100901619D01*
X192423366Y-101118947D01*
X192494899Y-101354761D01*
X192519053Y-101600000D01*
X192494899Y-101845239D01*
X192423366Y-102081053D01*
X192307201Y-102298381D01*
X192150871Y-102488871D01*
X191960381Y-102645201D01*
X191743053Y-102761366D01*
X191507239Y-102832899D01*
X191323457Y-102851000D01*
X191200543Y-102851000D01*
X191016761Y-102832899D01*
X190780947Y-102761366D01*
X190563619Y-102645201D01*
X190373129Y-102488871D01*
X190216799Y-102298381D01*
X190100634Y-102081053D01*
X190029101Y-101845239D01*
X190004947Y-101600000D01*
X190029101Y-101354761D01*
X190100634Y-101118947D01*
X190216799Y-100901619D01*
X190373129Y-100711129D01*
X190563619Y-100554799D01*
X190780947Y-100438634D01*
X191016761Y-100367101D01*
X191200543Y-100349000D01*
X191323457Y-100349000D01*
X191507239Y-100367101D01*
X191507239Y-100367101D01*
G37*
G36*
X154677239Y-100367101D02*
X154913053Y-100438634D01*
X155130381Y-100554799D01*
X155320871Y-100711129D01*
X155477201Y-100901619D01*
X155593366Y-101118947D01*
X155664899Y-101354761D01*
X155689053Y-101600000D01*
X155664899Y-101845239D01*
X155593366Y-102081053D01*
X155477201Y-102298381D01*
X155320871Y-102488871D01*
X155130381Y-102645201D01*
X154913053Y-102761366D01*
X154677239Y-102832899D01*
X154493457Y-102851000D01*
X154370543Y-102851000D01*
X154186761Y-102832899D01*
X153950947Y-102761366D01*
X153733619Y-102645201D01*
X153543129Y-102488871D01*
X153386799Y-102298381D01*
X153270634Y-102081053D01*
X153199101Y-101845239D01*
X153174947Y-101600000D01*
X153199101Y-101354761D01*
X153270634Y-101118947D01*
X153386799Y-100901619D01*
X153543129Y-100711129D01*
X153733619Y-100554799D01*
X153950947Y-100438634D01*
X154186761Y-100367101D01*
X154370543Y-100349000D01*
X154493457Y-100349000D01*
X154677239Y-100367101D01*
X154677239Y-100367101D01*
G37*
G36*
X136073635Y-100361019D02*
X136254903Y-100397075D01*
X136482571Y-100491378D01*
X136649624Y-100603000D01*
X136687469Y-100628287D01*
X136861713Y-100802531D01*
X136861715Y-100802534D01*
X136998622Y-101007429D01*
X137092925Y-101235097D01*
X137120345Y-101372947D01*
X137141000Y-101476786D01*
X137141000Y-101723214D01*
X137128981Y-101783635D01*
X137092925Y-101964903D01*
X136998622Y-102192571D01*
X136927921Y-102298382D01*
X136861713Y-102397469D01*
X136687469Y-102571713D01*
X136687466Y-102571715D01*
X136482571Y-102708622D01*
X136254903Y-102802925D01*
X136104213Y-102832899D01*
X136013214Y-102851000D01*
X135766786Y-102851000D01*
X135675787Y-102832899D01*
X135525097Y-102802925D01*
X135297429Y-102708622D01*
X135092534Y-102571715D01*
X135092531Y-102571713D01*
X134918287Y-102397469D01*
X134852079Y-102298382D01*
X134781378Y-102192571D01*
X134687075Y-101964903D01*
X134651019Y-101783635D01*
X134639000Y-101723214D01*
X134639000Y-101476786D01*
X134659655Y-101372947D01*
X134687075Y-101235097D01*
X134781378Y-101007429D01*
X134918285Y-100802534D01*
X134918287Y-100802531D01*
X135092531Y-100628287D01*
X135130376Y-100603000D01*
X135297429Y-100491378D01*
X135525097Y-100397075D01*
X135706364Y-100361019D01*
X135766786Y-100349000D01*
X136013214Y-100349000D01*
X136073635Y-100361019D01*
X136073635Y-100361019D01*
G37*
G36*
X162297239Y-99605101D02*
X162533053Y-99676634D01*
X162750381Y-99792799D01*
X162940871Y-99949129D01*
X163097201Y-100139619D01*
X163213366Y-100356947D01*
X163284899Y-100592761D01*
X163309053Y-100838000D01*
X163284899Y-101083239D01*
X163213366Y-101319053D01*
X163097201Y-101536381D01*
X162940871Y-101726871D01*
X162750381Y-101883201D01*
X162533053Y-101999366D01*
X162297239Y-102070899D01*
X162113457Y-102089000D01*
X161990543Y-102089000D01*
X161806761Y-102070899D01*
X161570947Y-101999366D01*
X161353619Y-101883201D01*
X161163129Y-101726871D01*
X161006799Y-101536381D01*
X160890634Y-101319053D01*
X160819101Y-101083239D01*
X160794947Y-100838000D01*
X160819101Y-100592761D01*
X160890634Y-100356947D01*
X161006799Y-100139619D01*
X161163129Y-99949129D01*
X161353619Y-99792799D01*
X161570947Y-99676634D01*
X161806761Y-99605101D01*
X161990543Y-99587000D01*
X162113457Y-99587000D01*
X162297239Y-99605101D01*
X162297239Y-99605101D01*
G37*
G36*
X149150565Y-99667389D02*
X149341834Y-99746615D01*
X149513976Y-99861637D01*
X149660363Y-100008024D01*
X149775385Y-100180166D01*
X149854611Y-100371435D01*
X149895000Y-100574484D01*
X149895000Y-100781516D01*
X149854611Y-100984565D01*
X149775385Y-101175834D01*
X149660363Y-101347976D01*
X149513976Y-101494363D01*
X149341834Y-101609385D01*
X149150565Y-101688611D01*
X148947516Y-101729000D01*
X148740484Y-101729000D01*
X148537435Y-101688611D01*
X148346166Y-101609385D01*
X148174024Y-101494363D01*
X148027637Y-101347976D01*
X147912615Y-101175834D01*
X147833389Y-100984565D01*
X147793000Y-100781516D01*
X147793000Y-100574484D01*
X147833389Y-100371435D01*
X147912615Y-100180166D01*
X148027637Y-100008024D01*
X148174024Y-99861637D01*
X148346166Y-99746615D01*
X148537435Y-99667389D01*
X148740484Y-99627000D01*
X148947516Y-99627000D01*
X149150565Y-99667389D01*
X149150565Y-99667389D01*
G37*
G36*
X143054565Y-99413389D02*
X143245834Y-99492615D01*
X143417976Y-99607637D01*
X143564363Y-99754024D01*
X143679385Y-99926166D01*
X143758611Y-100117435D01*
X143799000Y-100320484D01*
X143799000Y-100527516D01*
X143758611Y-100730565D01*
X143679385Y-100921834D01*
X143564363Y-101093976D01*
X143417976Y-101240363D01*
X143245834Y-101355385D01*
X143054565Y-101434611D01*
X142851516Y-101475000D01*
X142644484Y-101475000D01*
X142441435Y-101434611D01*
X142250166Y-101355385D01*
X142078024Y-101240363D01*
X141931637Y-101093976D01*
X141816615Y-100921834D01*
X141737389Y-100730565D01*
X141697000Y-100527516D01*
X141697000Y-100320484D01*
X141737389Y-100117435D01*
X141816615Y-99926166D01*
X141931637Y-99754024D01*
X142078024Y-99607637D01*
X142250166Y-99492615D01*
X142441435Y-99413389D01*
X142644484Y-99373000D01*
X142851516Y-99373000D01*
X143054565Y-99413389D01*
X143054565Y-99413389D01*
G37*
G36*
X198752180Y-98677662D02*
X198853635Y-98687654D01*
X199070600Y-98753470D01*
X199070602Y-98753471D01*
X199070605Y-98753472D01*
X199270556Y-98860347D01*
X199445818Y-99004182D01*
X199589653Y-99179444D01*
X199696528Y-99379395D01*
X199696529Y-99379398D01*
X199696530Y-99379400D01*
X199762346Y-99596365D01*
X199784569Y-99822000D01*
X199762346Y-100047635D01*
X199696530Y-100264600D01*
X199696528Y-100264605D01*
X199589653Y-100464556D01*
X199445818Y-100639818D01*
X199270556Y-100783653D01*
X199070605Y-100890528D01*
X199070602Y-100890529D01*
X199070600Y-100890530D01*
X198853635Y-100956346D01*
X198764459Y-100965129D01*
X198684545Y-100973000D01*
X198571455Y-100973000D01*
X198491541Y-100965129D01*
X198402365Y-100956346D01*
X198185400Y-100890530D01*
X198185398Y-100890529D01*
X198185395Y-100890528D01*
X197985444Y-100783653D01*
X197810182Y-100639818D01*
X197666347Y-100464556D01*
X197559472Y-100264605D01*
X197559470Y-100264600D01*
X197493654Y-100047635D01*
X197471431Y-99822000D01*
X197493654Y-99596365D01*
X197559470Y-99379400D01*
X197559471Y-99379398D01*
X197559472Y-99379395D01*
X197666347Y-99179444D01*
X197810182Y-99004182D01*
X197985444Y-98860347D01*
X198185395Y-98753472D01*
X198185398Y-98753471D01*
X198185400Y-98753470D01*
X198402365Y-98687654D01*
X198503820Y-98677662D01*
X198571455Y-98671000D01*
X198684545Y-98671000D01*
X198752180Y-98677662D01*
X198752180Y-98677662D01*
G37*
G36*
X217317396Y-98025546D02*
X217490466Y-98097234D01*
X217646230Y-98201312D01*
X217778688Y-98333770D01*
X217882766Y-98489534D01*
X217954454Y-98662604D01*
X217991000Y-98846333D01*
X217991000Y-99033667D01*
X217954454Y-99217396D01*
X217882766Y-99390466D01*
X217778688Y-99546230D01*
X217646230Y-99678688D01*
X217490466Y-99782766D01*
X217317396Y-99854454D01*
X217133667Y-99891000D01*
X216946333Y-99891000D01*
X216762604Y-99854454D01*
X216589534Y-99782766D01*
X216433770Y-99678688D01*
X216301312Y-99546230D01*
X216197234Y-99390466D01*
X216125546Y-99217396D01*
X216089000Y-99033667D01*
X216089000Y-98846333D01*
X216125546Y-98662604D01*
X216197234Y-98489534D01*
X216301312Y-98333770D01*
X216433770Y-98201312D01*
X216589534Y-98097234D01*
X216762604Y-98025546D01*
X216946333Y-97989000D01*
X217133667Y-97989000D01*
X217317396Y-98025546D01*
X217317396Y-98025546D01*
G37*
G36*
X168695000Y-97829000D02*
X167093000Y-97829000D01*
X167093000Y-96227000D01*
X168695000Y-96227000D01*
X168695000Y-97829000D01*
X168695000Y-97829000D01*
G37*
G36*
X208435764Y-94252308D02*
X208524220Y-94261020D01*
X208713381Y-94318401D01*
X208887712Y-94411583D01*
X209040515Y-94536985D01*
X209165917Y-94689788D01*
X209259099Y-94864119D01*
X209316480Y-95053280D01*
X209335855Y-95250000D01*
X209316480Y-95446720D01*
X209259099Y-95635881D01*
X209165917Y-95810212D01*
X209040515Y-95963015D01*
X208887712Y-96088417D01*
X208713381Y-96181599D01*
X208524220Y-96238980D01*
X208435764Y-96247692D01*
X208376796Y-96253500D01*
X208183204Y-96253500D01*
X208124236Y-96247692D01*
X208035780Y-96238980D01*
X207846619Y-96181599D01*
X207672288Y-96088417D01*
X207519485Y-95963015D01*
X207394083Y-95810212D01*
X207300901Y-95635881D01*
X207243520Y-95446720D01*
X207224145Y-95250000D01*
X207243520Y-95053280D01*
X207300901Y-94864119D01*
X207394083Y-94689788D01*
X207519485Y-94536985D01*
X207672288Y-94411583D01*
X207846619Y-94318401D01*
X208035780Y-94261020D01*
X208124236Y-94252308D01*
X208183204Y-94246500D01*
X208376796Y-94246500D01*
X208435764Y-94252308D01*
X208435764Y-94252308D01*
G37*
G36*
X168127643Y-93717781D02*
X168273415Y-93778162D01*
X168404611Y-93865824D01*
X168516176Y-93977389D01*
X168603838Y-94108585D01*
X168664219Y-94254357D01*
X168695000Y-94409107D01*
X168695000Y-94566893D01*
X168664219Y-94721643D01*
X168603838Y-94867415D01*
X168516176Y-94998611D01*
X168404611Y-95110176D01*
X168273415Y-95197838D01*
X168127643Y-95258219D01*
X167972893Y-95289000D01*
X167815107Y-95289000D01*
X167660357Y-95258219D01*
X167514585Y-95197838D01*
X167383389Y-95110176D01*
X167271824Y-94998611D01*
X167184162Y-94867415D01*
X167123781Y-94721643D01*
X167093000Y-94566893D01*
X167093000Y-94409107D01*
X167123781Y-94254357D01*
X167184162Y-94108585D01*
X167271824Y-93977389D01*
X167383389Y-93865824D01*
X167514585Y-93778162D01*
X167660357Y-93717781D01*
X167815107Y-93687000D01*
X167972893Y-93687000D01*
X168127643Y-93717781D01*
X168127643Y-93717781D01*
G37*
G36*
X208435764Y-91712308D02*
X208524220Y-91721020D01*
X208713381Y-91778401D01*
X208887712Y-91871583D01*
X209040515Y-91996985D01*
X209165917Y-92149788D01*
X209259099Y-92324119D01*
X209316480Y-92513280D01*
X209335855Y-92710000D01*
X209316480Y-92906720D01*
X209259099Y-93095881D01*
X209165917Y-93270212D01*
X209040515Y-93423015D01*
X208887712Y-93548417D01*
X208713381Y-93641599D01*
X208524220Y-93698980D01*
X208442790Y-93707000D01*
X208376796Y-93713500D01*
X208183204Y-93713500D01*
X208117210Y-93707000D01*
X208035780Y-93698980D01*
X207846619Y-93641599D01*
X207672288Y-93548417D01*
X207519485Y-93423015D01*
X207394083Y-93270212D01*
X207300901Y-93095881D01*
X207243520Y-92906720D01*
X207224145Y-92710000D01*
X207243520Y-92513280D01*
X207300901Y-92324119D01*
X207394083Y-92149788D01*
X207519485Y-91996985D01*
X207672288Y-91871583D01*
X207846619Y-91778401D01*
X208035780Y-91721020D01*
X208124236Y-91712308D01*
X208183204Y-91706500D01*
X208376796Y-91706500D01*
X208435764Y-91712308D01*
X208435764Y-91712308D01*
G37*
G36*
X129469636Y-91217019D02*
X129650903Y-91253075D01*
X129878571Y-91347378D01*
X130069570Y-91475000D01*
X130083469Y-91484287D01*
X130257713Y-91658531D01*
X130257715Y-91658534D01*
X130394622Y-91863429D01*
X130488925Y-92091097D01*
X130524981Y-92272364D01*
X130535932Y-92327415D01*
X130537000Y-92332787D01*
X130537000Y-92579213D01*
X130488925Y-92820903D01*
X130394622Y-93048571D01*
X130258332Y-93252542D01*
X130257713Y-93253469D01*
X130083469Y-93427713D01*
X130083466Y-93427715D01*
X129878571Y-93564622D01*
X129650903Y-93658925D01*
X129469635Y-93694981D01*
X129409214Y-93707000D01*
X129162786Y-93707000D01*
X129102364Y-93694981D01*
X128921097Y-93658925D01*
X128693429Y-93564622D01*
X128488534Y-93427715D01*
X128488531Y-93427713D01*
X128314287Y-93253469D01*
X128313668Y-93252542D01*
X128177378Y-93048571D01*
X128083075Y-92820903D01*
X128035000Y-92579213D01*
X128035000Y-92332787D01*
X128036069Y-92327415D01*
X128047019Y-92272364D01*
X128083075Y-92091097D01*
X128177378Y-91863429D01*
X128314285Y-91658534D01*
X128314287Y-91658531D01*
X128488531Y-91484287D01*
X128502430Y-91475000D01*
X128693429Y-91347378D01*
X128921097Y-91253075D01*
X129102364Y-91217019D01*
X129162786Y-91205000D01*
X129409214Y-91205000D01*
X129469636Y-91217019D01*
X129469636Y-91217019D01*
G37*
G36*
X168127643Y-91177781D02*
X168273415Y-91238162D01*
X168404611Y-91325824D01*
X168516176Y-91437389D01*
X168603838Y-91568585D01*
X168664219Y-91714357D01*
X168695000Y-91869107D01*
X168695000Y-92026893D01*
X168664219Y-92181643D01*
X168603838Y-92327415D01*
X168516176Y-92458611D01*
X168404611Y-92570176D01*
X168273415Y-92657838D01*
X168127643Y-92718219D01*
X167972893Y-92749000D01*
X167815107Y-92749000D01*
X167660357Y-92718219D01*
X167514585Y-92657838D01*
X167383389Y-92570176D01*
X167271824Y-92458611D01*
X167184162Y-92327415D01*
X167123781Y-92181643D01*
X167093000Y-92026893D01*
X167093000Y-91869107D01*
X167123781Y-91714357D01*
X167184162Y-91568585D01*
X167271824Y-91437389D01*
X167383389Y-91325824D01*
X167514585Y-91238162D01*
X167660357Y-91177781D01*
X167815107Y-91147000D01*
X167972893Y-91147000D01*
X168127643Y-91177781D01*
X168127643Y-91177781D01*
G37*
G36*
X218717396Y-90525546D02*
X218890466Y-90597234D01*
X219046230Y-90701312D01*
X219178688Y-90833770D01*
X219282766Y-90989534D01*
X219354454Y-91162604D01*
X219391000Y-91346333D01*
X219391000Y-91533667D01*
X219354454Y-91717396D01*
X219282766Y-91890466D01*
X219178688Y-92046230D01*
X219046230Y-92178688D01*
X218890466Y-92282766D01*
X218717396Y-92354454D01*
X218533667Y-92391000D01*
X218346333Y-92391000D01*
X218162604Y-92354454D01*
X217989534Y-92282766D01*
X217833770Y-92178688D01*
X217701312Y-92046230D01*
X217597234Y-91890466D01*
X217525546Y-91717396D01*
X217489000Y-91533667D01*
X217489000Y-91346333D01*
X217525546Y-91162604D01*
X217597234Y-90989534D01*
X217701312Y-90833770D01*
X217833770Y-90701312D01*
X217989534Y-90597234D01*
X218162604Y-90525546D01*
X218346333Y-90489000D01*
X218533667Y-90489000D01*
X218717396Y-90525546D01*
X218717396Y-90525546D01*
G37*
G36*
X149150565Y-89667389D02*
X149341834Y-89746615D01*
X149513976Y-89861637D01*
X149660363Y-90008024D01*
X149775385Y-90180166D01*
X149854611Y-90371435D01*
X149895000Y-90574484D01*
X149895000Y-90781516D01*
X149854611Y-90984565D01*
X149775385Y-91175834D01*
X149660363Y-91347976D01*
X149513976Y-91494363D01*
X149341834Y-91609385D01*
X149150565Y-91688611D01*
X148947516Y-91729000D01*
X148740484Y-91729000D01*
X148537435Y-91688611D01*
X148346166Y-91609385D01*
X148174024Y-91494363D01*
X148027637Y-91347976D01*
X147912615Y-91175834D01*
X147833389Y-90984565D01*
X147793000Y-90781516D01*
X147793000Y-90574484D01*
X147833389Y-90371435D01*
X147912615Y-90180166D01*
X148027637Y-90008024D01*
X148174024Y-89861637D01*
X148346166Y-89746615D01*
X148537435Y-89667389D01*
X148740484Y-89627000D01*
X148947516Y-89627000D01*
X149150565Y-89667389D01*
X149150565Y-89667389D01*
G37*
G36*
X143054565Y-89413389D02*
X143245834Y-89492615D01*
X143417976Y-89607637D01*
X143564363Y-89754024D01*
X143679385Y-89926166D01*
X143758611Y-90117435D01*
X143799000Y-90320484D01*
X143799000Y-90527516D01*
X143758611Y-90730565D01*
X143679385Y-90921834D01*
X143564363Y-91093976D01*
X143417976Y-91240363D01*
X143245834Y-91355385D01*
X143054565Y-91434611D01*
X142851516Y-91475000D01*
X142644484Y-91475000D01*
X142441435Y-91434611D01*
X142250166Y-91355385D01*
X142078024Y-91240363D01*
X141931637Y-91093976D01*
X141816615Y-90921834D01*
X141737389Y-90730565D01*
X141697000Y-90527516D01*
X141697000Y-90320484D01*
X141737389Y-90117435D01*
X141816615Y-89926166D01*
X141931637Y-89754024D01*
X142078024Y-89607637D01*
X142250166Y-89492615D01*
X142441435Y-89413389D01*
X142644484Y-89373000D01*
X142851516Y-89373000D01*
X143054565Y-89413389D01*
X143054565Y-89413389D01*
G37*
G36*
X209331000Y-91173500D02*
X207229000Y-91173500D01*
X207229000Y-89166500D01*
X209331000Y-89166500D01*
X209331000Y-91173500D01*
X209331000Y-91173500D01*
G37*
G36*
X124267083Y-87023975D02*
X124267085Y-87023976D01*
X124267086Y-87023976D01*
X124622145Y-87171046D01*
X124622146Y-87171047D01*
X124941693Y-87384561D01*
X125213439Y-87656307D01*
X125213441Y-87656310D01*
X125426954Y-87975855D01*
X125520468Y-88201618D01*
X125574025Y-88330917D01*
X125649000Y-88707842D01*
X125649000Y-89092158D01*
X125587918Y-89399239D01*
X125574024Y-89469086D01*
X125426954Y-89824145D01*
X125220651Y-90132899D01*
X125213439Y-90143693D01*
X124941693Y-90415439D01*
X124941690Y-90415441D01*
X124622145Y-90628954D01*
X124267086Y-90776024D01*
X124267085Y-90776024D01*
X124267083Y-90776025D01*
X123890158Y-90851000D01*
X123505842Y-90851000D01*
X123128917Y-90776025D01*
X123128915Y-90776024D01*
X123128914Y-90776024D01*
X122773855Y-90628954D01*
X122454310Y-90415441D01*
X122454307Y-90415439D01*
X122182561Y-90143693D01*
X122175349Y-90132899D01*
X121969046Y-89824145D01*
X121821976Y-89469086D01*
X121808083Y-89399239D01*
X121747000Y-89092158D01*
X121747000Y-88707842D01*
X121821975Y-88330917D01*
X121875532Y-88201618D01*
X121969046Y-87975855D01*
X122182559Y-87656310D01*
X122182561Y-87656307D01*
X122454307Y-87384561D01*
X122773854Y-87171047D01*
X122773855Y-87171046D01*
X123128914Y-87023976D01*
X123128915Y-87023976D01*
X123128917Y-87023975D01*
X123505842Y-86949000D01*
X123890158Y-86949000D01*
X124267083Y-87023975D01*
X124267083Y-87023975D01*
G37*
G36*
X199779000Y-90813000D02*
X197477000Y-90813000D01*
X197477000Y-88511000D01*
X199779000Y-88511000D01*
X199779000Y-90813000D01*
X199779000Y-90813000D01*
G37*
G36*
X183125239Y-87921101D02*
X183361053Y-87992634D01*
X183578381Y-88108799D01*
X183768871Y-88265129D01*
X183925201Y-88455619D01*
X184041366Y-88672947D01*
X184112899Y-88908761D01*
X184137053Y-89154000D01*
X184112899Y-89399239D01*
X184041366Y-89635053D01*
X183925201Y-89852381D01*
X183768871Y-90042871D01*
X183578381Y-90199201D01*
X183361053Y-90315366D01*
X183125239Y-90386899D01*
X182941457Y-90405000D01*
X182818543Y-90405000D01*
X182634761Y-90386899D01*
X182398947Y-90315366D01*
X182181619Y-90199201D01*
X181991129Y-90042871D01*
X181834799Y-89852381D01*
X181718634Y-89635053D01*
X181647101Y-89399239D01*
X181622947Y-89154000D01*
X181647101Y-88908761D01*
X181718634Y-88672947D01*
X181834799Y-88455619D01*
X181991129Y-88265129D01*
X182181619Y-88108799D01*
X182398947Y-87992634D01*
X182634761Y-87921101D01*
X182818543Y-87903000D01*
X182941457Y-87903000D01*
X183125239Y-87921101D01*
X183125239Y-87921101D01*
G37*
G36*
X175443635Y-87915019D02*
X175624903Y-87951075D01*
X175852571Y-88045378D01*
X175947488Y-88108800D01*
X176057469Y-88182287D01*
X176231713Y-88356531D01*
X176231715Y-88356534D01*
X176368622Y-88561429D01*
X176462925Y-88789097D01*
X176492040Y-88935469D01*
X176509494Y-89023213D01*
X176511000Y-89030787D01*
X176511000Y-89277213D01*
X176462925Y-89518903D01*
X176368622Y-89746571D01*
X176297921Y-89852382D01*
X176231713Y-89951469D01*
X176057469Y-90125713D01*
X176057466Y-90125715D01*
X175852571Y-90262622D01*
X175624903Y-90356925D01*
X175474213Y-90386899D01*
X175383214Y-90405000D01*
X175136786Y-90405000D01*
X175045787Y-90386899D01*
X174895097Y-90356925D01*
X174667429Y-90262622D01*
X174462534Y-90125715D01*
X174462531Y-90125713D01*
X174288287Y-89951469D01*
X174222079Y-89852382D01*
X174151378Y-89746571D01*
X174057075Y-89518903D01*
X174009000Y-89277213D01*
X174009000Y-89030787D01*
X174010507Y-89023213D01*
X174027960Y-88935469D01*
X174057075Y-88789097D01*
X174151378Y-88561429D01*
X174288285Y-88356534D01*
X174288287Y-88356531D01*
X174462531Y-88182287D01*
X174572512Y-88108800D01*
X174667429Y-88045378D01*
X174895097Y-87951075D01*
X175076365Y-87915019D01*
X175136786Y-87903000D01*
X175383214Y-87903000D01*
X175443635Y-87915019D01*
X175443635Y-87915019D01*
G37*
G36*
X154591948Y-87656307D02*
X154796903Y-87697075D01*
X155024571Y-87791378D01*
X155119488Y-87854800D01*
X155229469Y-87928287D01*
X155403713Y-88102531D01*
X155403715Y-88102534D01*
X155540622Y-88307429D01*
X155634925Y-88535097D01*
X155662345Y-88672947D01*
X155683000Y-88776786D01*
X155683000Y-89023214D01*
X155670981Y-89083636D01*
X155634925Y-89264903D01*
X155540622Y-89492571D01*
X155469921Y-89598382D01*
X155403713Y-89697469D01*
X155229469Y-89871713D01*
X155229466Y-89871715D01*
X155024571Y-90008622D01*
X154796903Y-90102925D01*
X154646213Y-90132899D01*
X154555214Y-90151000D01*
X154308786Y-90151000D01*
X154217787Y-90132899D01*
X154067097Y-90102925D01*
X153839429Y-90008622D01*
X153634534Y-89871715D01*
X153634531Y-89871713D01*
X153460287Y-89697469D01*
X153394079Y-89598382D01*
X153323378Y-89492571D01*
X153229075Y-89264903D01*
X153193019Y-89083636D01*
X153181000Y-89023214D01*
X153181000Y-88776786D01*
X153201655Y-88672947D01*
X153229075Y-88535097D01*
X153323378Y-88307429D01*
X153460285Y-88102534D01*
X153460287Y-88102531D01*
X153634531Y-87928287D01*
X153744512Y-87854800D01*
X153839429Y-87791378D01*
X154067097Y-87697075D01*
X154272052Y-87656307D01*
X154308786Y-87649000D01*
X154555214Y-87649000D01*
X154591948Y-87656307D01*
X154591948Y-87656307D01*
G37*
G36*
X191421948Y-87656307D02*
X191626903Y-87697075D01*
X191854571Y-87791378D01*
X191949488Y-87854800D01*
X192059469Y-87928287D01*
X192233713Y-88102531D01*
X192233715Y-88102534D01*
X192370622Y-88307429D01*
X192464925Y-88535097D01*
X192492345Y-88672947D01*
X192513000Y-88776786D01*
X192513000Y-89023214D01*
X192500981Y-89083636D01*
X192464925Y-89264903D01*
X192370622Y-89492571D01*
X192299921Y-89598382D01*
X192233713Y-89697469D01*
X192059469Y-89871713D01*
X192059466Y-89871715D01*
X191854571Y-90008622D01*
X191626903Y-90102925D01*
X191476213Y-90132899D01*
X191385214Y-90151000D01*
X191138786Y-90151000D01*
X191047787Y-90132899D01*
X190897097Y-90102925D01*
X190669429Y-90008622D01*
X190464534Y-89871715D01*
X190464531Y-89871713D01*
X190290287Y-89697469D01*
X190224079Y-89598382D01*
X190153378Y-89492571D01*
X190059075Y-89264903D01*
X190023019Y-89083636D01*
X190011000Y-89023214D01*
X190011000Y-88776786D01*
X190031655Y-88672947D01*
X190059075Y-88535097D01*
X190153378Y-88307429D01*
X190290285Y-88102534D01*
X190290287Y-88102531D01*
X190464531Y-87928287D01*
X190574512Y-87854800D01*
X190669429Y-87791378D01*
X190897097Y-87697075D01*
X191102052Y-87656307D01*
X191138786Y-87649000D01*
X191385214Y-87649000D01*
X191421948Y-87656307D01*
X191421948Y-87656307D01*
G37*
G36*
X136135239Y-87667101D02*
X136371053Y-87738634D01*
X136588381Y-87854799D01*
X136778871Y-88011129D01*
X136935201Y-88201619D01*
X137051366Y-88418947D01*
X137122899Y-88654761D01*
X137147053Y-88900000D01*
X137122899Y-89145239D01*
X137051366Y-89381053D01*
X136935201Y-89598381D01*
X136778871Y-89788871D01*
X136588381Y-89945201D01*
X136371053Y-90061366D01*
X136135239Y-90132899D01*
X135951457Y-90151000D01*
X135828543Y-90151000D01*
X135644761Y-90132899D01*
X135408947Y-90061366D01*
X135191619Y-89945201D01*
X135001129Y-89788871D01*
X134844799Y-89598381D01*
X134728634Y-89381053D01*
X134657101Y-89145239D01*
X134632947Y-88900000D01*
X134657101Y-88654761D01*
X134728634Y-88418947D01*
X134844799Y-88201619D01*
X135001129Y-88011129D01*
X135191619Y-87854799D01*
X135408947Y-87738634D01*
X135644761Y-87667101D01*
X135828543Y-87649000D01*
X135951457Y-87649000D01*
X136135239Y-87667101D01*
X136135239Y-87667101D01*
G37*
G36*
X162235635Y-86899019D02*
X162416903Y-86935075D01*
X162644571Y-87029378D01*
X162848542Y-87165668D01*
X162849469Y-87166287D01*
X163023713Y-87340531D01*
X163023715Y-87340534D01*
X163160622Y-87545429D01*
X163254925Y-87773097D01*
X163280764Y-87903000D01*
X163302273Y-88011129D01*
X163303000Y-88014787D01*
X163303000Y-88261213D01*
X163254925Y-88502903D01*
X163160622Y-88730571D01*
X163047413Y-88900000D01*
X163023713Y-88935469D01*
X162849469Y-89109713D01*
X162849466Y-89109715D01*
X162644571Y-89246622D01*
X162416903Y-89340925D01*
X162235635Y-89376981D01*
X162175214Y-89389000D01*
X161928786Y-89389000D01*
X161868365Y-89376981D01*
X161687097Y-89340925D01*
X161459429Y-89246622D01*
X161254534Y-89109715D01*
X161254531Y-89109713D01*
X161080287Y-88935469D01*
X161056587Y-88900000D01*
X160943378Y-88730571D01*
X160849075Y-88502903D01*
X160801000Y-88261213D01*
X160801000Y-88014787D01*
X160801728Y-88011129D01*
X160823236Y-87903000D01*
X160849075Y-87773097D01*
X160943378Y-87545429D01*
X161080285Y-87340534D01*
X161080287Y-87340531D01*
X161254531Y-87166287D01*
X161255458Y-87165668D01*
X161459429Y-87029378D01*
X161687097Y-86935075D01*
X161868364Y-86899019D01*
X161928786Y-86887000D01*
X162175214Y-86887000D01*
X162235635Y-86899019D01*
X162235635Y-86899019D01*
G37*
G36*
X136459083Y-81943975D02*
X136459085Y-81943976D01*
X136459086Y-81943976D01*
X136814145Y-82091046D01*
X136814146Y-82091047D01*
X137133693Y-82304561D01*
X137405439Y-82576307D01*
X137405441Y-82576310D01*
X137618954Y-82895855D01*
X137738775Y-83185129D01*
X137766025Y-83250917D01*
X137841000Y-83627842D01*
X137841000Y-84012158D01*
X137779918Y-84319239D01*
X137766024Y-84389086D01*
X137618954Y-84744145D01*
X137408317Y-85059385D01*
X137405439Y-85063693D01*
X137133693Y-85335439D01*
X137133690Y-85335441D01*
X136814145Y-85548954D01*
X136459086Y-85696024D01*
X136459085Y-85696024D01*
X136459083Y-85696025D01*
X136082158Y-85771000D01*
X135697842Y-85771000D01*
X135320917Y-85696025D01*
X135320915Y-85696024D01*
X135320914Y-85696024D01*
X134965855Y-85548954D01*
X134646310Y-85335441D01*
X134646307Y-85335439D01*
X134374561Y-85063693D01*
X134371683Y-85059385D01*
X134161046Y-84744145D01*
X134013976Y-84389086D01*
X134000083Y-84319239D01*
X133939000Y-84012158D01*
X133939000Y-83627842D01*
X134013975Y-83250917D01*
X134041225Y-83185129D01*
X134161046Y-82895855D01*
X134374559Y-82576310D01*
X134374561Y-82576307D01*
X134646307Y-82304561D01*
X134965854Y-82091047D01*
X134965855Y-82091046D01*
X135320914Y-81943976D01*
X135320915Y-81943976D01*
X135320917Y-81943975D01*
X135697842Y-81869000D01*
X136082158Y-81869000D01*
X136459083Y-81943975D01*
X136459083Y-81943975D01*
G37*
G36*
X184903239Y-82841101D02*
X185139053Y-82912634D01*
X185356381Y-83028799D01*
X185546871Y-83185129D01*
X185703201Y-83375619D01*
X185819366Y-83592947D01*
X185890899Y-83828761D01*
X185915053Y-84074000D01*
X185890899Y-84319239D01*
X185819366Y-84555053D01*
X185703201Y-84772381D01*
X185546871Y-84962871D01*
X185356381Y-85119201D01*
X185139053Y-85235366D01*
X184903239Y-85306899D01*
X184719457Y-85325000D01*
X184596543Y-85325000D01*
X184412761Y-85306899D01*
X184176947Y-85235366D01*
X183959619Y-85119201D01*
X183769129Y-84962871D01*
X183612799Y-84772381D01*
X183496634Y-84555053D01*
X183425101Y-84319239D01*
X183400947Y-84074000D01*
X183425101Y-83828761D01*
X183496634Y-83592947D01*
X183612799Y-83375619D01*
X183769129Y-83185129D01*
X183959619Y-83028799D01*
X184176947Y-82912634D01*
X184412761Y-82841101D01*
X184596543Y-82823000D01*
X184719457Y-82823000D01*
X184903239Y-82841101D01*
X184903239Y-82841101D01*
G37*
G36*
X172141636Y-82835019D02*
X172322903Y-82871075D01*
X172550571Y-82965378D01*
X172645488Y-83028800D01*
X172755469Y-83102287D01*
X172929713Y-83276531D01*
X172929715Y-83276534D01*
X173066622Y-83481429D01*
X173160925Y-83709097D01*
X173209000Y-83950787D01*
X173209000Y-84197213D01*
X173160925Y-84438903D01*
X173066622Y-84666571D01*
X172995921Y-84772382D01*
X172929713Y-84871469D01*
X172755469Y-85045713D01*
X172755466Y-85045715D01*
X172550571Y-85182622D01*
X172322903Y-85276925D01*
X172172213Y-85306899D01*
X172081214Y-85325000D01*
X171834786Y-85325000D01*
X171743787Y-85306899D01*
X171593097Y-85276925D01*
X171365429Y-85182622D01*
X171160534Y-85045715D01*
X171160531Y-85045713D01*
X170986287Y-84871469D01*
X170920079Y-84772382D01*
X170849378Y-84666571D01*
X170755075Y-84438903D01*
X170707000Y-84197213D01*
X170707000Y-83950787D01*
X170755075Y-83709097D01*
X170849378Y-83481429D01*
X170986285Y-83276534D01*
X170986287Y-83276531D01*
X171160531Y-83102287D01*
X171270512Y-83028800D01*
X171365429Y-82965378D01*
X171593097Y-82871075D01*
X171774364Y-82835019D01*
X171834786Y-82823000D01*
X172081214Y-82823000D01*
X172141636Y-82835019D01*
X172141636Y-82835019D01*
G37*
G36*
X141136820Y-76231313D02*
X141136823Y-76231314D01*
X141136824Y-76231314D01*
X141297238Y-76279975D01*
X141297240Y-76279976D01*
X141297243Y-76279977D01*
X141445078Y-76358995D01*
X141574659Y-76465341D01*
X141681005Y-76594922D01*
X141760023Y-76742756D01*
X141760023Y-76742757D01*
X141760025Y-76742761D01*
X141788486Y-76836584D01*
X141808687Y-76903179D01*
X141821000Y-77028196D01*
X141821000Y-77911803D01*
X141808687Y-78036820D01*
X141808686Y-78036822D01*
X141808686Y-78036825D01*
X141760025Y-78197239D01*
X141760023Y-78197244D01*
X141681005Y-78345078D01*
X141574659Y-78474659D01*
X141445078Y-78581005D01*
X141297244Y-78660023D01*
X141297241Y-78660024D01*
X141297239Y-78660025D01*
X141136825Y-78708686D01*
X141136824Y-78708686D01*
X141136821Y-78708687D01*
X140970000Y-78725117D01*
X140803180Y-78708687D01*
X140803177Y-78708686D01*
X140803176Y-78708686D01*
X140642762Y-78660025D01*
X140642760Y-78660024D01*
X140642757Y-78660023D01*
X140494923Y-78581005D01*
X140365342Y-78474659D01*
X140258996Y-78345078D01*
X140179978Y-78197244D01*
X140131314Y-78036821D01*
X140119000Y-77911803D01*
X140119000Y-77028197D01*
X140131313Y-76903180D01*
X140131314Y-76903176D01*
X140179975Y-76742762D01*
X140179976Y-76742760D01*
X140179977Y-76742757D01*
X140258995Y-76594922D01*
X140365341Y-76465341D01*
X140494922Y-76358995D01*
X140642756Y-76279977D01*
X140642759Y-76279976D01*
X140642761Y-76279975D01*
X140803175Y-76231314D01*
X140803176Y-76231314D01*
X140803179Y-76231313D01*
X140970000Y-76214883D01*
X141136820Y-76231313D01*
X141136820Y-76231313D01*
G37*
G36*
X151296820Y-76231313D02*
X151296823Y-76231314D01*
X151296824Y-76231314D01*
X151457238Y-76279975D01*
X151457240Y-76279976D01*
X151457243Y-76279977D01*
X151605078Y-76358995D01*
X151734659Y-76465341D01*
X151841005Y-76594922D01*
X151920023Y-76742756D01*
X151920023Y-76742757D01*
X151920025Y-76742761D01*
X151948486Y-76836584D01*
X151968687Y-76903179D01*
X151981000Y-77028196D01*
X151981000Y-77911803D01*
X151968687Y-78036820D01*
X151968686Y-78036822D01*
X151968686Y-78036825D01*
X151920025Y-78197239D01*
X151920023Y-78197244D01*
X151841005Y-78345078D01*
X151734659Y-78474659D01*
X151605078Y-78581005D01*
X151457244Y-78660023D01*
X151457241Y-78660024D01*
X151457239Y-78660025D01*
X151296825Y-78708686D01*
X151296824Y-78708686D01*
X151296821Y-78708687D01*
X151130000Y-78725117D01*
X150963180Y-78708687D01*
X150963177Y-78708686D01*
X150963176Y-78708686D01*
X150802762Y-78660025D01*
X150802760Y-78660024D01*
X150802757Y-78660023D01*
X150654923Y-78581005D01*
X150525342Y-78474659D01*
X150418996Y-78345078D01*
X150339978Y-78197244D01*
X150291314Y-78036821D01*
X150279000Y-77911803D01*
X150279000Y-77028197D01*
X150291313Y-76903180D01*
X150291314Y-76903176D01*
X150339975Y-76742762D01*
X150339976Y-76742760D01*
X150339977Y-76742757D01*
X150418995Y-76594922D01*
X150525341Y-76465341D01*
X150654922Y-76358995D01*
X150802756Y-76279977D01*
X150802759Y-76279976D01*
X150802761Y-76279975D01*
X150963175Y-76231314D01*
X150963176Y-76231314D01*
X150963179Y-76231313D01*
X151130000Y-76214883D01*
X151296820Y-76231313D01*
X151296820Y-76231313D01*
G37*
G36*
X148756820Y-76231313D02*
X148756823Y-76231314D01*
X148756824Y-76231314D01*
X148917238Y-76279975D01*
X148917240Y-76279976D01*
X148917243Y-76279977D01*
X149065078Y-76358995D01*
X149194659Y-76465341D01*
X149301005Y-76594922D01*
X149380023Y-76742756D01*
X149380023Y-76742757D01*
X149380025Y-76742761D01*
X149408486Y-76836584D01*
X149428687Y-76903179D01*
X149441000Y-77028196D01*
X149441000Y-77911803D01*
X149428687Y-78036820D01*
X149428686Y-78036822D01*
X149428686Y-78036825D01*
X149380025Y-78197239D01*
X149380023Y-78197244D01*
X149301005Y-78345078D01*
X149194659Y-78474659D01*
X149065078Y-78581005D01*
X148917244Y-78660023D01*
X148917241Y-78660024D01*
X148917239Y-78660025D01*
X148756825Y-78708686D01*
X148756824Y-78708686D01*
X148756821Y-78708687D01*
X148590000Y-78725117D01*
X148423180Y-78708687D01*
X148423177Y-78708686D01*
X148423176Y-78708686D01*
X148262762Y-78660025D01*
X148262760Y-78660024D01*
X148262757Y-78660023D01*
X148114923Y-78581005D01*
X147985342Y-78474659D01*
X147878996Y-78345078D01*
X147799978Y-78197244D01*
X147751314Y-78036821D01*
X147739000Y-77911803D01*
X147739000Y-77028197D01*
X147751313Y-76903180D01*
X147751314Y-76903176D01*
X147799975Y-76742762D01*
X147799976Y-76742760D01*
X147799977Y-76742757D01*
X147878995Y-76594922D01*
X147985341Y-76465341D01*
X148114922Y-76358995D01*
X148262756Y-76279977D01*
X148262759Y-76279976D01*
X148262761Y-76279975D01*
X148423175Y-76231314D01*
X148423176Y-76231314D01*
X148423179Y-76231313D01*
X148590000Y-76214883D01*
X148756820Y-76231313D01*
X148756820Y-76231313D01*
G37*
G36*
X146216820Y-76231313D02*
X146216823Y-76231314D01*
X146216824Y-76231314D01*
X146377238Y-76279975D01*
X146377240Y-76279976D01*
X146377243Y-76279977D01*
X146525078Y-76358995D01*
X146654659Y-76465341D01*
X146761005Y-76594922D01*
X146840023Y-76742756D01*
X146840023Y-76742757D01*
X146840025Y-76742761D01*
X146868486Y-76836584D01*
X146888687Y-76903179D01*
X146901000Y-77028196D01*
X146901000Y-77911803D01*
X146888687Y-78036820D01*
X146888686Y-78036822D01*
X146888686Y-78036825D01*
X146840025Y-78197239D01*
X146840023Y-78197244D01*
X146761005Y-78345078D01*
X146654659Y-78474659D01*
X146525078Y-78581005D01*
X146377244Y-78660023D01*
X146377241Y-78660024D01*
X146377239Y-78660025D01*
X146216825Y-78708686D01*
X146216824Y-78708686D01*
X146216821Y-78708687D01*
X146050000Y-78725117D01*
X145883180Y-78708687D01*
X145883177Y-78708686D01*
X145883176Y-78708686D01*
X145722762Y-78660025D01*
X145722760Y-78660024D01*
X145722757Y-78660023D01*
X145574923Y-78581005D01*
X145445342Y-78474659D01*
X145338996Y-78345078D01*
X145259978Y-78197244D01*
X145211314Y-78036821D01*
X145199000Y-77911803D01*
X145199000Y-77028197D01*
X145211313Y-76903180D01*
X145211314Y-76903176D01*
X145259975Y-76742762D01*
X145259976Y-76742760D01*
X145259977Y-76742757D01*
X145338995Y-76594922D01*
X145445341Y-76465341D01*
X145574922Y-76358995D01*
X145722756Y-76279977D01*
X145722759Y-76279976D01*
X145722761Y-76279975D01*
X145883175Y-76231314D01*
X145883176Y-76231314D01*
X145883179Y-76231313D01*
X146050000Y-76214883D01*
X146216820Y-76231313D01*
X146216820Y-76231313D01*
G37*
G36*
X143676820Y-76231313D02*
X143676823Y-76231314D01*
X143676824Y-76231314D01*
X143837238Y-76279975D01*
X143837240Y-76279976D01*
X143837243Y-76279977D01*
X143985078Y-76358995D01*
X144114659Y-76465341D01*
X144221005Y-76594922D01*
X144300023Y-76742756D01*
X144300023Y-76742757D01*
X144300025Y-76742761D01*
X144328486Y-76836584D01*
X144348687Y-76903179D01*
X144361000Y-77028196D01*
X144361000Y-77911803D01*
X144348687Y-78036820D01*
X144348686Y-78036822D01*
X144348686Y-78036825D01*
X144300025Y-78197239D01*
X144300023Y-78197244D01*
X144221005Y-78345078D01*
X144114659Y-78474659D01*
X143985078Y-78581005D01*
X143837244Y-78660023D01*
X143837241Y-78660024D01*
X143837239Y-78660025D01*
X143676825Y-78708686D01*
X143676824Y-78708686D01*
X143676821Y-78708687D01*
X143510000Y-78725117D01*
X143343180Y-78708687D01*
X143343177Y-78708686D01*
X143343176Y-78708686D01*
X143182762Y-78660025D01*
X143182760Y-78660024D01*
X143182757Y-78660023D01*
X143034923Y-78581005D01*
X142905342Y-78474659D01*
X142798996Y-78345078D01*
X142719978Y-78197244D01*
X142671314Y-78036821D01*
X142659000Y-77911803D01*
X142659000Y-77028197D01*
X142671313Y-76903180D01*
X142671314Y-76903176D01*
X142719975Y-76742762D01*
X142719976Y-76742760D01*
X142719977Y-76742757D01*
X142798995Y-76594922D01*
X142905341Y-76465341D01*
X143034922Y-76358995D01*
X143182756Y-76279977D01*
X143182759Y-76279976D01*
X143182761Y-76279975D01*
X143343175Y-76231314D01*
X143343176Y-76231314D01*
X143343179Y-76231313D01*
X143510000Y-76214883D01*
X143676820Y-76231313D01*
X143676820Y-76231313D01*
G37*
G36*
X138596820Y-76231313D02*
X138596823Y-76231314D01*
X138596824Y-76231314D01*
X138757238Y-76279975D01*
X138757240Y-76279976D01*
X138757243Y-76279977D01*
X138905078Y-76358995D01*
X139034659Y-76465341D01*
X139141005Y-76594922D01*
X139220023Y-76742756D01*
X139220023Y-76742757D01*
X139220025Y-76742761D01*
X139248486Y-76836584D01*
X139268687Y-76903179D01*
X139281000Y-77028196D01*
X139281000Y-77911803D01*
X139268687Y-78036820D01*
X139268686Y-78036822D01*
X139268686Y-78036825D01*
X139220025Y-78197239D01*
X139220023Y-78197244D01*
X139141005Y-78345078D01*
X139034659Y-78474659D01*
X138905078Y-78581005D01*
X138757244Y-78660023D01*
X138757241Y-78660024D01*
X138757239Y-78660025D01*
X138596825Y-78708686D01*
X138596824Y-78708686D01*
X138596821Y-78708687D01*
X138430000Y-78725117D01*
X138263180Y-78708687D01*
X138263177Y-78708686D01*
X138263176Y-78708686D01*
X138102762Y-78660025D01*
X138102760Y-78660024D01*
X138102757Y-78660023D01*
X137954923Y-78581005D01*
X137825342Y-78474659D01*
X137718996Y-78345078D01*
X137639978Y-78197244D01*
X137591314Y-78036821D01*
X137579000Y-77911803D01*
X137579000Y-77028197D01*
X137591313Y-76903180D01*
X137591314Y-76903176D01*
X137639975Y-76742762D01*
X137639976Y-76742760D01*
X137639977Y-76742757D01*
X137718995Y-76594922D01*
X137825341Y-76465341D01*
X137954922Y-76358995D01*
X138102756Y-76279977D01*
X138102759Y-76279976D01*
X138102761Y-76279975D01*
X138263175Y-76231314D01*
X138263176Y-76231314D01*
X138263179Y-76231313D01*
X138430000Y-76214883D01*
X138596820Y-76231313D01*
X138596820Y-76231313D01*
G37*
G36*
X136741000Y-78721000D02*
X135039000Y-78721000D01*
X135039000Y-76219000D01*
X136741000Y-76219000D01*
X136741000Y-78721000D01*
X136741000Y-78721000D01*
G37*
G36*
X182919000Y-78017000D02*
X181317000Y-78017000D01*
X181317000Y-76415000D01*
X182919000Y-76415000D01*
X182919000Y-78017000D01*
X182919000Y-78017000D01*
G37*
G36*
X187431643Y-76445781D02*
X187577415Y-76506162D01*
X187708611Y-76593824D01*
X187820176Y-76705389D01*
X187907838Y-76836585D01*
X187968219Y-76982357D01*
X187999000Y-77137107D01*
X187999000Y-77294893D01*
X187968219Y-77449643D01*
X187907838Y-77595415D01*
X187820176Y-77726611D01*
X187708611Y-77838176D01*
X187577415Y-77925838D01*
X187431643Y-77986219D01*
X187276893Y-78017000D01*
X187119107Y-78017000D01*
X186964357Y-77986219D01*
X186818585Y-77925838D01*
X186687389Y-77838176D01*
X186575824Y-77726611D01*
X186488162Y-77595415D01*
X186427781Y-77449643D01*
X186397000Y-77294893D01*
X186397000Y-77137107D01*
X186427781Y-76982357D01*
X186488162Y-76836585D01*
X186575824Y-76705389D01*
X186687389Y-76593824D01*
X186818585Y-76506162D01*
X186964357Y-76445781D01*
X187119107Y-76415000D01*
X187276893Y-76415000D01*
X187431643Y-76445781D01*
X187431643Y-76445781D01*
G37*
G36*
X184891643Y-76445781D02*
X185037415Y-76506162D01*
X185168611Y-76593824D01*
X185280176Y-76705389D01*
X185367838Y-76836585D01*
X185428219Y-76982357D01*
X185459000Y-77137107D01*
X185459000Y-77294893D01*
X185428219Y-77449643D01*
X185367838Y-77595415D01*
X185280176Y-77726611D01*
X185168611Y-77838176D01*
X185037415Y-77925838D01*
X184891643Y-77986219D01*
X184736893Y-78017000D01*
X184579107Y-78017000D01*
X184424357Y-77986219D01*
X184278585Y-77925838D01*
X184147389Y-77838176D01*
X184035824Y-77726611D01*
X183948162Y-77595415D01*
X183887781Y-77449643D01*
X183857000Y-77294893D01*
X183857000Y-77137107D01*
X183887781Y-76982357D01*
X183948162Y-76836585D01*
X184035824Y-76705389D01*
X184147389Y-76593824D01*
X184278585Y-76506162D01*
X184424357Y-76445781D01*
X184579107Y-76415000D01*
X184736893Y-76415000D01*
X184891643Y-76445781D01*
X184891643Y-76445781D01*
G37*
G36*
X194555239Y-74967101D02*
X194791053Y-75038634D01*
X195008381Y-75154799D01*
X195198871Y-75311129D01*
X195355201Y-75501619D01*
X195471366Y-75718947D01*
X195542899Y-75954761D01*
X195567053Y-76200000D01*
X195542899Y-76445239D01*
X195471366Y-76681053D01*
X195355201Y-76898381D01*
X195198871Y-77088871D01*
X195008381Y-77245201D01*
X194791053Y-77361366D01*
X194555239Y-77432899D01*
X194371457Y-77451000D01*
X194248543Y-77451000D01*
X194064761Y-77432899D01*
X193828947Y-77361366D01*
X193611619Y-77245201D01*
X193421129Y-77088871D01*
X193264799Y-76898381D01*
X193148634Y-76681053D01*
X193077101Y-76445239D01*
X193052947Y-76200000D01*
X193077101Y-75954761D01*
X193148634Y-75718947D01*
X193264799Y-75501619D01*
X193421129Y-75311129D01*
X193611619Y-75154799D01*
X193828947Y-75038634D01*
X194064761Y-74967101D01*
X194248543Y-74949000D01*
X194371457Y-74949000D01*
X194555239Y-74967101D01*
X194555239Y-74967101D01*
G37*
G36*
X207193636Y-74961019D02*
X207374903Y-74997075D01*
X207602571Y-75091378D01*
X207697488Y-75154800D01*
X207807469Y-75228287D01*
X207981713Y-75402531D01*
X207981715Y-75402534D01*
X208118622Y-75607429D01*
X208212925Y-75835097D01*
X208261000Y-76076787D01*
X208261000Y-76323213D01*
X208212925Y-76564903D01*
X208118622Y-76792571D01*
X207982332Y-76996542D01*
X207981713Y-76997469D01*
X207807469Y-77171713D01*
X207807466Y-77171715D01*
X207602571Y-77308622D01*
X207374903Y-77402925D01*
X207224213Y-77432899D01*
X207133214Y-77451000D01*
X206886786Y-77451000D01*
X206795787Y-77432899D01*
X206645097Y-77402925D01*
X206417429Y-77308622D01*
X206212534Y-77171715D01*
X206212531Y-77171713D01*
X206038287Y-76997469D01*
X206037668Y-76996542D01*
X205901378Y-76792571D01*
X205807075Y-76564903D01*
X205759000Y-76323213D01*
X205759000Y-76076787D01*
X205807075Y-75835097D01*
X205901378Y-75607429D01*
X206038285Y-75402534D01*
X206038287Y-75402531D01*
X206212531Y-75228287D01*
X206322512Y-75154800D01*
X206417429Y-75091378D01*
X206645097Y-74997075D01*
X206826365Y-74961019D01*
X206886786Y-74949000D01*
X207133214Y-74949000D01*
X207193636Y-74961019D01*
X207193636Y-74961019D01*
G37*
G36*
X168106565Y-70109389D02*
X168297834Y-70188615D01*
X168469976Y-70303637D01*
X168616363Y-70450024D01*
X168731385Y-70622166D01*
X168810611Y-70813435D01*
X168851000Y-71016484D01*
X168851000Y-71223516D01*
X168810611Y-71426565D01*
X168731385Y-71617834D01*
X168616363Y-71789976D01*
X168469976Y-71936363D01*
X168297834Y-72051385D01*
X168106565Y-72130611D01*
X167903516Y-72171000D01*
X167696484Y-72171000D01*
X167493435Y-72130611D01*
X167302166Y-72051385D01*
X167130024Y-71936363D01*
X166983637Y-71789976D01*
X166868615Y-71617834D01*
X166789389Y-71426565D01*
X166749000Y-71223516D01*
X166749000Y-71016484D01*
X166789389Y-70813435D01*
X166868615Y-70622166D01*
X166983637Y-70450024D01*
X167130024Y-70303637D01*
X167302166Y-70188615D01*
X167493435Y-70109389D01*
X167696484Y-70069000D01*
X167903516Y-70069000D01*
X168106565Y-70109389D01*
X168106565Y-70109389D01*
G37*
G36*
X178106565Y-70109389D02*
X178297834Y-70188615D01*
X178469976Y-70303637D01*
X178616363Y-70450024D01*
X178731385Y-70622166D01*
X178810611Y-70813435D01*
X178851000Y-71016484D01*
X178851000Y-71223516D01*
X178810611Y-71426565D01*
X178731385Y-71617834D01*
X178616363Y-71789976D01*
X178469976Y-71936363D01*
X178297834Y-72051385D01*
X178106565Y-72130611D01*
X177903516Y-72171000D01*
X177696484Y-72171000D01*
X177493435Y-72130611D01*
X177302166Y-72051385D01*
X177130024Y-71936363D01*
X176983637Y-71789976D01*
X176868615Y-71617834D01*
X176789389Y-71426565D01*
X176749000Y-71223516D01*
X176749000Y-71016484D01*
X176789389Y-70813435D01*
X176868615Y-70622166D01*
X176983637Y-70450024D01*
X177130024Y-70303637D01*
X177302166Y-70188615D01*
X177493435Y-70109389D01*
X177696484Y-70069000D01*
X177903516Y-70069000D01*
X178106565Y-70109389D01*
X178106565Y-70109389D01*
G37*
G36*
X136056820Y-68611313D02*
X136056823Y-68611314D01*
X136056824Y-68611314D01*
X136217238Y-68659975D01*
X136217240Y-68659976D01*
X136217243Y-68659977D01*
X136365078Y-68738995D01*
X136494659Y-68845341D01*
X136601005Y-68974922D01*
X136680023Y-69122756D01*
X136680023Y-69122757D01*
X136680025Y-69122761D01*
X136720085Y-69254821D01*
X136728687Y-69283179D01*
X136741000Y-69408196D01*
X136741000Y-70291803D01*
X136728687Y-70416820D01*
X136728686Y-70416822D01*
X136728686Y-70416825D01*
X136718615Y-70450024D01*
X136680023Y-70577244D01*
X136601005Y-70725078D01*
X136494659Y-70854659D01*
X136365078Y-70961005D01*
X136217244Y-71040023D01*
X136217241Y-71040024D01*
X136217239Y-71040025D01*
X136056825Y-71088686D01*
X136056824Y-71088686D01*
X136056821Y-71088687D01*
X135890000Y-71105117D01*
X135723180Y-71088687D01*
X135723177Y-71088686D01*
X135723176Y-71088686D01*
X135562762Y-71040025D01*
X135562760Y-71040024D01*
X135562757Y-71040023D01*
X135414923Y-70961005D01*
X135285342Y-70854659D01*
X135178996Y-70725078D01*
X135099978Y-70577244D01*
X135051314Y-70416821D01*
X135039000Y-70291803D01*
X135039000Y-69408197D01*
X135051313Y-69283180D01*
X135051314Y-69283176D01*
X135099975Y-69122762D01*
X135099976Y-69122760D01*
X135099977Y-69122757D01*
X135178995Y-68974922D01*
X135285341Y-68845341D01*
X135414922Y-68738995D01*
X135562756Y-68659977D01*
X135562759Y-68659976D01*
X135562761Y-68659975D01*
X135723175Y-68611314D01*
X135723176Y-68611314D01*
X135723179Y-68611313D01*
X135890000Y-68594883D01*
X136056820Y-68611313D01*
X136056820Y-68611313D01*
G37*
G36*
X138596820Y-68611313D02*
X138596823Y-68611314D01*
X138596824Y-68611314D01*
X138757238Y-68659975D01*
X138757240Y-68659976D01*
X138757243Y-68659977D01*
X138905078Y-68738995D01*
X139034659Y-68845341D01*
X139141005Y-68974922D01*
X139220023Y-69122756D01*
X139220023Y-69122757D01*
X139220025Y-69122761D01*
X139260085Y-69254821D01*
X139268687Y-69283179D01*
X139281000Y-69408196D01*
X139281000Y-70291803D01*
X139268687Y-70416820D01*
X139268686Y-70416822D01*
X139268686Y-70416825D01*
X139258615Y-70450024D01*
X139220023Y-70577244D01*
X139141005Y-70725078D01*
X139034659Y-70854659D01*
X138905078Y-70961005D01*
X138757244Y-71040023D01*
X138757241Y-71040024D01*
X138757239Y-71040025D01*
X138596825Y-71088686D01*
X138596824Y-71088686D01*
X138596821Y-71088687D01*
X138430000Y-71105117D01*
X138263180Y-71088687D01*
X138263177Y-71088686D01*
X138263176Y-71088686D01*
X138102762Y-71040025D01*
X138102760Y-71040024D01*
X138102757Y-71040023D01*
X137954923Y-70961005D01*
X137825342Y-70854659D01*
X137718996Y-70725078D01*
X137639978Y-70577244D01*
X137591314Y-70416821D01*
X137579000Y-70291803D01*
X137579000Y-69408197D01*
X137591313Y-69283180D01*
X137591314Y-69283176D01*
X137639975Y-69122762D01*
X137639976Y-69122760D01*
X137639977Y-69122757D01*
X137718995Y-68974922D01*
X137825341Y-68845341D01*
X137954922Y-68738995D01*
X138102756Y-68659977D01*
X138102759Y-68659976D01*
X138102761Y-68659975D01*
X138263175Y-68611314D01*
X138263176Y-68611314D01*
X138263179Y-68611313D01*
X138430000Y-68594883D01*
X138596820Y-68611313D01*
X138596820Y-68611313D01*
G37*
G36*
X141136820Y-68611313D02*
X141136823Y-68611314D01*
X141136824Y-68611314D01*
X141297238Y-68659975D01*
X141297240Y-68659976D01*
X141297243Y-68659977D01*
X141445078Y-68738995D01*
X141574659Y-68845341D01*
X141681005Y-68974922D01*
X141760023Y-69122756D01*
X141760023Y-69122757D01*
X141760025Y-69122761D01*
X141800085Y-69254821D01*
X141808687Y-69283179D01*
X141821000Y-69408196D01*
X141821000Y-70291803D01*
X141808687Y-70416820D01*
X141808686Y-70416822D01*
X141808686Y-70416825D01*
X141798615Y-70450024D01*
X141760023Y-70577244D01*
X141681005Y-70725078D01*
X141574659Y-70854659D01*
X141445078Y-70961005D01*
X141297244Y-71040023D01*
X141297241Y-71040024D01*
X141297239Y-71040025D01*
X141136825Y-71088686D01*
X141136824Y-71088686D01*
X141136821Y-71088687D01*
X140970000Y-71105117D01*
X140803180Y-71088687D01*
X140803177Y-71088686D01*
X140803176Y-71088686D01*
X140642762Y-71040025D01*
X140642760Y-71040024D01*
X140642757Y-71040023D01*
X140494923Y-70961005D01*
X140365342Y-70854659D01*
X140258996Y-70725078D01*
X140179978Y-70577244D01*
X140131314Y-70416821D01*
X140119000Y-70291803D01*
X140119000Y-69408197D01*
X140131313Y-69283180D01*
X140131314Y-69283176D01*
X140179975Y-69122762D01*
X140179976Y-69122760D01*
X140179977Y-69122757D01*
X140258995Y-68974922D01*
X140365341Y-68845341D01*
X140494922Y-68738995D01*
X140642756Y-68659977D01*
X140642759Y-68659976D01*
X140642761Y-68659975D01*
X140803175Y-68611314D01*
X140803176Y-68611314D01*
X140803179Y-68611313D01*
X140970000Y-68594883D01*
X141136820Y-68611313D01*
X141136820Y-68611313D01*
G37*
G36*
X146216820Y-68611313D02*
X146216823Y-68611314D01*
X146216824Y-68611314D01*
X146377238Y-68659975D01*
X146377240Y-68659976D01*
X146377243Y-68659977D01*
X146525078Y-68738995D01*
X146654659Y-68845341D01*
X146761005Y-68974922D01*
X146840023Y-69122756D01*
X146840023Y-69122757D01*
X146840025Y-69122761D01*
X146880085Y-69254821D01*
X146888687Y-69283179D01*
X146901000Y-69408196D01*
X146901000Y-70291803D01*
X146888687Y-70416820D01*
X146888686Y-70416822D01*
X146888686Y-70416825D01*
X146878615Y-70450024D01*
X146840023Y-70577244D01*
X146761005Y-70725078D01*
X146654659Y-70854659D01*
X146525078Y-70961005D01*
X146377244Y-71040023D01*
X146377241Y-71040024D01*
X146377239Y-71040025D01*
X146216825Y-71088686D01*
X146216824Y-71088686D01*
X146216821Y-71088687D01*
X146050000Y-71105117D01*
X145883180Y-71088687D01*
X145883177Y-71088686D01*
X145883176Y-71088686D01*
X145722762Y-71040025D01*
X145722760Y-71040024D01*
X145722757Y-71040023D01*
X145574923Y-70961005D01*
X145445342Y-70854659D01*
X145338996Y-70725078D01*
X145259978Y-70577244D01*
X145211314Y-70416821D01*
X145199000Y-70291803D01*
X145199000Y-69408197D01*
X145211313Y-69283180D01*
X145211314Y-69283176D01*
X145259975Y-69122762D01*
X145259976Y-69122760D01*
X145259977Y-69122757D01*
X145338995Y-68974922D01*
X145445341Y-68845341D01*
X145574922Y-68738995D01*
X145722756Y-68659977D01*
X145722759Y-68659976D01*
X145722761Y-68659975D01*
X145883175Y-68611314D01*
X145883176Y-68611314D01*
X145883179Y-68611313D01*
X146050000Y-68594883D01*
X146216820Y-68611313D01*
X146216820Y-68611313D01*
G37*
G36*
X143676820Y-68611313D02*
X143676823Y-68611314D01*
X143676824Y-68611314D01*
X143837238Y-68659975D01*
X143837240Y-68659976D01*
X143837243Y-68659977D01*
X143985078Y-68738995D01*
X144114659Y-68845341D01*
X144221005Y-68974922D01*
X144300023Y-69122756D01*
X144300023Y-69122757D01*
X144300025Y-69122761D01*
X144340085Y-69254821D01*
X144348687Y-69283179D01*
X144361000Y-69408196D01*
X144361000Y-70291803D01*
X144348687Y-70416820D01*
X144348686Y-70416822D01*
X144348686Y-70416825D01*
X144338615Y-70450024D01*
X144300023Y-70577244D01*
X144221005Y-70725078D01*
X144114659Y-70854659D01*
X143985078Y-70961005D01*
X143837244Y-71040023D01*
X143837241Y-71040024D01*
X143837239Y-71040025D01*
X143676825Y-71088686D01*
X143676824Y-71088686D01*
X143676821Y-71088687D01*
X143510000Y-71105117D01*
X143343180Y-71088687D01*
X143343177Y-71088686D01*
X143343176Y-71088686D01*
X143182762Y-71040025D01*
X143182760Y-71040024D01*
X143182757Y-71040023D01*
X143034923Y-70961005D01*
X142905342Y-70854659D01*
X142798996Y-70725078D01*
X142719978Y-70577244D01*
X142671314Y-70416821D01*
X142659000Y-70291803D01*
X142659000Y-69408197D01*
X142671313Y-69283180D01*
X142671314Y-69283176D01*
X142719975Y-69122762D01*
X142719976Y-69122760D01*
X142719977Y-69122757D01*
X142798995Y-68974922D01*
X142905341Y-68845341D01*
X143034922Y-68738995D01*
X143182756Y-68659977D01*
X143182759Y-68659976D01*
X143182761Y-68659975D01*
X143343175Y-68611314D01*
X143343176Y-68611314D01*
X143343179Y-68611313D01*
X143510000Y-68594883D01*
X143676820Y-68611313D01*
X143676820Y-68611313D01*
G37*
G36*
X148756820Y-68611313D02*
X148756823Y-68611314D01*
X148756824Y-68611314D01*
X148917238Y-68659975D01*
X148917240Y-68659976D01*
X148917243Y-68659977D01*
X149065078Y-68738995D01*
X149194659Y-68845341D01*
X149301005Y-68974922D01*
X149380023Y-69122756D01*
X149380023Y-69122757D01*
X149380025Y-69122761D01*
X149420085Y-69254821D01*
X149428687Y-69283179D01*
X149441000Y-69408196D01*
X149441000Y-70291803D01*
X149428687Y-70416820D01*
X149428686Y-70416822D01*
X149428686Y-70416825D01*
X149418615Y-70450024D01*
X149380023Y-70577244D01*
X149301005Y-70725078D01*
X149194659Y-70854659D01*
X149065078Y-70961005D01*
X148917244Y-71040023D01*
X148917241Y-71040024D01*
X148917239Y-71040025D01*
X148756825Y-71088686D01*
X148756824Y-71088686D01*
X148756821Y-71088687D01*
X148590000Y-71105117D01*
X148423180Y-71088687D01*
X148423177Y-71088686D01*
X148423176Y-71088686D01*
X148262762Y-71040025D01*
X148262760Y-71040024D01*
X148262757Y-71040023D01*
X148114923Y-70961005D01*
X147985342Y-70854659D01*
X147878996Y-70725078D01*
X147799978Y-70577244D01*
X147751314Y-70416821D01*
X147739000Y-70291803D01*
X147739000Y-69408197D01*
X147751313Y-69283180D01*
X147751314Y-69283176D01*
X147799975Y-69122762D01*
X147799976Y-69122760D01*
X147799977Y-69122757D01*
X147878995Y-68974922D01*
X147985341Y-68845341D01*
X148114922Y-68738995D01*
X148262756Y-68659977D01*
X148262759Y-68659976D01*
X148262761Y-68659975D01*
X148423175Y-68611314D01*
X148423176Y-68611314D01*
X148423179Y-68611313D01*
X148590000Y-68594883D01*
X148756820Y-68611313D01*
X148756820Y-68611313D01*
G37*
G36*
X151296820Y-68611313D02*
X151296823Y-68611314D01*
X151296824Y-68611314D01*
X151457238Y-68659975D01*
X151457240Y-68659976D01*
X151457243Y-68659977D01*
X151605078Y-68738995D01*
X151734659Y-68845341D01*
X151841005Y-68974922D01*
X151920023Y-69122756D01*
X151920023Y-69122757D01*
X151920025Y-69122761D01*
X151960085Y-69254821D01*
X151968687Y-69283179D01*
X151981000Y-69408196D01*
X151981000Y-70291803D01*
X151968687Y-70416820D01*
X151968686Y-70416822D01*
X151968686Y-70416825D01*
X151958615Y-70450024D01*
X151920023Y-70577244D01*
X151841005Y-70725078D01*
X151734659Y-70854659D01*
X151605078Y-70961005D01*
X151457244Y-71040023D01*
X151457241Y-71040024D01*
X151457239Y-71040025D01*
X151296825Y-71088686D01*
X151296824Y-71088686D01*
X151296821Y-71088687D01*
X151130000Y-71105117D01*
X150963180Y-71088687D01*
X150963177Y-71088686D01*
X150963176Y-71088686D01*
X150802762Y-71040025D01*
X150802760Y-71040024D01*
X150802757Y-71040023D01*
X150654923Y-70961005D01*
X150525342Y-70854659D01*
X150418996Y-70725078D01*
X150339978Y-70577244D01*
X150291314Y-70416821D01*
X150279000Y-70291803D01*
X150279000Y-69408197D01*
X150291313Y-69283180D01*
X150291314Y-69283176D01*
X150339975Y-69122762D01*
X150339976Y-69122760D01*
X150339977Y-69122757D01*
X150418995Y-68974922D01*
X150525341Y-68845341D01*
X150654922Y-68738995D01*
X150802756Y-68659977D01*
X150802759Y-68659976D01*
X150802761Y-68659975D01*
X150963175Y-68611314D01*
X150963176Y-68611314D01*
X150963179Y-68611313D01*
X151130000Y-68594883D01*
X151296820Y-68611313D01*
X151296820Y-68611313D01*
G37*
G36*
X155226821Y-68249313D02*
X155226824Y-68249314D01*
X155226825Y-68249314D01*
X155387239Y-68297975D01*
X155387241Y-68297976D01*
X155387244Y-68297977D01*
X155535078Y-68376995D01*
X155664659Y-68483341D01*
X155771005Y-68612922D01*
X155850023Y-68760756D01*
X155850024Y-68760759D01*
X155850025Y-68760761D01*
X155875682Y-68845341D01*
X155898687Y-68921179D01*
X155915117Y-69088000D01*
X155898687Y-69254821D01*
X155898686Y-69254824D01*
X155898686Y-69254825D01*
X155852160Y-69408201D01*
X155850023Y-69415244D01*
X155771005Y-69563078D01*
X155664659Y-69692659D01*
X155535078Y-69799005D01*
X155387244Y-69878023D01*
X155387241Y-69878024D01*
X155387239Y-69878025D01*
X155226825Y-69926686D01*
X155226824Y-69926686D01*
X155226821Y-69926687D01*
X155101804Y-69939000D01*
X155018196Y-69939000D01*
X154893179Y-69926687D01*
X154893176Y-69926686D01*
X154893175Y-69926686D01*
X154732761Y-69878025D01*
X154732759Y-69878024D01*
X154732756Y-69878023D01*
X154584922Y-69799005D01*
X154455341Y-69692659D01*
X154348995Y-69563078D01*
X154269977Y-69415244D01*
X154267841Y-69408201D01*
X154221314Y-69254825D01*
X154221314Y-69254824D01*
X154221313Y-69254821D01*
X154204883Y-69088000D01*
X154221313Y-68921179D01*
X154244318Y-68845341D01*
X154269975Y-68760761D01*
X154269976Y-68760759D01*
X154269977Y-68760756D01*
X154348995Y-68612922D01*
X154455341Y-68483341D01*
X154584922Y-68376995D01*
X154732756Y-68297977D01*
X154732759Y-68297976D01*
X154732761Y-68297975D01*
X154893175Y-68249314D01*
X154893176Y-68249314D01*
X154893179Y-68249313D01*
X155018196Y-68237000D01*
X155101804Y-68237000D01*
X155226821Y-68249313D01*
X155226821Y-68249313D01*
G37*
G36*
X162808228Y-68269703D02*
X162963100Y-68333853D01*
X163102481Y-68426985D01*
X163221015Y-68545519D01*
X163314147Y-68684900D01*
X163378297Y-68839772D01*
X163411000Y-69004184D01*
X163411000Y-69171816D01*
X163378297Y-69336228D01*
X163314147Y-69491100D01*
X163221015Y-69630481D01*
X163102481Y-69749015D01*
X162963100Y-69842147D01*
X162808228Y-69906297D01*
X162643816Y-69939000D01*
X162476184Y-69939000D01*
X162311772Y-69906297D01*
X162156900Y-69842147D01*
X162017519Y-69749015D01*
X161898985Y-69630481D01*
X161805853Y-69491100D01*
X161741703Y-69336228D01*
X161709000Y-69171816D01*
X161709000Y-69004184D01*
X161741703Y-68839772D01*
X161805853Y-68684900D01*
X161898985Y-68545519D01*
X162017519Y-68426985D01*
X162156900Y-68333853D01*
X162311772Y-68269703D01*
X162476184Y-68237000D01*
X162643816Y-68237000D01*
X162808228Y-68269703D01*
X162808228Y-68269703D01*
G37*
G36*
X216368794Y-64706155D02*
X216475150Y-64727311D01*
X216545990Y-64756654D01*
X216675516Y-64810305D01*
X216855850Y-64930801D01*
X217009199Y-65084150D01*
X217009201Y-65084153D01*
X217009202Y-65084154D01*
X217129693Y-65264481D01*
X217129695Y-65264484D01*
X217183346Y-65394010D01*
X217212689Y-65464850D01*
X217255000Y-65677561D01*
X217255000Y-65894439D01*
X217227749Y-66031441D01*
X217212689Y-66107149D01*
X217129695Y-66307516D01*
X217009199Y-66487850D01*
X216855850Y-66641199D01*
X216675516Y-66761695D01*
X216545990Y-66815346D01*
X216475150Y-66844689D01*
X216368794Y-66865845D01*
X216262440Y-66887000D01*
X216045560Y-66887000D01*
X215939205Y-66865844D01*
X215832850Y-66844689D01*
X215762010Y-66815346D01*
X215632484Y-66761695D01*
X215452150Y-66641199D01*
X215298801Y-66487850D01*
X215178305Y-66307516D01*
X215095311Y-66107149D01*
X215080252Y-66031441D01*
X215053000Y-65894439D01*
X215053000Y-65677561D01*
X215095311Y-65464850D01*
X215124654Y-65394010D01*
X215178305Y-65264484D01*
X215178307Y-65264481D01*
X215298798Y-65084154D01*
X215298799Y-65084153D01*
X215298801Y-65084150D01*
X215452150Y-64930801D01*
X215632484Y-64810305D01*
X215762010Y-64756654D01*
X215832850Y-64727311D01*
X215939205Y-64706156D01*
X216045560Y-64685000D01*
X216262440Y-64685000D01*
X216368794Y-64706155D01*
X216368794Y-64706155D01*
G37*
G36*
X156017083Y-62639975D02*
X156017085Y-62639976D01*
X156017086Y-62639976D01*
X156372145Y-62787046D01*
X156372146Y-62787047D01*
X156691693Y-63000561D01*
X156963439Y-63272307D01*
X156963441Y-63272310D01*
X157176954Y-63591855D01*
X157324024Y-63946914D01*
X157324025Y-63946917D01*
X157399000Y-64323842D01*
X157399000Y-64708158D01*
X157324210Y-65084154D01*
X157324024Y-65085086D01*
X157176954Y-65440145D01*
X157160446Y-65464851D01*
X156963439Y-65759693D01*
X156691693Y-66031439D01*
X156691690Y-66031441D01*
X156372145Y-66244954D01*
X156017086Y-66392024D01*
X156017085Y-66392024D01*
X156017083Y-66392025D01*
X155640158Y-66467000D01*
X155255842Y-66467000D01*
X154878917Y-66392025D01*
X154878915Y-66392024D01*
X154878914Y-66392024D01*
X154523855Y-66244954D01*
X154204310Y-66031441D01*
X154204307Y-66031439D01*
X153932561Y-65759693D01*
X153735554Y-65464851D01*
X153719046Y-65440145D01*
X153571976Y-65085086D01*
X153571791Y-65084154D01*
X153497000Y-64708158D01*
X153497000Y-64323842D01*
X153571975Y-63946917D01*
X153571976Y-63946914D01*
X153719046Y-63591855D01*
X153932559Y-63272310D01*
X153932561Y-63272307D01*
X154204307Y-63000561D01*
X154523854Y-62787047D01*
X154523855Y-62787046D01*
X154878914Y-62639976D01*
X154878915Y-62639976D01*
X154878917Y-62639975D01*
X155255842Y-62565000D01*
X155640158Y-62565000D01*
X156017083Y-62639975D01*
X156017083Y-62639975D01*
G37*
G36*
X142800565Y-60711389D02*
X142991834Y-60790615D01*
X143163976Y-60905637D01*
X143310363Y-61052024D01*
X143425385Y-61224166D01*
X143504611Y-61415435D01*
X143545000Y-61618484D01*
X143545000Y-61825516D01*
X143504611Y-62028565D01*
X143425385Y-62219834D01*
X143310363Y-62391976D01*
X143163976Y-62538363D01*
X142991834Y-62653385D01*
X142800565Y-62732611D01*
X142597516Y-62773000D01*
X142390484Y-62773000D01*
X142187435Y-62732611D01*
X141996166Y-62653385D01*
X141824024Y-62538363D01*
X141677637Y-62391976D01*
X141562615Y-62219834D01*
X141483389Y-62028565D01*
X141443000Y-61825516D01*
X141443000Y-61618484D01*
X141483389Y-61415435D01*
X141562615Y-61224166D01*
X141677637Y-61052024D01*
X141824024Y-60905637D01*
X141996166Y-60790615D01*
X142187435Y-60711389D01*
X142390484Y-60671000D01*
X142597516Y-60671000D01*
X142800565Y-60711389D01*
X142800565Y-60711389D01*
G37*
G36*
X216368795Y-59626156D02*
X216475150Y-59647311D01*
X216532340Y-59671000D01*
X216675516Y-59730305D01*
X216675519Y-59730307D01*
X216741765Y-59774571D01*
X216855850Y-59850801D01*
X217009199Y-60004150D01*
X217129695Y-60184484D01*
X217135293Y-60198000D01*
X217212689Y-60384850D01*
X217224303Y-60443239D01*
X217255000Y-60597560D01*
X217255000Y-60814440D01*
X217236860Y-60905635D01*
X217212689Y-61027150D01*
X217187952Y-61086870D01*
X217129695Y-61227516D01*
X217129693Y-61227519D01*
X217041597Y-61359364D01*
X217009199Y-61407850D01*
X216855850Y-61561199D01*
X216855847Y-61561201D01*
X216855846Y-61561202D01*
X216675519Y-61681693D01*
X216675516Y-61681695D01*
X216545990Y-61735346D01*
X216475150Y-61764689D01*
X216368794Y-61785845D01*
X216262440Y-61807000D01*
X216045560Y-61807000D01*
X215939206Y-61785845D01*
X215832850Y-61764689D01*
X215762010Y-61735346D01*
X215632484Y-61681695D01*
X215632481Y-61681693D01*
X215452154Y-61561202D01*
X215452153Y-61561201D01*
X215452150Y-61561199D01*
X215298801Y-61407850D01*
X215266404Y-61359364D01*
X215178307Y-61227519D01*
X215178305Y-61227516D01*
X215120048Y-61086870D01*
X215095311Y-61027150D01*
X215071140Y-60905635D01*
X215053000Y-60814440D01*
X215053000Y-60597560D01*
X215083697Y-60443239D01*
X215095311Y-60384850D01*
X215172707Y-60198000D01*
X215178305Y-60184484D01*
X215298801Y-60004150D01*
X215452150Y-59850801D01*
X215566236Y-59774571D01*
X215632481Y-59730307D01*
X215632484Y-59730305D01*
X215775660Y-59671000D01*
X215832850Y-59647311D01*
X215939205Y-59626156D01*
X216045560Y-59605000D01*
X216262440Y-59605000D01*
X216368795Y-59626156D01*
X216368795Y-59626156D01*
G37*
G36*
X148835239Y-58965101D02*
X149071053Y-59036634D01*
X149288381Y-59152799D01*
X149478871Y-59309129D01*
X149635201Y-59499619D01*
X149751366Y-59716947D01*
X149822899Y-59952761D01*
X149847053Y-60198000D01*
X149822899Y-60443239D01*
X149751366Y-60679053D01*
X149635201Y-60896381D01*
X149478871Y-61086871D01*
X149288381Y-61243201D01*
X149071053Y-61359366D01*
X148835239Y-61430899D01*
X148651457Y-61449000D01*
X148528543Y-61449000D01*
X148344761Y-61430899D01*
X148108947Y-61359366D01*
X147891619Y-61243201D01*
X147701129Y-61086871D01*
X147544799Y-60896381D01*
X147428634Y-60679053D01*
X147357101Y-60443239D01*
X147332947Y-60198000D01*
X147357101Y-59952761D01*
X147428634Y-59716947D01*
X147544799Y-59499619D01*
X147701129Y-59309129D01*
X147891619Y-59152799D01*
X148108947Y-59036634D01*
X148344761Y-58965101D01*
X148528543Y-58947000D01*
X148651457Y-58947000D01*
X148835239Y-58965101D01*
X148835239Y-58965101D01*
G37*
G36*
X155123635Y-57943019D02*
X155304903Y-57979075D01*
X155532571Y-58073378D01*
X155736542Y-58209668D01*
X155737469Y-58210287D01*
X155911713Y-58384531D01*
X155911715Y-58384534D01*
X156048622Y-58589429D01*
X156142925Y-58817097D01*
X156156176Y-58883715D01*
X156191000Y-59058786D01*
X156191000Y-59305214D01*
X156190221Y-59309129D01*
X156142925Y-59546903D01*
X156048622Y-59774571D01*
X155929559Y-59952761D01*
X155911713Y-59979469D01*
X155737469Y-60153713D01*
X155737466Y-60153715D01*
X155532571Y-60290622D01*
X155304903Y-60384925D01*
X155123636Y-60420981D01*
X155063214Y-60433000D01*
X154816786Y-60433000D01*
X154756364Y-60420981D01*
X154575097Y-60384925D01*
X154347429Y-60290622D01*
X154142534Y-60153715D01*
X154142531Y-60153713D01*
X153968287Y-59979469D01*
X153950441Y-59952761D01*
X153831378Y-59774571D01*
X153737075Y-59546903D01*
X153689779Y-59309129D01*
X153689000Y-59305214D01*
X153689000Y-59058786D01*
X153723824Y-58883715D01*
X153737075Y-58817097D01*
X153831378Y-58589429D01*
X153968285Y-58384534D01*
X153968287Y-58384531D01*
X154142531Y-58210287D01*
X154143458Y-58209668D01*
X154347429Y-58073378D01*
X154575097Y-57979075D01*
X154756365Y-57943019D01*
X154816786Y-57931000D01*
X155063214Y-57931000D01*
X155123635Y-57943019D01*
X155123635Y-57943019D01*
G37*
G36*
X202175239Y-57187101D02*
X202411053Y-57258634D01*
X202628381Y-57374799D01*
X202818871Y-57531129D01*
X202975201Y-57721619D01*
X203091366Y-57938947D01*
X203162899Y-58174761D01*
X203187053Y-58420000D01*
X203162899Y-58665239D01*
X203091366Y-58901053D01*
X202975201Y-59118381D01*
X202818871Y-59308871D01*
X202628381Y-59465201D01*
X202411053Y-59581366D01*
X202175239Y-59652899D01*
X201991457Y-59671000D01*
X201868543Y-59671000D01*
X201684761Y-59652899D01*
X201448947Y-59581366D01*
X201231619Y-59465201D01*
X201041129Y-59308871D01*
X200884799Y-59118381D01*
X200768634Y-58901053D01*
X200697101Y-58665239D01*
X200672947Y-58420000D01*
X200697101Y-58174761D01*
X200768634Y-57938947D01*
X200884799Y-57721619D01*
X201041129Y-57531129D01*
X201231619Y-57374799D01*
X201448947Y-57258634D01*
X201684761Y-57187101D01*
X201868543Y-57169000D01*
X201991457Y-57169000D01*
X202175239Y-57187101D01*
X202175239Y-57187101D01*
G37*
G36*
X125975239Y-56679101D02*
X126211053Y-56750634D01*
X126428381Y-56866799D01*
X126618871Y-57023129D01*
X126775201Y-57213619D01*
X126891366Y-57430947D01*
X126962899Y-57666761D01*
X126987053Y-57912000D01*
X126962899Y-58157239D01*
X126891366Y-58393053D01*
X126775201Y-58610381D01*
X126618871Y-58800871D01*
X126428381Y-58957201D01*
X126211053Y-59073366D01*
X125975239Y-59144899D01*
X125791457Y-59163000D01*
X125668543Y-59163000D01*
X125484761Y-59144899D01*
X125248947Y-59073366D01*
X125031619Y-58957201D01*
X124841129Y-58800871D01*
X124684799Y-58610381D01*
X124568634Y-58393053D01*
X124497101Y-58157239D01*
X124472947Y-57912000D01*
X124497101Y-57666761D01*
X124568634Y-57430947D01*
X124684799Y-57213619D01*
X124841129Y-57023129D01*
X125031619Y-56866799D01*
X125248947Y-56750634D01*
X125484761Y-56679101D01*
X125668543Y-56661000D01*
X125791457Y-56661000D01*
X125975239Y-56679101D01*
X125975239Y-56679101D01*
G37*
G36*
X136135239Y-56679101D02*
X136371053Y-56750634D01*
X136588381Y-56866799D01*
X136778871Y-57023129D01*
X136935201Y-57213619D01*
X137051366Y-57430947D01*
X137122899Y-57666761D01*
X137147053Y-57912000D01*
X137122899Y-58157239D01*
X137051366Y-58393053D01*
X136935201Y-58610381D01*
X136778871Y-58800871D01*
X136588381Y-58957201D01*
X136371053Y-59073366D01*
X136135239Y-59144899D01*
X135951457Y-59163000D01*
X135828543Y-59163000D01*
X135644761Y-59144899D01*
X135408947Y-59073366D01*
X135191619Y-58957201D01*
X135001129Y-58800871D01*
X134844799Y-58610381D01*
X134728634Y-58393053D01*
X134657101Y-58157239D01*
X134632947Y-57912000D01*
X134657101Y-57666761D01*
X134728634Y-57430947D01*
X134844799Y-57213619D01*
X135001129Y-57023129D01*
X135191619Y-56866799D01*
X135408947Y-56750634D01*
X135644761Y-56679101D01*
X135828543Y-56661000D01*
X135951457Y-56661000D01*
X136135239Y-56679101D01*
X136135239Y-56679101D01*
G37*
G36*
X162551239Y-56679101D02*
X162787053Y-56750634D01*
X163004381Y-56866799D01*
X163194871Y-57023129D01*
X163351201Y-57213619D01*
X163467366Y-57430947D01*
X163538899Y-57666761D01*
X163563053Y-57912000D01*
X163538899Y-58157239D01*
X163467366Y-58393053D01*
X163351201Y-58610381D01*
X163194871Y-58800871D01*
X163004381Y-58957201D01*
X162787053Y-59073366D01*
X162551239Y-59144899D01*
X162367457Y-59163000D01*
X162244543Y-59163000D01*
X162060761Y-59144899D01*
X161824947Y-59073366D01*
X161607619Y-58957201D01*
X161417129Y-58800871D01*
X161260799Y-58610381D01*
X161144634Y-58393053D01*
X161073101Y-58157239D01*
X161048947Y-57912000D01*
X161073101Y-57666761D01*
X161144634Y-57430947D01*
X161260799Y-57213619D01*
X161417129Y-57023129D01*
X161607619Y-56866799D01*
X161824947Y-56750634D01*
X162060761Y-56679101D01*
X162244543Y-56661000D01*
X162367457Y-56661000D01*
X162551239Y-56679101D01*
X162551239Y-56679101D01*
G37*
G36*
X130993636Y-56673019D02*
X131174903Y-56709075D01*
X131402571Y-56803378D01*
X131497488Y-56866800D01*
X131607469Y-56940287D01*
X131781713Y-57114531D01*
X131781715Y-57114534D01*
X131918622Y-57319429D01*
X132012925Y-57547097D01*
X132061000Y-57788787D01*
X132061000Y-58035213D01*
X132012925Y-58276903D01*
X131918622Y-58504571D01*
X131782332Y-58708542D01*
X131781713Y-58709469D01*
X131607469Y-58883713D01*
X131607466Y-58883715D01*
X131402571Y-59020622D01*
X131174903Y-59114925D01*
X131024213Y-59144899D01*
X130933214Y-59163000D01*
X130686786Y-59163000D01*
X130595787Y-59144899D01*
X130445097Y-59114925D01*
X130217429Y-59020622D01*
X130012534Y-58883715D01*
X130012531Y-58883713D01*
X129838287Y-58709469D01*
X129837668Y-58708542D01*
X129701378Y-58504571D01*
X129607075Y-58276903D01*
X129559000Y-58035213D01*
X129559000Y-57788787D01*
X129607075Y-57547097D01*
X129701378Y-57319429D01*
X129838285Y-57114534D01*
X129838287Y-57114531D01*
X130012531Y-56940287D01*
X130122512Y-56866800D01*
X130217429Y-56803378D01*
X130445097Y-56709075D01*
X130626364Y-56673019D01*
X130686786Y-56661000D01*
X130933214Y-56661000D01*
X130993636Y-56673019D01*
X130993636Y-56673019D01*
G37*
G36*
X185708228Y-55061703D02*
X185863100Y-55125853D01*
X186002481Y-55218985D01*
X186121015Y-55337519D01*
X186214147Y-55476900D01*
X186278297Y-55631772D01*
X186311000Y-55796184D01*
X186311000Y-55963816D01*
X186278297Y-56128228D01*
X186214147Y-56283100D01*
X186121015Y-56422481D01*
X186002481Y-56541015D01*
X185863100Y-56634147D01*
X185708228Y-56698297D01*
X185543816Y-56731000D01*
X185376184Y-56731000D01*
X185211772Y-56698297D01*
X185056900Y-56634147D01*
X184917519Y-56541015D01*
X184798985Y-56422481D01*
X184705853Y-56283100D01*
X184641703Y-56128228D01*
X184609000Y-55963816D01*
X184609000Y-55796184D01*
X184641703Y-55631772D01*
X184705853Y-55476900D01*
X184798985Y-55337519D01*
X184917519Y-55218985D01*
X185056900Y-55125853D01*
X185211772Y-55061703D01*
X185376184Y-55029000D01*
X185543816Y-55029000D01*
X185708228Y-55061703D01*
X185708228Y-55061703D01*
G37*
G36*
X188811000Y-56731000D02*
X187109000Y-56731000D01*
X187109000Y-55029000D01*
X188811000Y-55029000D01*
X188811000Y-56731000D01*
X188811000Y-56731000D01*
G37*
G36*
X216368795Y-54546156D02*
X216475150Y-54567311D01*
X216545990Y-54596654D01*
X216675516Y-54650305D01*
X216855850Y-54770801D01*
X217009199Y-54924150D01*
X217009201Y-54924153D01*
X217009202Y-54924154D01*
X217101110Y-55061704D01*
X217129695Y-55104484D01*
X217177122Y-55218985D01*
X217212689Y-55304850D01*
X217255000Y-55517561D01*
X217255000Y-55734439D01*
X217212689Y-55947150D01*
X217183346Y-56017990D01*
X217129695Y-56147516D01*
X217009199Y-56327850D01*
X216855850Y-56481199D01*
X216675516Y-56601695D01*
X216597169Y-56634147D01*
X216475150Y-56684689D01*
X216406743Y-56698296D01*
X216262440Y-56727000D01*
X216045560Y-56727000D01*
X215901257Y-56698296D01*
X215832850Y-56684689D01*
X215710831Y-56634147D01*
X215632484Y-56601695D01*
X215452150Y-56481199D01*
X215298801Y-56327850D01*
X215178305Y-56147516D01*
X215124654Y-56017990D01*
X215095311Y-55947150D01*
X215053000Y-55734439D01*
X215053000Y-55517561D01*
X215095311Y-55304850D01*
X215130878Y-55218985D01*
X215178305Y-55104484D01*
X215206890Y-55061704D01*
X215298798Y-54924154D01*
X215298799Y-54924153D01*
X215298801Y-54924150D01*
X215452150Y-54770801D01*
X215632484Y-54650305D01*
X215762010Y-54596654D01*
X215832850Y-54567311D01*
X215939205Y-54546156D01*
X216045560Y-54525000D01*
X216262440Y-54525000D01*
X216368795Y-54546156D01*
X216368795Y-54546156D01*
G37*
G36*
X170428228Y-51241703D02*
X170583100Y-51305853D01*
X170722481Y-51398985D01*
X170841015Y-51517519D01*
X170934147Y-51656900D01*
X170998297Y-51811772D01*
X171031000Y-51976184D01*
X171031000Y-52143816D01*
X170998297Y-52308228D01*
X170934147Y-52463100D01*
X170841015Y-52602481D01*
X170722481Y-52721015D01*
X170583100Y-52814147D01*
X170428228Y-52878297D01*
X170263816Y-52911000D01*
X170096184Y-52911000D01*
X169931772Y-52878297D01*
X169776900Y-52814147D01*
X169637519Y-52721015D01*
X169518985Y-52602481D01*
X169425853Y-52463100D01*
X169361703Y-52308228D01*
X169329000Y-52143816D01*
X169329000Y-51976184D01*
X169361703Y-51811772D01*
X169425853Y-51656900D01*
X169518985Y-51517519D01*
X169637519Y-51398985D01*
X169776900Y-51305853D01*
X169931772Y-51241703D01*
X170096184Y-51209000D01*
X170263816Y-51209000D01*
X170428228Y-51241703D01*
X170428228Y-51241703D01*
G37*
G36*
X142800565Y-50711389D02*
X142991834Y-50790615D01*
X143163976Y-50905637D01*
X143310363Y-51052024D01*
X143425385Y-51224166D01*
X143504611Y-51415435D01*
X143545000Y-51618484D01*
X143545000Y-51825516D01*
X143504611Y-52028565D01*
X143425385Y-52219834D01*
X143310363Y-52391976D01*
X143163976Y-52538363D01*
X142991834Y-52653385D01*
X142800565Y-52732611D01*
X142597516Y-52773000D01*
X142390484Y-52773000D01*
X142187435Y-52732611D01*
X141996166Y-52653385D01*
X141824024Y-52538363D01*
X141677637Y-52391976D01*
X141562615Y-52219834D01*
X141483389Y-52028565D01*
X141443000Y-51825516D01*
X141443000Y-51618484D01*
X141483389Y-51415435D01*
X141562615Y-51224166D01*
X141677637Y-51052024D01*
X141824024Y-50905637D01*
X141996166Y-50790615D01*
X142187435Y-50711389D01*
X142390484Y-50671000D01*
X142597516Y-50671000D01*
X142800565Y-50711389D01*
X142800565Y-50711389D01*
G37*
G36*
X216368794Y-49466155D02*
X216475150Y-49487311D01*
X216545990Y-49516654D01*
X216675516Y-49570305D01*
X216855850Y-49690801D01*
X217009199Y-49844150D01*
X217129695Y-50024484D01*
X217212689Y-50224851D01*
X217255000Y-50437560D01*
X217255000Y-50654440D01*
X217212689Y-50867149D01*
X217129695Y-51067516D01*
X217129693Y-51067519D01*
X217013307Y-51241703D01*
X217009199Y-51247850D01*
X216855850Y-51401199D01*
X216855847Y-51401201D01*
X216855846Y-51401202D01*
X216681766Y-51517519D01*
X216675516Y-51521695D01*
X216545990Y-51575346D01*
X216475150Y-51604689D01*
X216405798Y-51618484D01*
X216262440Y-51647000D01*
X216045560Y-51647000D01*
X215902202Y-51618484D01*
X215832850Y-51604689D01*
X215762010Y-51575346D01*
X215632484Y-51521695D01*
X215626234Y-51517519D01*
X215452154Y-51401202D01*
X215452153Y-51401201D01*
X215452150Y-51401199D01*
X215298801Y-51247850D01*
X215294694Y-51241703D01*
X215178307Y-51067519D01*
X215178305Y-51067516D01*
X215095311Y-50867149D01*
X215053000Y-50654440D01*
X215053000Y-50437560D01*
X215095311Y-50224851D01*
X215178305Y-50024484D01*
X215298801Y-49844150D01*
X215452150Y-49690801D01*
X215632484Y-49570305D01*
X215762010Y-49516654D01*
X215832850Y-49487311D01*
X215939206Y-49466155D01*
X216045560Y-49445000D01*
X216262440Y-49445000D01*
X216368794Y-49466155D01*
X216368794Y-49466155D01*
G37*
G36*
X171031000Y-49111000D02*
X169329000Y-49111000D01*
X169329000Y-47409000D01*
X171031000Y-47409000D01*
X171031000Y-49111000D01*
X171031000Y-49111000D01*
G37*
G36*
X148764492Y-46257200D02*
X148954903Y-46295075D01*
X149182571Y-46389378D01*
X149386542Y-46525668D01*
X149387469Y-46526287D01*
X149561713Y-46700531D01*
X149561715Y-46700534D01*
X149698622Y-46905429D01*
X149792925Y-47133097D01*
X149841000Y-47374787D01*
X149841000Y-47621213D01*
X149792925Y-47862903D01*
X149698622Y-48090571D01*
X149562332Y-48294542D01*
X149561713Y-48295469D01*
X149387469Y-48469713D01*
X149387466Y-48469715D01*
X149182571Y-48606622D01*
X148954903Y-48700925D01*
X148773636Y-48736981D01*
X148713214Y-48749000D01*
X148466786Y-48749000D01*
X148406364Y-48736981D01*
X148225097Y-48700925D01*
X147997429Y-48606622D01*
X147792534Y-48469715D01*
X147792531Y-48469713D01*
X147618287Y-48295469D01*
X147617668Y-48294542D01*
X147481378Y-48090571D01*
X147387075Y-47862903D01*
X147339000Y-47621213D01*
X147339000Y-47374787D01*
X147387075Y-47133097D01*
X147481378Y-46905429D01*
X147618285Y-46700534D01*
X147618287Y-46700531D01*
X147792531Y-46526287D01*
X147793458Y-46525668D01*
X147997429Y-46389378D01*
X148225097Y-46295075D01*
X148415508Y-46257200D01*
X148466786Y-46247000D01*
X148713214Y-46247000D01*
X148764492Y-46257200D01*
X148764492Y-46257200D01*
G37*
G36*
X203181000Y-46971000D02*
X200679000Y-46971000D01*
X200679000Y-44469000D01*
X203181000Y-44469000D01*
X203181000Y-46971000D01*
X203181000Y-46971000D01*
G37*
G36*
X192656180Y-44575662D02*
X192757635Y-44585654D01*
X192974600Y-44651470D01*
X192974602Y-44651471D01*
X192974605Y-44651472D01*
X193174556Y-44758347D01*
X193349818Y-44902182D01*
X193493653Y-45077444D01*
X193600528Y-45277395D01*
X193600529Y-45277398D01*
X193600530Y-45277400D01*
X193666346Y-45494365D01*
X193688569Y-45720000D01*
X193666346Y-45945635D01*
X193619255Y-46100871D01*
X193600528Y-46162605D01*
X193493653Y-46362556D01*
X193349818Y-46537818D01*
X193174556Y-46681653D01*
X192974605Y-46788528D01*
X192974602Y-46788529D01*
X192974600Y-46788530D01*
X192757635Y-46854346D01*
X192656180Y-46864338D01*
X192588545Y-46871000D01*
X192475455Y-46871000D01*
X192407820Y-46864338D01*
X192306365Y-46854346D01*
X192089400Y-46788530D01*
X192089398Y-46788529D01*
X192089395Y-46788528D01*
X191889444Y-46681653D01*
X191714182Y-46537818D01*
X191570347Y-46362556D01*
X191463472Y-46162605D01*
X191444745Y-46100871D01*
X191397654Y-45945635D01*
X191375431Y-45720000D01*
X191397654Y-45494365D01*
X191463470Y-45277400D01*
X191463471Y-45277398D01*
X191463472Y-45277395D01*
X191570347Y-45077444D01*
X191714182Y-44902182D01*
X191889444Y-44758347D01*
X192089395Y-44651472D01*
X192089398Y-44651471D01*
X192089400Y-44651470D01*
X192306365Y-44585654D01*
X192407820Y-44575662D01*
X192475455Y-44569000D01*
X192588545Y-44569000D01*
X192656180Y-44575662D01*
X192656180Y-44575662D01*
G37*
G36*
X183523000Y-46871000D02*
X181221000Y-46871000D01*
X181221000Y-44569000D01*
X183523000Y-44569000D01*
X183523000Y-46871000D01*
X183523000Y-46871000D01*
G37*
G36*
X217255000Y-46567000D02*
X215053000Y-46567000D01*
X215053000Y-44365000D01*
X217255000Y-44365000D01*
X217255000Y-46567000D01*
X217255000Y-46567000D01*
G37*
G36*
X125913635Y-43973019D02*
X126094903Y-44009075D01*
X126322571Y-44103378D01*
X126417488Y-44166800D01*
X126527469Y-44240287D01*
X126701713Y-44414531D01*
X126701715Y-44414534D01*
X126838622Y-44619429D01*
X126932925Y-44847097D01*
X126981000Y-45088787D01*
X126981000Y-45335213D01*
X126932925Y-45576903D01*
X126838622Y-45804571D01*
X126702332Y-46008542D01*
X126701713Y-46009469D01*
X126527469Y-46183713D01*
X126527466Y-46183715D01*
X126322571Y-46320622D01*
X126094903Y-46414925D01*
X125944213Y-46444899D01*
X125853214Y-46463000D01*
X125606786Y-46463000D01*
X125515787Y-46444899D01*
X125365097Y-46414925D01*
X125137429Y-46320622D01*
X124932534Y-46183715D01*
X124932531Y-46183713D01*
X124758287Y-46009469D01*
X124757668Y-46008542D01*
X124621378Y-45804571D01*
X124527075Y-45576903D01*
X124479000Y-45335213D01*
X124479000Y-45088787D01*
X124527075Y-44847097D01*
X124621378Y-44619429D01*
X124758285Y-44414534D01*
X124758287Y-44414531D01*
X124932531Y-44240287D01*
X125042512Y-44166800D01*
X125137429Y-44103378D01*
X125365097Y-44009075D01*
X125546365Y-43973019D01*
X125606786Y-43961000D01*
X125853214Y-43961000D01*
X125913635Y-43973019D01*
X125913635Y-43973019D01*
G37*
G36*
X136073635Y-43973019D02*
X136254903Y-44009075D01*
X136482571Y-44103378D01*
X136577488Y-44166800D01*
X136687469Y-44240287D01*
X136861713Y-44414531D01*
X136861715Y-44414534D01*
X136998622Y-44619429D01*
X137092925Y-44847097D01*
X137141000Y-45088787D01*
X137141000Y-45335213D01*
X137092925Y-45576903D01*
X136998622Y-45804571D01*
X136862332Y-46008542D01*
X136861713Y-46009469D01*
X136687469Y-46183713D01*
X136687466Y-46183715D01*
X136482571Y-46320622D01*
X136254903Y-46414925D01*
X136104213Y-46444899D01*
X136013214Y-46463000D01*
X135766786Y-46463000D01*
X135675787Y-46444899D01*
X135525097Y-46414925D01*
X135297429Y-46320622D01*
X135092534Y-46183715D01*
X135092531Y-46183713D01*
X134918287Y-46009469D01*
X134917668Y-46008542D01*
X134781378Y-45804571D01*
X134687075Y-45576903D01*
X134639000Y-45335213D01*
X134639000Y-45088787D01*
X134687075Y-44847097D01*
X134781378Y-44619429D01*
X134918285Y-44414534D01*
X134918287Y-44414531D01*
X135092531Y-44240287D01*
X135202512Y-44166800D01*
X135297429Y-44103378D01*
X135525097Y-44009075D01*
X135706365Y-43973019D01*
X135766786Y-43961000D01*
X136013214Y-43961000D01*
X136073635Y-43973019D01*
X136073635Y-43973019D01*
G37*
G36*
X131055239Y-43979101D02*
X131291053Y-44050634D01*
X131508381Y-44166799D01*
X131698871Y-44323129D01*
X131855201Y-44513619D01*
X131971366Y-44730947D01*
X132042899Y-44966761D01*
X132067053Y-45212000D01*
X132042899Y-45457239D01*
X131971366Y-45693053D01*
X131855201Y-45910381D01*
X131698871Y-46100871D01*
X131508381Y-46257201D01*
X131291053Y-46373366D01*
X131055239Y-46444899D01*
X130871457Y-46463000D01*
X130748543Y-46463000D01*
X130564761Y-46444899D01*
X130328947Y-46373366D01*
X130111619Y-46257201D01*
X129921129Y-46100871D01*
X129764799Y-45910381D01*
X129648634Y-45693053D01*
X129577101Y-45457239D01*
X129552947Y-45212000D01*
X129577101Y-44966761D01*
X129648634Y-44730947D01*
X129764799Y-44513619D01*
X129921129Y-44323129D01*
X130111619Y-44166799D01*
X130328947Y-44050634D01*
X130564761Y-43979101D01*
X130748543Y-43961000D01*
X130871457Y-43961000D01*
X131055239Y-43979101D01*
X131055239Y-43979101D01*
G37*
G36*
X162489635Y-43973019D02*
X162670903Y-44009075D01*
X162898571Y-44103378D01*
X162993488Y-44166800D01*
X163103469Y-44240287D01*
X163277713Y-44414531D01*
X163277715Y-44414534D01*
X163414622Y-44619429D01*
X163508925Y-44847097D01*
X163557000Y-45088787D01*
X163557000Y-45335213D01*
X163508925Y-45576903D01*
X163414622Y-45804571D01*
X163278332Y-46008542D01*
X163277713Y-46009469D01*
X163103469Y-46183713D01*
X163103466Y-46183715D01*
X162898571Y-46320622D01*
X162670903Y-46414925D01*
X162520213Y-46444899D01*
X162429214Y-46463000D01*
X162182786Y-46463000D01*
X162091787Y-46444899D01*
X161941097Y-46414925D01*
X161713429Y-46320622D01*
X161508534Y-46183715D01*
X161508531Y-46183713D01*
X161334287Y-46009469D01*
X161333668Y-46008542D01*
X161197378Y-45804571D01*
X161103075Y-45576903D01*
X161055000Y-45335213D01*
X161055000Y-45088787D01*
X161103075Y-44847097D01*
X161197378Y-44619429D01*
X161334285Y-44414534D01*
X161334287Y-44414531D01*
X161508531Y-44240287D01*
X161618512Y-44166800D01*
X161713429Y-44103378D01*
X161941097Y-44009075D01*
X162122365Y-43973019D01*
X162182786Y-43961000D01*
X162429214Y-43961000D01*
X162489635Y-43973019D01*
X162489635Y-43973019D01*
G37*
G36*
X155123636Y-42943019D02*
X155304903Y-42979075D01*
X155532571Y-43073378D01*
X155736542Y-43209668D01*
X155737469Y-43210287D01*
X155911713Y-43384531D01*
X155911715Y-43384534D01*
X156048622Y-43589429D01*
X156142925Y-43817097D01*
X156191000Y-44058787D01*
X156191000Y-44305213D01*
X156142925Y-44546903D01*
X156048622Y-44774571D01*
X155920204Y-44966761D01*
X155911713Y-44979469D01*
X155737469Y-45153713D01*
X155737466Y-45153715D01*
X155532571Y-45290622D01*
X155304903Y-45384925D01*
X155123636Y-45420981D01*
X155063214Y-45433000D01*
X154816786Y-45433000D01*
X154756365Y-45420981D01*
X154575097Y-45384925D01*
X154347429Y-45290622D01*
X154142534Y-45153715D01*
X154142531Y-45153713D01*
X153968287Y-44979469D01*
X153959796Y-44966761D01*
X153831378Y-44774571D01*
X153737075Y-44546903D01*
X153689000Y-44305213D01*
X153689000Y-44058787D01*
X153737075Y-43817097D01*
X153831378Y-43589429D01*
X153968285Y-43384534D01*
X153968287Y-43384531D01*
X154142531Y-43210287D01*
X154143458Y-43209668D01*
X154347429Y-43073378D01*
X154575097Y-42979075D01*
X154756364Y-42943019D01*
X154816786Y-42931000D01*
X155063214Y-42931000D01*
X155123636Y-42943019D01*
X155123636Y-42943019D01*
G37*
M02*
