G04 #@! TF.GenerationSoftware,KiCad,Pcbnew,(5.0.1)-4*
G04 #@! TF.CreationDate,2020-04-28T21:10:57-04:00*
G04 #@! TF.ProjectId,EFC_DIY_version,4546435F4449595F76657273696F6E2E,v01*
G04 #@! TF.SameCoordinates,Original*
G04 #@! TF.FileFunction,Legend,Top*
G04 #@! TF.FilePolarity,Positive*
%FSLAX46Y46*%
G04 Gerber Fmt 4.6, Leading zero omitted, Abs format (unit mm)*
G04 Created by KiCad (PCBNEW (5.0.1)-4) date 4/28/2020 9:10:57 PM*
%MOMM*%
%LPD*%
G01*
G04 APERTURE LIST*
%ADD10C,0.120000*%
%ADD11C,0.150000*%
G04 APERTURE END LIST*
D10*
G04 #@! TO.C,D1*
X185512000Y-44250000D02*
X185512000Y-47190000D01*
X185752000Y-44250000D02*
X185752000Y-47190000D01*
X185632000Y-44250000D02*
X185632000Y-47190000D01*
X191192000Y-45720000D02*
X190172000Y-45720000D01*
X183712000Y-45720000D02*
X184732000Y-45720000D01*
X190172000Y-44250000D02*
X184732000Y-44250000D01*
X190172000Y-47190000D02*
X190172000Y-44250000D01*
X184732000Y-47190000D02*
X190172000Y-47190000D01*
X184732000Y-44250000D02*
X184732000Y-47190000D01*
G04 #@! TO.C,D2*
X200098000Y-92022000D02*
X197158000Y-92022000D01*
X197158000Y-92022000D02*
X197158000Y-97462000D01*
X197158000Y-97462000D02*
X200098000Y-97462000D01*
X200098000Y-97462000D02*
X200098000Y-92022000D01*
X198628000Y-91002000D02*
X198628000Y-92022000D01*
X198628000Y-98482000D02*
X198628000Y-97462000D01*
X200098000Y-92922000D02*
X197158000Y-92922000D01*
X200098000Y-93042000D02*
X197158000Y-93042000D01*
X200098000Y-92802000D02*
X197158000Y-92802000D01*
G04 #@! TO.C,Q1*
X211550000Y-87590000D02*
X211550000Y-97830000D01*
X206909000Y-87590000D02*
X206909000Y-97830000D01*
X211550000Y-87590000D02*
X206909000Y-87590000D01*
X211550000Y-97830000D02*
X206909000Y-97830000D01*
X210040000Y-87590000D02*
X210040000Y-97830000D01*
X211550000Y-90860000D02*
X210040000Y-90860000D01*
X211550000Y-94561000D02*
X210040000Y-94561000D01*
G04 #@! TO.C,U1*
X134500000Y-68410000D02*
X134500000Y-78910000D01*
X152520000Y-68410000D02*
X134500000Y-68410000D01*
X152520000Y-78910000D02*
X152520000Y-68410000D01*
X134500000Y-78910000D02*
X152520000Y-78910000D01*
X134560000Y-71410000D02*
X134560000Y-72660000D01*
X152460000Y-71410000D02*
X134560000Y-71410000D01*
X152460000Y-75910000D02*
X152460000Y-71410000D01*
X134560000Y-75910000D02*
X152460000Y-75910000D01*
X134560000Y-74660000D02*
X134560000Y-75910000D01*
X134560000Y-72660000D02*
G75*
G02X134560000Y-74660000I0J-1000000D01*
G01*
G04 #@! TO.C,Q3*
X169006264Y-92185617D02*
G75*
G02X169594000Y-92578000I-1112264J-2302383D01*
G01*
X166795193Y-92131600D02*
G75*
G03X165294000Y-94488000I1098807J-2356400D01*
G01*
X166795193Y-96844400D02*
G75*
G02X165294000Y-94488000I1098807J2356400D01*
G01*
X169016045Y-96810631D02*
G75*
G03X169594000Y-96428000I-1122045J2322631D01*
G01*
X169594000Y-96428000D02*
X169594000Y-92578000D01*
G04 #@! TO.C,Q2*
X186960383Y-78328264D02*
G75*
G02X186568000Y-78916000I-2302383J1112264D01*
G01*
X187014400Y-76117193D02*
G75*
G03X184658000Y-74616000I-2356400J-1098807D01*
G01*
X182301600Y-76117193D02*
G75*
G02X184658000Y-74616000I2356400J-1098807D01*
G01*
X182335369Y-78338045D02*
G75*
G03X182718000Y-78916000I2322631J1122045D01*
G01*
X182718000Y-78916000D02*
X186568000Y-78916000D01*
D11*
G04 #@! TO.C,175L10*
X215790000Y-87440000D02*
X215790000Y-102940000D01*
X219690000Y-87440000D02*
X219690000Y-102940000D01*
X219690000Y-102940000D02*
X215790000Y-102940000D01*
X219690000Y-87440000D02*
X215790000Y-87440000D01*
D10*
G04 #@! TO.C,1N5819*
X203850000Y-48150000D02*
X200010000Y-48150000D01*
X200010000Y-48150000D02*
X200010000Y-55990000D01*
X200010000Y-55990000D02*
X203850000Y-55990000D01*
X203850000Y-55990000D02*
X203850000Y-48150000D01*
X201930000Y-47160000D02*
X201930000Y-48150000D01*
X201930000Y-56980000D02*
X201930000Y-55990000D01*
X203850000Y-49410000D02*
X200010000Y-49410000D01*
X203850000Y-49530000D02*
X200010000Y-49530000D01*
X203850000Y-49290000D02*
X200010000Y-49290000D01*
G04 #@! TO.C,C1*
X189330000Y-55880000D02*
G75*
G03X189330000Y-55880000I-2620000J0D01*
G01*
X186710000Y-58460000D02*
X186710000Y-53300000D01*
X186670000Y-58460000D02*
X186670000Y-53300000D01*
X186630000Y-58459000D02*
X186630000Y-53301000D01*
X186590000Y-58458000D02*
X186590000Y-53302000D01*
X186550000Y-58456000D02*
X186550000Y-53304000D01*
X186510000Y-58453000D02*
X186510000Y-53307000D01*
X186470000Y-58449000D02*
X186470000Y-56920000D01*
X186470000Y-54840000D02*
X186470000Y-53311000D01*
X186430000Y-58445000D02*
X186430000Y-56920000D01*
X186430000Y-54840000D02*
X186430000Y-53315000D01*
X186390000Y-58441000D02*
X186390000Y-56920000D01*
X186390000Y-54840000D02*
X186390000Y-53319000D01*
X186350000Y-58436000D02*
X186350000Y-56920000D01*
X186350000Y-54840000D02*
X186350000Y-53324000D01*
X186310000Y-58430000D02*
X186310000Y-56920000D01*
X186310000Y-54840000D02*
X186310000Y-53330000D01*
X186270000Y-58423000D02*
X186270000Y-56920000D01*
X186270000Y-54840000D02*
X186270000Y-53337000D01*
X186230000Y-58416000D02*
X186230000Y-56920000D01*
X186230000Y-54840000D02*
X186230000Y-53344000D01*
X186190000Y-58408000D02*
X186190000Y-56920000D01*
X186190000Y-54840000D02*
X186190000Y-53352000D01*
X186150000Y-58400000D02*
X186150000Y-56920000D01*
X186150000Y-54840000D02*
X186150000Y-53360000D01*
X186110000Y-58391000D02*
X186110000Y-56920000D01*
X186110000Y-54840000D02*
X186110000Y-53369000D01*
X186070000Y-58381000D02*
X186070000Y-56920000D01*
X186070000Y-54840000D02*
X186070000Y-53379000D01*
X186030000Y-58371000D02*
X186030000Y-56920000D01*
X186030000Y-54840000D02*
X186030000Y-53389000D01*
X185989000Y-58360000D02*
X185989000Y-56920000D01*
X185989000Y-54840000D02*
X185989000Y-53400000D01*
X185949000Y-58348000D02*
X185949000Y-56920000D01*
X185949000Y-54840000D02*
X185949000Y-53412000D01*
X185909000Y-58335000D02*
X185909000Y-56920000D01*
X185909000Y-54840000D02*
X185909000Y-53425000D01*
X185869000Y-58322000D02*
X185869000Y-56920000D01*
X185869000Y-54840000D02*
X185869000Y-53438000D01*
X185829000Y-58308000D02*
X185829000Y-56920000D01*
X185829000Y-54840000D02*
X185829000Y-53452000D01*
X185789000Y-58294000D02*
X185789000Y-56920000D01*
X185789000Y-54840000D02*
X185789000Y-53466000D01*
X185749000Y-58278000D02*
X185749000Y-56920000D01*
X185749000Y-54840000D02*
X185749000Y-53482000D01*
X185709000Y-58262000D02*
X185709000Y-56920000D01*
X185709000Y-54840000D02*
X185709000Y-53498000D01*
X185669000Y-58245000D02*
X185669000Y-56920000D01*
X185669000Y-54840000D02*
X185669000Y-53515000D01*
X185629000Y-58228000D02*
X185629000Y-56920000D01*
X185629000Y-54840000D02*
X185629000Y-53532000D01*
X185589000Y-58209000D02*
X185589000Y-56920000D01*
X185589000Y-54840000D02*
X185589000Y-53551000D01*
X185549000Y-58190000D02*
X185549000Y-56920000D01*
X185549000Y-54840000D02*
X185549000Y-53570000D01*
X185509000Y-58170000D02*
X185509000Y-56920000D01*
X185509000Y-54840000D02*
X185509000Y-53590000D01*
X185469000Y-58148000D02*
X185469000Y-56920000D01*
X185469000Y-54840000D02*
X185469000Y-53612000D01*
X185429000Y-58127000D02*
X185429000Y-56920000D01*
X185429000Y-54840000D02*
X185429000Y-53633000D01*
X185389000Y-58104000D02*
X185389000Y-56920000D01*
X185389000Y-54840000D02*
X185389000Y-53656000D01*
X185349000Y-58080000D02*
X185349000Y-56920000D01*
X185349000Y-54840000D02*
X185349000Y-53680000D01*
X185309000Y-58055000D02*
X185309000Y-56920000D01*
X185309000Y-54840000D02*
X185309000Y-53705000D01*
X185269000Y-58029000D02*
X185269000Y-56920000D01*
X185269000Y-54840000D02*
X185269000Y-53731000D01*
X185229000Y-58002000D02*
X185229000Y-56920000D01*
X185229000Y-54840000D02*
X185229000Y-53758000D01*
X185189000Y-57975000D02*
X185189000Y-56920000D01*
X185189000Y-54840000D02*
X185189000Y-53785000D01*
X185149000Y-57945000D02*
X185149000Y-56920000D01*
X185149000Y-54840000D02*
X185149000Y-53815000D01*
X185109000Y-57915000D02*
X185109000Y-56920000D01*
X185109000Y-54840000D02*
X185109000Y-53845000D01*
X185069000Y-57884000D02*
X185069000Y-56920000D01*
X185069000Y-54840000D02*
X185069000Y-53876000D01*
X185029000Y-57851000D02*
X185029000Y-56920000D01*
X185029000Y-54840000D02*
X185029000Y-53909000D01*
X184989000Y-57817000D02*
X184989000Y-56920000D01*
X184989000Y-54840000D02*
X184989000Y-53943000D01*
X184949000Y-57781000D02*
X184949000Y-56920000D01*
X184949000Y-54840000D02*
X184949000Y-53979000D01*
X184909000Y-57744000D02*
X184909000Y-56920000D01*
X184909000Y-54840000D02*
X184909000Y-54016000D01*
X184869000Y-57706000D02*
X184869000Y-56920000D01*
X184869000Y-54840000D02*
X184869000Y-54054000D01*
X184829000Y-57665000D02*
X184829000Y-56920000D01*
X184829000Y-54840000D02*
X184829000Y-54095000D01*
X184789000Y-57623000D02*
X184789000Y-56920000D01*
X184789000Y-54840000D02*
X184789000Y-54137000D01*
X184749000Y-57579000D02*
X184749000Y-56920000D01*
X184749000Y-54840000D02*
X184749000Y-54181000D01*
X184709000Y-57533000D02*
X184709000Y-56920000D01*
X184709000Y-54840000D02*
X184709000Y-54227000D01*
X184669000Y-57485000D02*
X184669000Y-56920000D01*
X184669000Y-54840000D02*
X184669000Y-54275000D01*
X184629000Y-57434000D02*
X184629000Y-56920000D01*
X184629000Y-54840000D02*
X184629000Y-54326000D01*
X184589000Y-57380000D02*
X184589000Y-56920000D01*
X184589000Y-54840000D02*
X184589000Y-54380000D01*
X184549000Y-57323000D02*
X184549000Y-56920000D01*
X184549000Y-54840000D02*
X184549000Y-54437000D01*
X184509000Y-57263000D02*
X184509000Y-56920000D01*
X184509000Y-54840000D02*
X184509000Y-54497000D01*
X184469000Y-57199000D02*
X184469000Y-56920000D01*
X184469000Y-54840000D02*
X184469000Y-54561000D01*
X184429000Y-57131000D02*
X184429000Y-56920000D01*
X184429000Y-54840000D02*
X184429000Y-54629000D01*
X184389000Y-57058000D02*
X184389000Y-54702000D01*
X184349000Y-56978000D02*
X184349000Y-54782000D01*
X184309000Y-56891000D02*
X184309000Y-54869000D01*
X184269000Y-56795000D02*
X184269000Y-54965000D01*
X184229000Y-56685000D02*
X184229000Y-55075000D01*
X184189000Y-56557000D02*
X184189000Y-55203000D01*
X184149000Y-56398000D02*
X184149000Y-55362000D01*
X184109000Y-56164000D02*
X184109000Y-55596000D01*
X189514775Y-57355000D02*
X189014775Y-57355000D01*
X189264775Y-57605000D02*
X189264775Y-57105000D01*
G04 #@! TO.C,C2*
X166180000Y-73240000D02*
X166180000Y-69000000D01*
X179420000Y-73240000D02*
X179420000Y-69000000D01*
X179420000Y-69000000D02*
X166180000Y-69000000D01*
X179420000Y-73240000D02*
X166180000Y-73240000D01*
G04 #@! TO.C,C3*
X150964000Y-89058000D02*
X150964000Y-102298000D01*
X146724000Y-89058000D02*
X146724000Y-102298000D01*
X150964000Y-89058000D02*
X146724000Y-89058000D01*
X150964000Y-102298000D02*
X146724000Y-102298000D01*
G04 #@! TO.C,C4*
X144868000Y-88804000D02*
X144868000Y-102044000D01*
X140628000Y-88804000D02*
X140628000Y-102044000D01*
X144868000Y-88804000D02*
X140628000Y-88804000D01*
X144868000Y-102044000D02*
X140628000Y-102044000D01*
G04 #@! TO.C,C5*
X140374000Y-50102000D02*
X144614000Y-50102000D01*
X140374000Y-63342000D02*
X144614000Y-63342000D01*
X144614000Y-63342000D02*
X144614000Y-50102000D01*
X140374000Y-63342000D02*
X140374000Y-50102000D01*
G04 #@! TO.C,C6*
X160830000Y-70508000D02*
X160830000Y-67668000D01*
X160830000Y-67668000D02*
X156790000Y-67668000D01*
X156790000Y-67668000D02*
X156790000Y-70508000D01*
X156790000Y-70508000D02*
X160830000Y-70508000D01*
X161520000Y-69088000D02*
X160830000Y-69088000D01*
X156100000Y-69088000D02*
X156790000Y-69088000D01*
G04 #@! TO.C,C8*
X152320000Y-60802000D02*
X152320000Y-42562000D01*
X157560000Y-60802000D02*
X157560000Y-42562000D01*
X152320000Y-60802000D02*
X157560000Y-60802000D01*
X152320000Y-42562000D02*
X157560000Y-42562000D01*
G04 #@! TO.C,C9*
X174300000Y-50160000D02*
G75*
G03X174300000Y-50160000I-4120000J0D01*
G01*
X174260000Y-50160000D02*
X166100000Y-50160000D01*
X174260000Y-50200000D02*
X166100000Y-50200000D01*
X174260000Y-50240000D02*
X166100000Y-50240000D01*
X174259000Y-50280000D02*
X166101000Y-50280000D01*
X174257000Y-50320000D02*
X166103000Y-50320000D01*
X174256000Y-50360000D02*
X166104000Y-50360000D01*
X174254000Y-50400000D02*
X166106000Y-50400000D01*
X174251000Y-50440000D02*
X166109000Y-50440000D01*
X174248000Y-50480000D02*
X166112000Y-50480000D01*
X174245000Y-50520000D02*
X166115000Y-50520000D01*
X174241000Y-50560000D02*
X166119000Y-50560000D01*
X174237000Y-50600000D02*
X166123000Y-50600000D01*
X174232000Y-50640000D02*
X166128000Y-50640000D01*
X174228000Y-50680000D02*
X166132000Y-50680000D01*
X174222000Y-50720000D02*
X166138000Y-50720000D01*
X174217000Y-50760000D02*
X166143000Y-50760000D01*
X174210000Y-50800000D02*
X166150000Y-50800000D01*
X174204000Y-50840000D02*
X166156000Y-50840000D01*
X174197000Y-50881000D02*
X166163000Y-50881000D01*
X174190000Y-50921000D02*
X166170000Y-50921000D01*
X174182000Y-50961000D02*
X166178000Y-50961000D01*
X174174000Y-51001000D02*
X166186000Y-51001000D01*
X174165000Y-51041000D02*
X171220000Y-51041000D01*
X169140000Y-51041000D02*
X166195000Y-51041000D01*
X174156000Y-51081000D02*
X171220000Y-51081000D01*
X169140000Y-51081000D02*
X166204000Y-51081000D01*
X174147000Y-51121000D02*
X171220000Y-51121000D01*
X169140000Y-51121000D02*
X166213000Y-51121000D01*
X174137000Y-51161000D02*
X171220000Y-51161000D01*
X169140000Y-51161000D02*
X166223000Y-51161000D01*
X174127000Y-51201000D02*
X171220000Y-51201000D01*
X169140000Y-51201000D02*
X166233000Y-51201000D01*
X174116000Y-51241000D02*
X171220000Y-51241000D01*
X169140000Y-51241000D02*
X166244000Y-51241000D01*
X174105000Y-51281000D02*
X171220000Y-51281000D01*
X169140000Y-51281000D02*
X166255000Y-51281000D01*
X174094000Y-51321000D02*
X171220000Y-51321000D01*
X169140000Y-51321000D02*
X166266000Y-51321000D01*
X174082000Y-51361000D02*
X171220000Y-51361000D01*
X169140000Y-51361000D02*
X166278000Y-51361000D01*
X174069000Y-51401000D02*
X171220000Y-51401000D01*
X169140000Y-51401000D02*
X166291000Y-51401000D01*
X174057000Y-51441000D02*
X171220000Y-51441000D01*
X169140000Y-51441000D02*
X166303000Y-51441000D01*
X174043000Y-51481000D02*
X171220000Y-51481000D01*
X169140000Y-51481000D02*
X166317000Y-51481000D01*
X174030000Y-51521000D02*
X171220000Y-51521000D01*
X169140000Y-51521000D02*
X166330000Y-51521000D01*
X174015000Y-51561000D02*
X171220000Y-51561000D01*
X169140000Y-51561000D02*
X166345000Y-51561000D01*
X174001000Y-51601000D02*
X171220000Y-51601000D01*
X169140000Y-51601000D02*
X166359000Y-51601000D01*
X173985000Y-51641000D02*
X171220000Y-51641000D01*
X169140000Y-51641000D02*
X166375000Y-51641000D01*
X173970000Y-51681000D02*
X171220000Y-51681000D01*
X169140000Y-51681000D02*
X166390000Y-51681000D01*
X173954000Y-51721000D02*
X171220000Y-51721000D01*
X169140000Y-51721000D02*
X166406000Y-51721000D01*
X173937000Y-51761000D02*
X171220000Y-51761000D01*
X169140000Y-51761000D02*
X166423000Y-51761000D01*
X173920000Y-51801000D02*
X171220000Y-51801000D01*
X169140000Y-51801000D02*
X166440000Y-51801000D01*
X173902000Y-51841000D02*
X171220000Y-51841000D01*
X169140000Y-51841000D02*
X166458000Y-51841000D01*
X173884000Y-51881000D02*
X171220000Y-51881000D01*
X169140000Y-51881000D02*
X166476000Y-51881000D01*
X173866000Y-51921000D02*
X171220000Y-51921000D01*
X169140000Y-51921000D02*
X166494000Y-51921000D01*
X173846000Y-51961000D02*
X171220000Y-51961000D01*
X169140000Y-51961000D02*
X166514000Y-51961000D01*
X173827000Y-52001000D02*
X171220000Y-52001000D01*
X169140000Y-52001000D02*
X166533000Y-52001000D01*
X173807000Y-52041000D02*
X171220000Y-52041000D01*
X169140000Y-52041000D02*
X166553000Y-52041000D01*
X173786000Y-52081000D02*
X171220000Y-52081000D01*
X169140000Y-52081000D02*
X166574000Y-52081000D01*
X173764000Y-52121000D02*
X171220000Y-52121000D01*
X169140000Y-52121000D02*
X166596000Y-52121000D01*
X173742000Y-52161000D02*
X171220000Y-52161000D01*
X169140000Y-52161000D02*
X166618000Y-52161000D01*
X173720000Y-52201000D02*
X171220000Y-52201000D01*
X169140000Y-52201000D02*
X166640000Y-52201000D01*
X173697000Y-52241000D02*
X171220000Y-52241000D01*
X169140000Y-52241000D02*
X166663000Y-52241000D01*
X173673000Y-52281000D02*
X171220000Y-52281000D01*
X169140000Y-52281000D02*
X166687000Y-52281000D01*
X173649000Y-52321000D02*
X171220000Y-52321000D01*
X169140000Y-52321000D02*
X166711000Y-52321000D01*
X173624000Y-52361000D02*
X171220000Y-52361000D01*
X169140000Y-52361000D02*
X166736000Y-52361000D01*
X173598000Y-52401000D02*
X171220000Y-52401000D01*
X169140000Y-52401000D02*
X166762000Y-52401000D01*
X173572000Y-52441000D02*
X171220000Y-52441000D01*
X169140000Y-52441000D02*
X166788000Y-52441000D01*
X173545000Y-52481000D02*
X171220000Y-52481000D01*
X169140000Y-52481000D02*
X166815000Y-52481000D01*
X173518000Y-52521000D02*
X171220000Y-52521000D01*
X169140000Y-52521000D02*
X166842000Y-52521000D01*
X173489000Y-52561000D02*
X171220000Y-52561000D01*
X169140000Y-52561000D02*
X166871000Y-52561000D01*
X173460000Y-52601000D02*
X171220000Y-52601000D01*
X169140000Y-52601000D02*
X166900000Y-52601000D01*
X173430000Y-52641000D02*
X171220000Y-52641000D01*
X169140000Y-52641000D02*
X166930000Y-52641000D01*
X173400000Y-52681000D02*
X171220000Y-52681000D01*
X169140000Y-52681000D02*
X166960000Y-52681000D01*
X173369000Y-52721000D02*
X171220000Y-52721000D01*
X169140000Y-52721000D02*
X166991000Y-52721000D01*
X173336000Y-52761000D02*
X171220000Y-52761000D01*
X169140000Y-52761000D02*
X167024000Y-52761000D01*
X173304000Y-52801000D02*
X171220000Y-52801000D01*
X169140000Y-52801000D02*
X167056000Y-52801000D01*
X173270000Y-52841000D02*
X171220000Y-52841000D01*
X169140000Y-52841000D02*
X167090000Y-52841000D01*
X173235000Y-52881000D02*
X171220000Y-52881000D01*
X169140000Y-52881000D02*
X167125000Y-52881000D01*
X173199000Y-52921000D02*
X171220000Y-52921000D01*
X169140000Y-52921000D02*
X167161000Y-52921000D01*
X173163000Y-52961000D02*
X171220000Y-52961000D01*
X169140000Y-52961000D02*
X167197000Y-52961000D01*
X173125000Y-53001000D02*
X171220000Y-53001000D01*
X169140000Y-53001000D02*
X167235000Y-53001000D01*
X173087000Y-53041000D02*
X171220000Y-53041000D01*
X169140000Y-53041000D02*
X167273000Y-53041000D01*
X173047000Y-53081000D02*
X171220000Y-53081000D01*
X169140000Y-53081000D02*
X167313000Y-53081000D01*
X173006000Y-53121000D02*
X167354000Y-53121000D01*
X172964000Y-53161000D02*
X167396000Y-53161000D01*
X172921000Y-53201000D02*
X167439000Y-53201000D01*
X172877000Y-53241000D02*
X167483000Y-53241000D01*
X172831000Y-53281000D02*
X167529000Y-53281000D01*
X172784000Y-53321000D02*
X167576000Y-53321000D01*
X172736000Y-53361000D02*
X167624000Y-53361000D01*
X172685000Y-53401000D02*
X167675000Y-53401000D01*
X172634000Y-53441000D02*
X167726000Y-53441000D01*
X172580000Y-53481000D02*
X167780000Y-53481000D01*
X172525000Y-53521000D02*
X167835000Y-53521000D01*
X172467000Y-53561000D02*
X167893000Y-53561000D01*
X172408000Y-53601000D02*
X167952000Y-53601000D01*
X172346000Y-53641000D02*
X168014000Y-53641000D01*
X172282000Y-53681000D02*
X168078000Y-53681000D01*
X172214000Y-53721000D02*
X168146000Y-53721000D01*
X172144000Y-53761000D02*
X168216000Y-53761000D01*
X172070000Y-53801000D02*
X168290000Y-53801000D01*
X171993000Y-53841000D02*
X168367000Y-53841000D01*
X171911000Y-53881000D02*
X168449000Y-53881000D01*
X171825000Y-53921000D02*
X168535000Y-53921000D01*
X171732000Y-53961000D02*
X168628000Y-53961000D01*
X171633000Y-54001000D02*
X168727000Y-54001000D01*
X171526000Y-54041000D02*
X168834000Y-54041000D01*
X171409000Y-54081000D02*
X168951000Y-54081000D01*
X171278000Y-54121000D02*
X169082000Y-54121000D01*
X171128000Y-54161000D02*
X169232000Y-54161000D01*
X170948000Y-54201000D02*
X169412000Y-54201000D01*
X170713000Y-54241000D02*
X169647000Y-54241000D01*
X172495000Y-45750302D02*
X172495000Y-46550302D01*
X172895000Y-46150302D02*
X172095000Y-46150302D01*
G04 #@! TO.C,J1*
X214868725Y-46092871D02*
G75*
G02X214724000Y-45466000I1285275J626871D01*
G01*
X216781362Y-46751824D02*
G75*
G02X215527000Y-46752000I-627362J1285824D01*
G01*
X217439824Y-44838638D02*
G75*
G02X217440000Y-46093000I-1285824J-627362D01*
G01*
X215527254Y-44179389D02*
G75*
G02X216782000Y-44180000I626746J-1286611D01*
G01*
X214723060Y-45490280D02*
G75*
G02X214868000Y-44838000I1430940J24280D01*
G01*
X217584000Y-50546000D02*
G75*
G03X217584000Y-50546000I-1430000J0D01*
G01*
X217584000Y-55626000D02*
G75*
G03X217584000Y-55626000I-1430000J0D01*
G01*
X217584000Y-60706000D02*
G75*
G03X217584000Y-60706000I-1430000J0D01*
G01*
X217584000Y-65786000D02*
G75*
G03X217584000Y-65786000I-1430000J0D01*
G01*
X212604000Y-42866000D02*
X212604000Y-68386000D01*
X213704000Y-42866000D02*
X213704000Y-68386000D01*
X218704000Y-42866000D02*
X218704000Y-68386000D01*
X220614000Y-42866000D02*
X220614000Y-68386000D01*
X212044000Y-42866000D02*
X212044000Y-68386000D01*
X220614000Y-42866000D02*
X212044000Y-42866000D01*
X220614000Y-68386000D02*
X212044000Y-68386000D01*
X220554000Y-44216000D02*
X220554000Y-46716000D01*
X219554000Y-44216000D02*
X219554000Y-46716000D01*
X220554000Y-44216000D02*
X219554000Y-44216000D01*
X220554000Y-46716000D02*
X219554000Y-46716000D01*
X217064000Y-51631000D02*
X217005000Y-51571000D01*
X215109000Y-49676000D02*
X215069000Y-49636000D01*
X217239000Y-51457000D02*
X217199000Y-51417000D01*
X215304000Y-49522000D02*
X215244000Y-49462000D01*
X220554000Y-49296000D02*
X220554000Y-51796000D01*
X219554000Y-49296000D02*
X219554000Y-51796000D01*
X220554000Y-49296000D02*
X219554000Y-49296000D01*
X220554000Y-51796000D02*
X219554000Y-51796000D01*
X217064000Y-56711000D02*
X217005000Y-56651000D01*
X215109000Y-54756000D02*
X215069000Y-54716000D01*
X217239000Y-56537000D02*
X217199000Y-56497000D01*
X215304000Y-54602000D02*
X215244000Y-54542000D01*
X220554000Y-54376000D02*
X220554000Y-56876000D01*
X219554000Y-54376000D02*
X219554000Y-56876000D01*
X220554000Y-54376000D02*
X219554000Y-54376000D01*
X220554000Y-56876000D02*
X219554000Y-56876000D01*
X217064000Y-61791000D02*
X217005000Y-61731000D01*
X215109000Y-59836000D02*
X215069000Y-59796000D01*
X217239000Y-61617000D02*
X217199000Y-61577000D01*
X215304000Y-59682000D02*
X215244000Y-59622000D01*
X220554000Y-59456000D02*
X220554000Y-61956000D01*
X219554000Y-59456000D02*
X219554000Y-61956000D01*
X220554000Y-59456000D02*
X219554000Y-59456000D01*
X220554000Y-61956000D02*
X219554000Y-61956000D01*
X217064000Y-66871000D02*
X217005000Y-66811000D01*
X215109000Y-64916000D02*
X215069000Y-64876000D01*
X217239000Y-66697000D02*
X217199000Y-66657000D01*
X215304000Y-64762000D02*
X215244000Y-64702000D01*
X220554000Y-64536000D02*
X220554000Y-67036000D01*
X219554000Y-64536000D02*
X219554000Y-67036000D01*
X220554000Y-64536000D02*
X219554000Y-64536000D01*
X220554000Y-67036000D02*
X219554000Y-67036000D01*
X212544000Y-42626000D02*
X211804000Y-42626000D01*
X211804000Y-42626000D02*
X211804000Y-43126000D01*
G04 #@! TO.C,R1*
X205730000Y-77640000D02*
X205730000Y-78120000D01*
X205730000Y-78120000D02*
X195590000Y-78120000D01*
X195590000Y-78120000D02*
X195590000Y-77640000D01*
X205730000Y-74760000D02*
X205730000Y-74280000D01*
X205730000Y-74280000D02*
X195590000Y-74280000D01*
X195590000Y-74280000D02*
X195590000Y-74760000D01*
G04 #@! TO.C,R2*
X192702000Y-90180000D02*
X193182000Y-90180000D01*
X193182000Y-90180000D02*
X193182000Y-100320000D01*
X193182000Y-100320000D02*
X192702000Y-100320000D01*
X189822000Y-90180000D02*
X189342000Y-90180000D01*
X189342000Y-90180000D02*
X189342000Y-100320000D01*
X189342000Y-100320000D02*
X189822000Y-100320000D01*
G04 #@! TO.C,R3*
X184800000Y-90434000D02*
X184320000Y-90434000D01*
X184800000Y-100574000D02*
X184800000Y-90434000D01*
X184320000Y-100574000D02*
X184800000Y-100574000D01*
X180960000Y-90434000D02*
X181440000Y-90434000D01*
X180960000Y-100574000D02*
X180960000Y-90434000D01*
X181440000Y-100574000D02*
X180960000Y-100574000D01*
G04 #@! TO.C,R4*
X127366000Y-103876000D02*
X127846000Y-103876000D01*
X127366000Y-93736000D02*
X127366000Y-103876000D01*
X127846000Y-93736000D02*
X127366000Y-93736000D01*
X131206000Y-103876000D02*
X130726000Y-103876000D01*
X131206000Y-93736000D02*
X131206000Y-103876000D01*
X130726000Y-93736000D02*
X131206000Y-93736000D01*
G04 #@! TO.C,R5*
X183378000Y-85994000D02*
X183378000Y-85514000D01*
X173238000Y-85994000D02*
X183378000Y-85994000D01*
X173238000Y-85514000D02*
X173238000Y-85994000D01*
X183378000Y-82154000D02*
X183378000Y-82634000D01*
X173238000Y-82154000D02*
X183378000Y-82154000D01*
X173238000Y-82634000D02*
X173238000Y-82154000D01*
G04 #@! TO.C,R6*
X176700000Y-90434000D02*
X177180000Y-90434000D01*
X177180000Y-90434000D02*
X177180000Y-100574000D01*
X177180000Y-100574000D02*
X176700000Y-100574000D01*
X173820000Y-90434000D02*
X173340000Y-90434000D01*
X173340000Y-90434000D02*
X173340000Y-100574000D01*
X173340000Y-100574000D02*
X173820000Y-100574000D01*
G04 #@! TO.C,R7*
X163492000Y-89418000D02*
X163972000Y-89418000D01*
X163972000Y-89418000D02*
X163972000Y-99558000D01*
X163972000Y-99558000D02*
X163492000Y-99558000D01*
X160612000Y-89418000D02*
X160132000Y-89418000D01*
X160132000Y-89418000D02*
X160132000Y-99558000D01*
X160132000Y-99558000D02*
X160612000Y-99558000D01*
G04 #@! TO.C,R8*
X152512000Y-100320000D02*
X152992000Y-100320000D01*
X152512000Y-90180000D02*
X152512000Y-100320000D01*
X152992000Y-90180000D02*
X152512000Y-90180000D01*
X156352000Y-100320000D02*
X155872000Y-100320000D01*
X156352000Y-90180000D02*
X156352000Y-100320000D01*
X155872000Y-90180000D02*
X156352000Y-90180000D01*
G04 #@! TO.C,R9*
X127170000Y-46492000D02*
X127650000Y-46492000D01*
X127650000Y-46492000D02*
X127650000Y-56632000D01*
X127650000Y-56632000D02*
X127170000Y-56632000D01*
X124290000Y-46492000D02*
X123810000Y-46492000D01*
X123810000Y-46492000D02*
X123810000Y-56632000D01*
X123810000Y-56632000D02*
X124290000Y-56632000D01*
G04 #@! TO.C,R10*
X137810000Y-90180000D02*
X137330000Y-90180000D01*
X137810000Y-100320000D02*
X137810000Y-90180000D01*
X137330000Y-100320000D02*
X137810000Y-100320000D01*
X133970000Y-90180000D02*
X134450000Y-90180000D01*
X133970000Y-100320000D02*
X133970000Y-90180000D01*
X134450000Y-100320000D02*
X133970000Y-100320000D01*
G04 #@! TO.C,R11*
X160386000Y-56632000D02*
X160866000Y-56632000D01*
X160386000Y-46492000D02*
X160386000Y-56632000D01*
X160866000Y-46492000D02*
X160386000Y-46492000D01*
X164226000Y-56632000D02*
X163746000Y-56632000D01*
X164226000Y-46492000D02*
X164226000Y-56632000D01*
X163746000Y-46492000D02*
X164226000Y-46492000D01*
G04 #@! TO.C,R12*
X129370000Y-56632000D02*
X128890000Y-56632000D01*
X128890000Y-56632000D02*
X128890000Y-46492000D01*
X128890000Y-46492000D02*
X129370000Y-46492000D01*
X132250000Y-56632000D02*
X132730000Y-56632000D01*
X132730000Y-56632000D02*
X132730000Y-46492000D01*
X132730000Y-46492000D02*
X132250000Y-46492000D01*
G04 #@! TO.C,R13*
X137330000Y-46492000D02*
X137810000Y-46492000D01*
X137810000Y-46492000D02*
X137810000Y-56632000D01*
X137810000Y-56632000D02*
X137330000Y-56632000D01*
X134450000Y-46492000D02*
X133970000Y-46492000D01*
X133970000Y-46492000D02*
X133970000Y-56632000D01*
X133970000Y-56632000D02*
X134450000Y-56632000D01*
G04 #@! TO.C,R14*
X146670000Y-58918000D02*
X147150000Y-58918000D01*
X146670000Y-48778000D02*
X146670000Y-58918000D01*
X147150000Y-48778000D02*
X146670000Y-48778000D01*
X150510000Y-58918000D02*
X150030000Y-58918000D01*
X150510000Y-48778000D02*
X150510000Y-58918000D01*
X150030000Y-48778000D02*
X150510000Y-48778000D01*
G04 #@! TO.C,D1*
D11*
X186713904Y-43702380D02*
X186713904Y-42702380D01*
X186952000Y-42702380D01*
X187094857Y-42750000D01*
X187190095Y-42845238D01*
X187237714Y-42940476D01*
X187285333Y-43130952D01*
X187285333Y-43273809D01*
X187237714Y-43464285D01*
X187190095Y-43559523D01*
X187094857Y-43654761D01*
X186952000Y-43702380D01*
X186713904Y-43702380D01*
X188237714Y-43702380D02*
X187666285Y-43702380D01*
X187952000Y-43702380D02*
X187952000Y-42702380D01*
X187856761Y-42845238D01*
X187761523Y-42940476D01*
X187666285Y-42988095D01*
X182110095Y-44072380D02*
X182110095Y-43072380D01*
X182681523Y-44072380D02*
X182252952Y-43500952D01*
X182681523Y-43072380D02*
X182110095Y-43643809D01*
G04 #@! TO.C,D2*
X201550380Y-95480095D02*
X200550380Y-95480095D01*
X200550380Y-95242000D01*
X200598000Y-95099142D01*
X200693238Y-95003904D01*
X200788476Y-94956285D01*
X200978952Y-94908666D01*
X201121809Y-94908666D01*
X201312285Y-94956285D01*
X201407523Y-95003904D01*
X201502761Y-95099142D01*
X201550380Y-95242000D01*
X201550380Y-95480095D01*
X200645619Y-94527714D02*
X200598000Y-94480095D01*
X200550380Y-94384857D01*
X200550380Y-94146761D01*
X200598000Y-94051523D01*
X200645619Y-94003904D01*
X200740857Y-93956285D01*
X200836095Y-93956285D01*
X200978952Y-94003904D01*
X201550380Y-94575333D01*
X201550380Y-93956285D01*
X201180380Y-89923904D02*
X200180380Y-89923904D01*
X201180380Y-89352476D02*
X200608952Y-89781047D01*
X200180380Y-89352476D02*
X200751809Y-89923904D01*
G04 #@! TO.C,Q1*
X213097619Y-92805238D02*
X213050000Y-92900476D01*
X212954761Y-92995714D01*
X212811904Y-93138571D01*
X212764285Y-93233809D01*
X212764285Y-93329047D01*
X213002380Y-93281428D02*
X212954761Y-93376666D01*
X212859523Y-93471904D01*
X212669047Y-93519523D01*
X212335714Y-93519523D01*
X212145238Y-93471904D01*
X212050000Y-93376666D01*
X212002380Y-93281428D01*
X212002380Y-93090952D01*
X212050000Y-92995714D01*
X212145238Y-92900476D01*
X212335714Y-92852857D01*
X212669047Y-92852857D01*
X212859523Y-92900476D01*
X212954761Y-92995714D01*
X213002380Y-93090952D01*
X213002380Y-93281428D01*
X213002380Y-91900476D02*
X213002380Y-92471904D01*
X213002380Y-92186190D02*
X212002380Y-92186190D01*
X212145238Y-92281428D01*
X212240476Y-92376666D01*
X212288095Y-92471904D01*
G04 #@! TO.C,U1*
X133012380Y-74421904D02*
X133821904Y-74421904D01*
X133917142Y-74374285D01*
X133964761Y-74326666D01*
X134012380Y-74231428D01*
X134012380Y-74040952D01*
X133964761Y-73945714D01*
X133917142Y-73898095D01*
X133821904Y-73850476D01*
X133012380Y-73850476D01*
X134012380Y-72850476D02*
X134012380Y-73421904D01*
X134012380Y-73136190D02*
X133012380Y-73136190D01*
X133155238Y-73231428D01*
X133250476Y-73326666D01*
X133298095Y-73421904D01*
G04 #@! TO.C,Q3*
X164881619Y-94583238D02*
X164834000Y-94678476D01*
X164738761Y-94773714D01*
X164595904Y-94916571D01*
X164548285Y-95011809D01*
X164548285Y-95107047D01*
X164786380Y-95059428D02*
X164738761Y-95154666D01*
X164643523Y-95249904D01*
X164453047Y-95297523D01*
X164119714Y-95297523D01*
X163929238Y-95249904D01*
X163834000Y-95154666D01*
X163786380Y-95059428D01*
X163786380Y-94868952D01*
X163834000Y-94773714D01*
X163929238Y-94678476D01*
X164119714Y-94630857D01*
X164453047Y-94630857D01*
X164643523Y-94678476D01*
X164738761Y-94773714D01*
X164786380Y-94868952D01*
X164786380Y-95059428D01*
X163786380Y-94297523D02*
X163786380Y-93678476D01*
X164167333Y-94011809D01*
X164167333Y-93868952D01*
X164214952Y-93773714D01*
X164262571Y-93726095D01*
X164357809Y-93678476D01*
X164595904Y-93678476D01*
X164691142Y-93726095D01*
X164738761Y-93773714D01*
X164786380Y-93868952D01*
X164786380Y-94154666D01*
X164738761Y-94249904D01*
X164691142Y-94297523D01*
G04 #@! TO.C,Q2*
X184562761Y-74203619D02*
X184467523Y-74156000D01*
X184372285Y-74060761D01*
X184229428Y-73917904D01*
X184134190Y-73870285D01*
X184038952Y-73870285D01*
X184086571Y-74108380D02*
X183991333Y-74060761D01*
X183896095Y-73965523D01*
X183848476Y-73775047D01*
X183848476Y-73441714D01*
X183896095Y-73251238D01*
X183991333Y-73156000D01*
X184086571Y-73108380D01*
X184277047Y-73108380D01*
X184372285Y-73156000D01*
X184467523Y-73251238D01*
X184515142Y-73441714D01*
X184515142Y-73775047D01*
X184467523Y-73965523D01*
X184372285Y-74060761D01*
X184277047Y-74108380D01*
X184086571Y-74108380D01*
X184896095Y-73203619D02*
X184943714Y-73156000D01*
X185038952Y-73108380D01*
X185277047Y-73108380D01*
X185372285Y-73156000D01*
X185419904Y-73203619D01*
X185467523Y-73298857D01*
X185467523Y-73394095D01*
X185419904Y-73536952D01*
X184848476Y-74108380D01*
X185467523Y-74108380D01*
G04 #@! TO.C,175L10*
X215242380Y-97213809D02*
X215242380Y-97785238D01*
X215242380Y-97499523D02*
X214242380Y-97499523D01*
X214385238Y-97594761D01*
X214480476Y-97690000D01*
X214528095Y-97785238D01*
X214242380Y-96880476D02*
X214242380Y-96213809D01*
X215242380Y-96642380D01*
X214242380Y-95356666D02*
X214242380Y-95832857D01*
X214718571Y-95880476D01*
X214670952Y-95832857D01*
X214623333Y-95737619D01*
X214623333Y-95499523D01*
X214670952Y-95404285D01*
X214718571Y-95356666D01*
X214813809Y-95309047D01*
X215051904Y-95309047D01*
X215147142Y-95356666D01*
X215194761Y-95404285D01*
X215242380Y-95499523D01*
X215242380Y-95737619D01*
X215194761Y-95832857D01*
X215147142Y-95880476D01*
X215242380Y-94404285D02*
X215242380Y-94880476D01*
X214242380Y-94880476D01*
X215242380Y-93547142D02*
X215242380Y-94118571D01*
X215242380Y-93832857D02*
X214242380Y-93832857D01*
X214385238Y-93928095D01*
X214480476Y-94023333D01*
X214528095Y-94118571D01*
X214242380Y-92928095D02*
X214242380Y-92832857D01*
X214290000Y-92737619D01*
X214337619Y-92690000D01*
X214432857Y-92642380D01*
X214623333Y-92594761D01*
X214861428Y-92594761D01*
X215051904Y-92642380D01*
X215147142Y-92690000D01*
X215194761Y-92737619D01*
X215242380Y-92832857D01*
X215242380Y-92928095D01*
X215194761Y-93023333D01*
X215147142Y-93070952D01*
X215051904Y-93118571D01*
X214861428Y-93166190D01*
X214623333Y-93166190D01*
X214432857Y-93118571D01*
X214337619Y-93070952D01*
X214290000Y-93023333D01*
X214242380Y-92928095D01*
G04 #@! TO.C,1N5819*
X205302380Y-54212857D02*
X205302380Y-54784285D01*
X205302380Y-54498571D02*
X204302380Y-54498571D01*
X204445238Y-54593809D01*
X204540476Y-54689047D01*
X204588095Y-54784285D01*
X205302380Y-53784285D02*
X204302380Y-53784285D01*
X205302380Y-53212857D01*
X204302380Y-53212857D01*
X204302380Y-52260476D02*
X204302380Y-52736666D01*
X204778571Y-52784285D01*
X204730952Y-52736666D01*
X204683333Y-52641428D01*
X204683333Y-52403333D01*
X204730952Y-52308095D01*
X204778571Y-52260476D01*
X204873809Y-52212857D01*
X205111904Y-52212857D01*
X205207142Y-52260476D01*
X205254761Y-52308095D01*
X205302380Y-52403333D01*
X205302380Y-52641428D01*
X205254761Y-52736666D01*
X205207142Y-52784285D01*
X204730952Y-51641428D02*
X204683333Y-51736666D01*
X204635714Y-51784285D01*
X204540476Y-51831904D01*
X204492857Y-51831904D01*
X204397619Y-51784285D01*
X204350000Y-51736666D01*
X204302380Y-51641428D01*
X204302380Y-51450952D01*
X204350000Y-51355714D01*
X204397619Y-51308095D01*
X204492857Y-51260476D01*
X204540476Y-51260476D01*
X204635714Y-51308095D01*
X204683333Y-51355714D01*
X204730952Y-51450952D01*
X204730952Y-51641428D01*
X204778571Y-51736666D01*
X204826190Y-51784285D01*
X204921428Y-51831904D01*
X205111904Y-51831904D01*
X205207142Y-51784285D01*
X205254761Y-51736666D01*
X205302380Y-51641428D01*
X205302380Y-51450952D01*
X205254761Y-51355714D01*
X205207142Y-51308095D01*
X205111904Y-51260476D01*
X204921428Y-51260476D01*
X204826190Y-51308095D01*
X204778571Y-51355714D01*
X204730952Y-51450952D01*
X205302380Y-50308095D02*
X205302380Y-50879523D01*
X205302380Y-50593809D02*
X204302380Y-50593809D01*
X204445238Y-50689047D01*
X204540476Y-50784285D01*
X204588095Y-50879523D01*
X205302380Y-49831904D02*
X205302380Y-49641428D01*
X205254761Y-49546190D01*
X205207142Y-49498571D01*
X205064285Y-49403333D01*
X204873809Y-49355714D01*
X204492857Y-49355714D01*
X204397619Y-49403333D01*
X204350000Y-49450952D01*
X204302380Y-49546190D01*
X204302380Y-49736666D01*
X204350000Y-49831904D01*
X204397619Y-49879523D01*
X204492857Y-49927142D01*
X204730952Y-49927142D01*
X204826190Y-49879523D01*
X204873809Y-49831904D01*
X204921428Y-49736666D01*
X204921428Y-49546190D01*
X204873809Y-49450952D01*
X204826190Y-49403333D01*
X204730952Y-49355714D01*
X204582380Y-45981904D02*
X203582380Y-45981904D01*
X204582380Y-45410476D02*
X204010952Y-45839047D01*
X203582380Y-45410476D02*
X204153809Y-45981904D01*
G04 #@! TO.C,C1*
X186543333Y-59987142D02*
X186495714Y-60034761D01*
X186352857Y-60082380D01*
X186257619Y-60082380D01*
X186114761Y-60034761D01*
X186019523Y-59939523D01*
X185971904Y-59844285D01*
X185924285Y-59653809D01*
X185924285Y-59510952D01*
X185971904Y-59320476D01*
X186019523Y-59225238D01*
X186114761Y-59130000D01*
X186257619Y-59082380D01*
X186352857Y-59082380D01*
X186495714Y-59130000D01*
X186543333Y-59177619D01*
X187495714Y-60082380D02*
X186924285Y-60082380D01*
X187210000Y-60082380D02*
X187210000Y-59082380D01*
X187114761Y-59225238D01*
X187019523Y-59320476D01*
X186924285Y-59368095D01*
G04 #@! TO.C,C2*
X172633333Y-74727142D02*
X172585714Y-74774761D01*
X172442857Y-74822380D01*
X172347619Y-74822380D01*
X172204761Y-74774761D01*
X172109523Y-74679523D01*
X172061904Y-74584285D01*
X172014285Y-74393809D01*
X172014285Y-74250952D01*
X172061904Y-74060476D01*
X172109523Y-73965238D01*
X172204761Y-73870000D01*
X172347619Y-73822380D01*
X172442857Y-73822380D01*
X172585714Y-73870000D01*
X172633333Y-73917619D01*
X173014285Y-73917619D02*
X173061904Y-73870000D01*
X173157142Y-73822380D01*
X173395238Y-73822380D01*
X173490476Y-73870000D01*
X173538095Y-73917619D01*
X173585714Y-74012857D01*
X173585714Y-74108095D01*
X173538095Y-74250952D01*
X172966666Y-74822380D01*
X173585714Y-74822380D01*
G04 #@! TO.C,C3*
X152451142Y-95844666D02*
X152498761Y-95892285D01*
X152546380Y-96035142D01*
X152546380Y-96130380D01*
X152498761Y-96273238D01*
X152403523Y-96368476D01*
X152308285Y-96416095D01*
X152117809Y-96463714D01*
X151974952Y-96463714D01*
X151784476Y-96416095D01*
X151689238Y-96368476D01*
X151594000Y-96273238D01*
X151546380Y-96130380D01*
X151546380Y-96035142D01*
X151594000Y-95892285D01*
X151641619Y-95844666D01*
X151546380Y-95511333D02*
X151546380Y-94892285D01*
X151927333Y-95225619D01*
X151927333Y-95082761D01*
X151974952Y-94987523D01*
X152022571Y-94939904D01*
X152117809Y-94892285D01*
X152355904Y-94892285D01*
X152451142Y-94939904D01*
X152498761Y-94987523D01*
X152546380Y-95082761D01*
X152546380Y-95368476D01*
X152498761Y-95463714D01*
X152451142Y-95511333D01*
G04 #@! TO.C,C4*
X146355142Y-95590666D02*
X146402761Y-95638285D01*
X146450380Y-95781142D01*
X146450380Y-95876380D01*
X146402761Y-96019238D01*
X146307523Y-96114476D01*
X146212285Y-96162095D01*
X146021809Y-96209714D01*
X145878952Y-96209714D01*
X145688476Y-96162095D01*
X145593238Y-96114476D01*
X145498000Y-96019238D01*
X145450380Y-95876380D01*
X145450380Y-95781142D01*
X145498000Y-95638285D01*
X145545619Y-95590666D01*
X145783714Y-94733523D02*
X146450380Y-94733523D01*
X145402761Y-94971619D02*
X146117047Y-95209714D01*
X146117047Y-94590666D01*
G04 #@! TO.C,C5*
X139601142Y-56888666D02*
X139648761Y-56936285D01*
X139696380Y-57079142D01*
X139696380Y-57174380D01*
X139648761Y-57317238D01*
X139553523Y-57412476D01*
X139458285Y-57460095D01*
X139267809Y-57507714D01*
X139124952Y-57507714D01*
X138934476Y-57460095D01*
X138839238Y-57412476D01*
X138744000Y-57317238D01*
X138696380Y-57174380D01*
X138696380Y-57079142D01*
X138744000Y-56936285D01*
X138791619Y-56888666D01*
X138696380Y-55983904D02*
X138696380Y-56460095D01*
X139172571Y-56507714D01*
X139124952Y-56460095D01*
X139077333Y-56364857D01*
X139077333Y-56126761D01*
X139124952Y-56031523D01*
X139172571Y-55983904D01*
X139267809Y-55936285D01*
X139505904Y-55936285D01*
X139601142Y-55983904D01*
X139648761Y-56031523D01*
X139696380Y-56126761D01*
X139696380Y-56364857D01*
X139648761Y-56460095D01*
X139601142Y-56507714D01*
G04 #@! TO.C,C6*
X158643333Y-71865142D02*
X158595714Y-71912761D01*
X158452857Y-71960380D01*
X158357619Y-71960380D01*
X158214761Y-71912761D01*
X158119523Y-71817523D01*
X158071904Y-71722285D01*
X158024285Y-71531809D01*
X158024285Y-71388952D01*
X158071904Y-71198476D01*
X158119523Y-71103238D01*
X158214761Y-71008000D01*
X158357619Y-70960380D01*
X158452857Y-70960380D01*
X158595714Y-71008000D01*
X158643333Y-71055619D01*
X159500476Y-70960380D02*
X159310000Y-70960380D01*
X159214761Y-71008000D01*
X159167142Y-71055619D01*
X159071904Y-71198476D01*
X159024285Y-71388952D01*
X159024285Y-71769904D01*
X159071904Y-71865142D01*
X159119523Y-71912761D01*
X159214761Y-71960380D01*
X159405238Y-71960380D01*
X159500476Y-71912761D01*
X159548095Y-71865142D01*
X159595714Y-71769904D01*
X159595714Y-71531809D01*
X159548095Y-71436571D01*
X159500476Y-71388952D01*
X159405238Y-71341333D01*
X159214761Y-71341333D01*
X159119523Y-71388952D01*
X159071904Y-71436571D01*
X159024285Y-71531809D01*
G04 #@! TO.C,C8*
X151547142Y-51848666D02*
X151594761Y-51896285D01*
X151642380Y-52039142D01*
X151642380Y-52134380D01*
X151594761Y-52277238D01*
X151499523Y-52372476D01*
X151404285Y-52420095D01*
X151213809Y-52467714D01*
X151070952Y-52467714D01*
X150880476Y-52420095D01*
X150785238Y-52372476D01*
X150690000Y-52277238D01*
X150642380Y-52134380D01*
X150642380Y-52039142D01*
X150690000Y-51896285D01*
X150737619Y-51848666D01*
X151070952Y-51277238D02*
X151023333Y-51372476D01*
X150975714Y-51420095D01*
X150880476Y-51467714D01*
X150832857Y-51467714D01*
X150737619Y-51420095D01*
X150690000Y-51372476D01*
X150642380Y-51277238D01*
X150642380Y-51086761D01*
X150690000Y-50991523D01*
X150737619Y-50943904D01*
X150832857Y-50896285D01*
X150880476Y-50896285D01*
X150975714Y-50943904D01*
X151023333Y-50991523D01*
X151070952Y-51086761D01*
X151070952Y-51277238D01*
X151118571Y-51372476D01*
X151166190Y-51420095D01*
X151261428Y-51467714D01*
X151451904Y-51467714D01*
X151547142Y-51420095D01*
X151594761Y-51372476D01*
X151642380Y-51277238D01*
X151642380Y-51086761D01*
X151594761Y-50991523D01*
X151547142Y-50943904D01*
X151451904Y-50896285D01*
X151261428Y-50896285D01*
X151166190Y-50943904D01*
X151118571Y-50991523D01*
X151070952Y-51086761D01*
G04 #@! TO.C,C9*
X175787142Y-50326666D02*
X175834761Y-50374285D01*
X175882380Y-50517142D01*
X175882380Y-50612380D01*
X175834761Y-50755238D01*
X175739523Y-50850476D01*
X175644285Y-50898095D01*
X175453809Y-50945714D01*
X175310952Y-50945714D01*
X175120476Y-50898095D01*
X175025238Y-50850476D01*
X174930000Y-50755238D01*
X174882380Y-50612380D01*
X174882380Y-50517142D01*
X174930000Y-50374285D01*
X174977619Y-50326666D01*
X175882380Y-49850476D02*
X175882380Y-49660000D01*
X175834761Y-49564761D01*
X175787142Y-49517142D01*
X175644285Y-49421904D01*
X175453809Y-49374285D01*
X175072857Y-49374285D01*
X174977619Y-49421904D01*
X174930000Y-49469523D01*
X174882380Y-49564761D01*
X174882380Y-49755238D01*
X174930000Y-49850476D01*
X174977619Y-49898095D01*
X175072857Y-49945714D01*
X175310952Y-49945714D01*
X175406190Y-49898095D01*
X175453809Y-49850476D01*
X175501428Y-49755238D01*
X175501428Y-49564761D01*
X175453809Y-49469523D01*
X175406190Y-49421904D01*
X175310952Y-49374285D01*
G04 #@! TO.C,J1*
X221066380Y-55959333D02*
X221780666Y-55959333D01*
X221923523Y-56006952D01*
X222018761Y-56102190D01*
X222066380Y-56245047D01*
X222066380Y-56340285D01*
X222066380Y-54959333D02*
X222066380Y-55530761D01*
X222066380Y-55245047D02*
X221066380Y-55245047D01*
X221209238Y-55340285D01*
X221304476Y-55435523D01*
X221352095Y-55530761D01*
G04 #@! TO.C,R1*
X200493333Y-79572380D02*
X200160000Y-79096190D01*
X199921904Y-79572380D02*
X199921904Y-78572380D01*
X200302857Y-78572380D01*
X200398095Y-78620000D01*
X200445714Y-78667619D01*
X200493333Y-78762857D01*
X200493333Y-78905714D01*
X200445714Y-79000952D01*
X200398095Y-79048571D01*
X200302857Y-79096190D01*
X199921904Y-79096190D01*
X201445714Y-79572380D02*
X200874285Y-79572380D01*
X201160000Y-79572380D02*
X201160000Y-78572380D01*
X201064761Y-78715238D01*
X200969523Y-78810476D01*
X200874285Y-78858095D01*
G04 #@! TO.C,R2*
X194634380Y-95416666D02*
X194158190Y-95750000D01*
X194634380Y-95988095D02*
X193634380Y-95988095D01*
X193634380Y-95607142D01*
X193682000Y-95511904D01*
X193729619Y-95464285D01*
X193824857Y-95416666D01*
X193967714Y-95416666D01*
X194062952Y-95464285D01*
X194110571Y-95511904D01*
X194158190Y-95607142D01*
X194158190Y-95988095D01*
X193729619Y-95035714D02*
X193682000Y-94988095D01*
X193634380Y-94892857D01*
X193634380Y-94654761D01*
X193682000Y-94559523D01*
X193729619Y-94511904D01*
X193824857Y-94464285D01*
X193920095Y-94464285D01*
X194062952Y-94511904D01*
X194634380Y-95083333D01*
X194634380Y-94464285D01*
G04 #@! TO.C,R3*
X180412380Y-95670666D02*
X179936190Y-96004000D01*
X180412380Y-96242095D02*
X179412380Y-96242095D01*
X179412380Y-95861142D01*
X179460000Y-95765904D01*
X179507619Y-95718285D01*
X179602857Y-95670666D01*
X179745714Y-95670666D01*
X179840952Y-95718285D01*
X179888571Y-95765904D01*
X179936190Y-95861142D01*
X179936190Y-96242095D01*
X179412380Y-95337333D02*
X179412380Y-94718285D01*
X179793333Y-95051619D01*
X179793333Y-94908761D01*
X179840952Y-94813523D01*
X179888571Y-94765904D01*
X179983809Y-94718285D01*
X180221904Y-94718285D01*
X180317142Y-94765904D01*
X180364761Y-94813523D01*
X180412380Y-94908761D01*
X180412380Y-95194476D01*
X180364761Y-95289714D01*
X180317142Y-95337333D01*
G04 #@! TO.C,R4*
X132658380Y-98972666D02*
X132182190Y-99306000D01*
X132658380Y-99544095D02*
X131658380Y-99544095D01*
X131658380Y-99163142D01*
X131706000Y-99067904D01*
X131753619Y-99020285D01*
X131848857Y-98972666D01*
X131991714Y-98972666D01*
X132086952Y-99020285D01*
X132134571Y-99067904D01*
X132182190Y-99163142D01*
X132182190Y-99544095D01*
X131991714Y-98115523D02*
X132658380Y-98115523D01*
X131610761Y-98353619D02*
X132325047Y-98591714D01*
X132325047Y-97972666D01*
G04 #@! TO.C,R5*
X178141333Y-81606380D02*
X177808000Y-81130190D01*
X177569904Y-81606380D02*
X177569904Y-80606380D01*
X177950857Y-80606380D01*
X178046095Y-80654000D01*
X178093714Y-80701619D01*
X178141333Y-80796857D01*
X178141333Y-80939714D01*
X178093714Y-81034952D01*
X178046095Y-81082571D01*
X177950857Y-81130190D01*
X177569904Y-81130190D01*
X179046095Y-80606380D02*
X178569904Y-80606380D01*
X178522285Y-81082571D01*
X178569904Y-81034952D01*
X178665142Y-80987333D01*
X178903238Y-80987333D01*
X178998476Y-81034952D01*
X179046095Y-81082571D01*
X179093714Y-81177809D01*
X179093714Y-81415904D01*
X179046095Y-81511142D01*
X178998476Y-81558761D01*
X178903238Y-81606380D01*
X178665142Y-81606380D01*
X178569904Y-81558761D01*
X178522285Y-81511142D01*
G04 #@! TO.C,R6*
X178632380Y-95670666D02*
X178156190Y-96004000D01*
X178632380Y-96242095D02*
X177632380Y-96242095D01*
X177632380Y-95861142D01*
X177680000Y-95765904D01*
X177727619Y-95718285D01*
X177822857Y-95670666D01*
X177965714Y-95670666D01*
X178060952Y-95718285D01*
X178108571Y-95765904D01*
X178156190Y-95861142D01*
X178156190Y-96242095D01*
X177632380Y-94813523D02*
X177632380Y-95004000D01*
X177680000Y-95099238D01*
X177727619Y-95146857D01*
X177870476Y-95242095D01*
X178060952Y-95289714D01*
X178441904Y-95289714D01*
X178537142Y-95242095D01*
X178584761Y-95194476D01*
X178632380Y-95099238D01*
X178632380Y-94908761D01*
X178584761Y-94813523D01*
X178537142Y-94765904D01*
X178441904Y-94718285D01*
X178203809Y-94718285D01*
X178108571Y-94765904D01*
X178060952Y-94813523D01*
X178013333Y-94908761D01*
X178013333Y-95099238D01*
X178060952Y-95194476D01*
X178108571Y-95242095D01*
X178203809Y-95289714D01*
G04 #@! TO.C,R7*
X165424380Y-94654666D02*
X164948190Y-94988000D01*
X165424380Y-95226095D02*
X164424380Y-95226095D01*
X164424380Y-94845142D01*
X164472000Y-94749904D01*
X164519619Y-94702285D01*
X164614857Y-94654666D01*
X164757714Y-94654666D01*
X164852952Y-94702285D01*
X164900571Y-94749904D01*
X164948190Y-94845142D01*
X164948190Y-95226095D01*
X164424380Y-94321333D02*
X164424380Y-93654666D01*
X165424380Y-94083238D01*
G04 #@! TO.C,R8*
X157804380Y-95416666D02*
X157328190Y-95750000D01*
X157804380Y-95988095D02*
X156804380Y-95988095D01*
X156804380Y-95607142D01*
X156852000Y-95511904D01*
X156899619Y-95464285D01*
X156994857Y-95416666D01*
X157137714Y-95416666D01*
X157232952Y-95464285D01*
X157280571Y-95511904D01*
X157328190Y-95607142D01*
X157328190Y-95988095D01*
X157232952Y-94845238D02*
X157185333Y-94940476D01*
X157137714Y-94988095D01*
X157042476Y-95035714D01*
X156994857Y-95035714D01*
X156899619Y-94988095D01*
X156852000Y-94940476D01*
X156804380Y-94845238D01*
X156804380Y-94654761D01*
X156852000Y-94559523D01*
X156899619Y-94511904D01*
X156994857Y-94464285D01*
X157042476Y-94464285D01*
X157137714Y-94511904D01*
X157185333Y-94559523D01*
X157232952Y-94654761D01*
X157232952Y-94845238D01*
X157280571Y-94940476D01*
X157328190Y-94988095D01*
X157423428Y-95035714D01*
X157613904Y-95035714D01*
X157709142Y-94988095D01*
X157756761Y-94940476D01*
X157804380Y-94845238D01*
X157804380Y-94654761D01*
X157756761Y-94559523D01*
X157709142Y-94511904D01*
X157613904Y-94464285D01*
X157423428Y-94464285D01*
X157328190Y-94511904D01*
X157280571Y-94559523D01*
X157232952Y-94654761D01*
G04 #@! TO.C,R9*
X129102380Y-51728666D02*
X128626190Y-52062000D01*
X129102380Y-52300095D02*
X128102380Y-52300095D01*
X128102380Y-51919142D01*
X128150000Y-51823904D01*
X128197619Y-51776285D01*
X128292857Y-51728666D01*
X128435714Y-51728666D01*
X128530952Y-51776285D01*
X128578571Y-51823904D01*
X128626190Y-51919142D01*
X128626190Y-52300095D01*
X129102380Y-51252476D02*
X129102380Y-51062000D01*
X129054761Y-50966761D01*
X129007142Y-50919142D01*
X128864285Y-50823904D01*
X128673809Y-50776285D01*
X128292857Y-50776285D01*
X128197619Y-50823904D01*
X128150000Y-50871523D01*
X128102380Y-50966761D01*
X128102380Y-51157238D01*
X128150000Y-51252476D01*
X128197619Y-51300095D01*
X128292857Y-51347714D01*
X128530952Y-51347714D01*
X128626190Y-51300095D01*
X128673809Y-51252476D01*
X128721428Y-51157238D01*
X128721428Y-50966761D01*
X128673809Y-50871523D01*
X128626190Y-50823904D01*
X128530952Y-50776285D01*
G04 #@! TO.C,R10*
X133422380Y-95892857D02*
X132946190Y-96226190D01*
X133422380Y-96464285D02*
X132422380Y-96464285D01*
X132422380Y-96083333D01*
X132470000Y-95988095D01*
X132517619Y-95940476D01*
X132612857Y-95892857D01*
X132755714Y-95892857D01*
X132850952Y-95940476D01*
X132898571Y-95988095D01*
X132946190Y-96083333D01*
X132946190Y-96464285D01*
X133422380Y-94940476D02*
X133422380Y-95511904D01*
X133422380Y-95226190D02*
X132422380Y-95226190D01*
X132565238Y-95321428D01*
X132660476Y-95416666D01*
X132708095Y-95511904D01*
X132422380Y-94321428D02*
X132422380Y-94226190D01*
X132470000Y-94130952D01*
X132517619Y-94083333D01*
X132612857Y-94035714D01*
X132803333Y-93988095D01*
X133041428Y-93988095D01*
X133231904Y-94035714D01*
X133327142Y-94083333D01*
X133374761Y-94130952D01*
X133422380Y-94226190D01*
X133422380Y-94321428D01*
X133374761Y-94416666D01*
X133327142Y-94464285D01*
X133231904Y-94511904D01*
X133041428Y-94559523D01*
X132803333Y-94559523D01*
X132612857Y-94511904D01*
X132517619Y-94464285D01*
X132470000Y-94416666D01*
X132422380Y-94321428D01*
G04 #@! TO.C,R11*
X165678380Y-52204857D02*
X165202190Y-52538190D01*
X165678380Y-52776285D02*
X164678380Y-52776285D01*
X164678380Y-52395333D01*
X164726000Y-52300095D01*
X164773619Y-52252476D01*
X164868857Y-52204857D01*
X165011714Y-52204857D01*
X165106952Y-52252476D01*
X165154571Y-52300095D01*
X165202190Y-52395333D01*
X165202190Y-52776285D01*
X165678380Y-51252476D02*
X165678380Y-51823904D01*
X165678380Y-51538190D02*
X164678380Y-51538190D01*
X164821238Y-51633428D01*
X164916476Y-51728666D01*
X164964095Y-51823904D01*
X165678380Y-50300095D02*
X165678380Y-50871523D01*
X165678380Y-50585809D02*
X164678380Y-50585809D01*
X164821238Y-50681047D01*
X164916476Y-50776285D01*
X164964095Y-50871523D01*
G04 #@! TO.C,R12*
X128342380Y-52204857D02*
X127866190Y-52538190D01*
X128342380Y-52776285D02*
X127342380Y-52776285D01*
X127342380Y-52395333D01*
X127390000Y-52300095D01*
X127437619Y-52252476D01*
X127532857Y-52204857D01*
X127675714Y-52204857D01*
X127770952Y-52252476D01*
X127818571Y-52300095D01*
X127866190Y-52395333D01*
X127866190Y-52776285D01*
X128342380Y-51252476D02*
X128342380Y-51823904D01*
X128342380Y-51538190D02*
X127342380Y-51538190D01*
X127485238Y-51633428D01*
X127580476Y-51728666D01*
X127628095Y-51823904D01*
X127437619Y-50871523D02*
X127390000Y-50823904D01*
X127342380Y-50728666D01*
X127342380Y-50490571D01*
X127390000Y-50395333D01*
X127437619Y-50347714D01*
X127532857Y-50300095D01*
X127628095Y-50300095D01*
X127770952Y-50347714D01*
X128342380Y-50919142D01*
X128342380Y-50300095D01*
G04 #@! TO.C,R13*
X139262380Y-52204857D02*
X138786190Y-52538190D01*
X139262380Y-52776285D02*
X138262380Y-52776285D01*
X138262380Y-52395333D01*
X138310000Y-52300095D01*
X138357619Y-52252476D01*
X138452857Y-52204857D01*
X138595714Y-52204857D01*
X138690952Y-52252476D01*
X138738571Y-52300095D01*
X138786190Y-52395333D01*
X138786190Y-52776285D01*
X139262380Y-51252476D02*
X139262380Y-51823904D01*
X139262380Y-51538190D02*
X138262380Y-51538190D01*
X138405238Y-51633428D01*
X138500476Y-51728666D01*
X138548095Y-51823904D01*
X138262380Y-50919142D02*
X138262380Y-50300095D01*
X138643333Y-50633428D01*
X138643333Y-50490571D01*
X138690952Y-50395333D01*
X138738571Y-50347714D01*
X138833809Y-50300095D01*
X139071904Y-50300095D01*
X139167142Y-50347714D01*
X139214761Y-50395333D01*
X139262380Y-50490571D01*
X139262380Y-50776285D01*
X139214761Y-50871523D01*
X139167142Y-50919142D01*
G04 #@! TO.C,R14*
X151962380Y-54490857D02*
X151486190Y-54824190D01*
X151962380Y-55062285D02*
X150962380Y-55062285D01*
X150962380Y-54681333D01*
X151010000Y-54586095D01*
X151057619Y-54538476D01*
X151152857Y-54490857D01*
X151295714Y-54490857D01*
X151390952Y-54538476D01*
X151438571Y-54586095D01*
X151486190Y-54681333D01*
X151486190Y-55062285D01*
X151962380Y-53538476D02*
X151962380Y-54109904D01*
X151962380Y-53824190D02*
X150962380Y-53824190D01*
X151105238Y-53919428D01*
X151200476Y-54014666D01*
X151248095Y-54109904D01*
X151295714Y-52681333D02*
X151962380Y-52681333D01*
X150914761Y-52919428D02*
X151629047Y-53157523D01*
X151629047Y-52538476D01*
G04 #@! TO.C,cap_conn1*
X132580476Y-81324761D02*
X132485238Y-81372380D01*
X132294761Y-81372380D01*
X132199523Y-81324761D01*
X132151904Y-81277142D01*
X132104285Y-81181904D01*
X132104285Y-80896190D01*
X132151904Y-80800952D01*
X132199523Y-80753333D01*
X132294761Y-80705714D01*
X132485238Y-80705714D01*
X132580476Y-80753333D01*
X133437619Y-81372380D02*
X133437619Y-80848571D01*
X133390000Y-80753333D01*
X133294761Y-80705714D01*
X133104285Y-80705714D01*
X133009047Y-80753333D01*
X133437619Y-81324761D02*
X133342380Y-81372380D01*
X133104285Y-81372380D01*
X133009047Y-81324761D01*
X132961428Y-81229523D01*
X132961428Y-81134285D01*
X133009047Y-81039047D01*
X133104285Y-80991428D01*
X133342380Y-80991428D01*
X133437619Y-80943809D01*
X133913809Y-80705714D02*
X133913809Y-81705714D01*
X133913809Y-80753333D02*
X134009047Y-80705714D01*
X134199523Y-80705714D01*
X134294761Y-80753333D01*
X134342380Y-80800952D01*
X134390000Y-80896190D01*
X134390000Y-81181904D01*
X134342380Y-81277142D01*
X134294761Y-81324761D01*
X134199523Y-81372380D01*
X134009047Y-81372380D01*
X133913809Y-81324761D01*
X134580476Y-81467619D02*
X135342380Y-81467619D01*
X136009047Y-81324761D02*
X135913809Y-81372380D01*
X135723333Y-81372380D01*
X135628095Y-81324761D01*
X135580476Y-81277142D01*
X135532857Y-81181904D01*
X135532857Y-80896190D01*
X135580476Y-80800952D01*
X135628095Y-80753333D01*
X135723333Y-80705714D01*
X135913809Y-80705714D01*
X136009047Y-80753333D01*
X136580476Y-81372380D02*
X136485238Y-81324761D01*
X136437619Y-81277142D01*
X136390000Y-81181904D01*
X136390000Y-80896190D01*
X136437619Y-80800952D01*
X136485238Y-80753333D01*
X136580476Y-80705714D01*
X136723333Y-80705714D01*
X136818571Y-80753333D01*
X136866190Y-80800952D01*
X136913809Y-80896190D01*
X136913809Y-81181904D01*
X136866190Y-81277142D01*
X136818571Y-81324761D01*
X136723333Y-81372380D01*
X136580476Y-81372380D01*
X137342380Y-80705714D02*
X137342380Y-81372380D01*
X137342380Y-80800952D02*
X137390000Y-80753333D01*
X137485238Y-80705714D01*
X137628095Y-80705714D01*
X137723333Y-80753333D01*
X137770952Y-80848571D01*
X137770952Y-81372380D01*
X138247142Y-80705714D02*
X138247142Y-81372380D01*
X138247142Y-80800952D02*
X138294761Y-80753333D01*
X138390000Y-80705714D01*
X138532857Y-80705714D01*
X138628095Y-80753333D01*
X138675714Y-80848571D01*
X138675714Y-81372380D01*
X139675714Y-81372380D02*
X139104285Y-81372380D01*
X139390000Y-81372380D02*
X139390000Y-80372380D01*
X139294761Y-80515238D01*
X139199523Y-80610476D01*
X139104285Y-80658095D01*
G04 #@! TO.C,cap_conn2*
X152138476Y-62020761D02*
X152043238Y-62068380D01*
X151852761Y-62068380D01*
X151757523Y-62020761D01*
X151709904Y-61973142D01*
X151662285Y-61877904D01*
X151662285Y-61592190D01*
X151709904Y-61496952D01*
X151757523Y-61449333D01*
X151852761Y-61401714D01*
X152043238Y-61401714D01*
X152138476Y-61449333D01*
X152995619Y-62068380D02*
X152995619Y-61544571D01*
X152948000Y-61449333D01*
X152852761Y-61401714D01*
X152662285Y-61401714D01*
X152567047Y-61449333D01*
X152995619Y-62020761D02*
X152900380Y-62068380D01*
X152662285Y-62068380D01*
X152567047Y-62020761D01*
X152519428Y-61925523D01*
X152519428Y-61830285D01*
X152567047Y-61735047D01*
X152662285Y-61687428D01*
X152900380Y-61687428D01*
X152995619Y-61639809D01*
X153471809Y-61401714D02*
X153471809Y-62401714D01*
X153471809Y-61449333D02*
X153567047Y-61401714D01*
X153757523Y-61401714D01*
X153852761Y-61449333D01*
X153900380Y-61496952D01*
X153948000Y-61592190D01*
X153948000Y-61877904D01*
X153900380Y-61973142D01*
X153852761Y-62020761D01*
X153757523Y-62068380D01*
X153567047Y-62068380D01*
X153471809Y-62020761D01*
X154138476Y-62163619D02*
X154900380Y-62163619D01*
X155567047Y-62020761D02*
X155471809Y-62068380D01*
X155281333Y-62068380D01*
X155186095Y-62020761D01*
X155138476Y-61973142D01*
X155090857Y-61877904D01*
X155090857Y-61592190D01*
X155138476Y-61496952D01*
X155186095Y-61449333D01*
X155281333Y-61401714D01*
X155471809Y-61401714D01*
X155567047Y-61449333D01*
X156138476Y-62068380D02*
X156043238Y-62020761D01*
X155995619Y-61973142D01*
X155948000Y-61877904D01*
X155948000Y-61592190D01*
X155995619Y-61496952D01*
X156043238Y-61449333D01*
X156138476Y-61401714D01*
X156281333Y-61401714D01*
X156376571Y-61449333D01*
X156424190Y-61496952D01*
X156471809Y-61592190D01*
X156471809Y-61877904D01*
X156424190Y-61973142D01*
X156376571Y-62020761D01*
X156281333Y-62068380D01*
X156138476Y-62068380D01*
X156900380Y-61401714D02*
X156900380Y-62068380D01*
X156900380Y-61496952D02*
X156948000Y-61449333D01*
X157043238Y-61401714D01*
X157186095Y-61401714D01*
X157281333Y-61449333D01*
X157328952Y-61544571D01*
X157328952Y-62068380D01*
X157805142Y-61401714D02*
X157805142Y-62068380D01*
X157805142Y-61496952D02*
X157852761Y-61449333D01*
X157948000Y-61401714D01*
X158090857Y-61401714D01*
X158186095Y-61449333D01*
X158233714Y-61544571D01*
X158233714Y-62068380D01*
X158662285Y-61163619D02*
X158709904Y-61116000D01*
X158805142Y-61068380D01*
X159043238Y-61068380D01*
X159138476Y-61116000D01*
X159186095Y-61163619D01*
X159233714Y-61258857D01*
X159233714Y-61354095D01*
X159186095Y-61496952D01*
X158614666Y-62068380D01*
X159233714Y-62068380D01*
G04 #@! TO.C,H1*
X122682095Y-99152380D02*
X122682095Y-98152380D01*
X122682095Y-98628571D02*
X123253523Y-98628571D01*
X123253523Y-99152380D02*
X123253523Y-98152380D01*
X124253523Y-99152380D02*
X123682095Y-99152380D01*
X123967809Y-99152380D02*
X123967809Y-98152380D01*
X123872571Y-98295238D01*
X123777333Y-98390476D01*
X123682095Y-98438095D01*
G04 #@! TO.C,H2*
X207518095Y-100422380D02*
X207518095Y-99422380D01*
X207518095Y-99898571D02*
X208089523Y-99898571D01*
X208089523Y-100422380D02*
X208089523Y-99422380D01*
X208518095Y-99517619D02*
X208565714Y-99470000D01*
X208660952Y-99422380D01*
X208899047Y-99422380D01*
X208994285Y-99470000D01*
X209041904Y-99517619D01*
X209089523Y-99612857D01*
X209089523Y-99708095D01*
X209041904Y-99850952D01*
X208470476Y-100422380D01*
X209089523Y-100422380D01*
G04 #@! TO.C,H3*
X122936095Y-86452380D02*
X122936095Y-85452380D01*
X122936095Y-85928571D02*
X123507523Y-85928571D01*
X123507523Y-86452380D02*
X123507523Y-85452380D01*
X123888476Y-85452380D02*
X124507523Y-85452380D01*
X124174190Y-85833333D01*
X124317047Y-85833333D01*
X124412285Y-85880952D01*
X124459904Y-85928571D01*
X124507523Y-86023809D01*
X124507523Y-86261904D01*
X124459904Y-86357142D01*
X124412285Y-86404761D01*
X124317047Y-86452380D01*
X124031333Y-86452380D01*
X123936095Y-86404761D01*
X123888476Y-86357142D01*
G04 #@! TD*
M02*
